SplineFontDB: 3.2
FontName: Dakkhinee
FullName: Dakkhinee
FamilyName: Dakkhinee
Weight: Regular
Copyright: OFL (c) Dr Anirban Mitra 2022
FontLog: "muktiregular3.0beta1"
Version: 0.1.0
ItalicAngle: 0
UnderlinePosition: -166
UnderlineWidth: 73
Ascent: 800
Descent: 200
InvalidEm: 0
LayerCount: 2
Layer: 0 0 "Back" 1
Layer: 1 0 "Fore" 0
XUID: [1021 498 675293083 873107]
BaseVert: 2 'hang' 'romn'
BaseScript: 'beng' 0  1024 0
BaseScript: 'deva' 0  1024 0
BaseScript: 'latn' 1  0 0
FSType: 0
OS2Version: 3
OS2_WeightWidthSlopeOnly: 0
OS2_UseTypoMetrics: 0
CreationTime: 1138213189
ModificationTime: 1721294931
PfmFamily: 81
TTFWeight: 400
TTFWidth: 5
LineGap: 0
VLineGap: 0
Panose: 0 0 6 3 0 0 0 0 0 0
OS2TypoAscent: 1241
OS2TypoAOffset: 0
OS2TypoDescent: 438
OS2TypoDOffset: 0
OS2TypoLinegap: 0
OS2WinAscent: 1241
OS2WinAOffset: 0
OS2WinDescent: 438
OS2WinDOffset: 0
HheadAscent: 1059
HheadAOffset: 0
HheadDescent: -256
HheadDOffset: 0
OS2SubXSize: 650
OS2SubYSize: 700
OS2SubXOff: 0
OS2SubYOff: 140
OS2SupXSize: 650
OS2SupYSize: 700
OS2SupXOff: 0
OS2SupYOff: 480
OS2StrikeYSize: 50
OS2StrikeYPos: 259
OS2CapHeight: 1493
OS2XHeight: 1073
OS2Vendor: '    '
OS2UnicodeRanges: 80018007.00002002.00000000.00000000
Lookup: 1 0 0 "'init' Initial Forms in Bengali2 lookup 0" { "'init' Initial Forms in Bengali lookup 0 subtable"  } ['init' ('bng2' <'ASM ' 'dflt' > ) ]
Lookup: 4 0 0 "'nukt' Nukta Forms in Bengali2 lookup 1" { "'nukt' Nukta Forms in Bengali lookup 1 subtable"  } ['nukt' ('bng2' <'ASM ' 'dflt' > ) ]
Lookup: 4 0 0 "'akhn' Akhand in Bengali2 lookup 2" { "'akhn' Akhand in Bengali lookup 2 subtable"  } ['akhn' ('bng2' <'dflt' > ) ]
Lookup: 4 0 0 "'rphf' Reph Form in Bengali2 lookup 3" { "'rphf' Reph Form in Bengali lookup 3 subtable"  } ['rphf' ('bng2' <'dflt' > ) 'rphf' ('bng2' <'ASM ' > ) ]
Lookup: 4 0 0 "'blwf' Below Base Forms in Bengali2 lookup 4" { "'blwf' Below Base Forms in Bengali2 lookup 4 subtable"  } ['blwf' ('bng2' <'ASM ' 'dflt' > ) ]

StartChar: .notdef
Encoding: 65536 -1 0
GlifName: _notdef
Width: 431
Flags: W
HStem: 0 33<65 333> 633 33<65 333>
VStem: 33 32<33 633> 333 33<33 633>
LayerCount: 2
Fore
SplineSet
33 0 m 1
 33 666 l 1
 366 666 l 1
 366 0 l 1
 33 0 l 1
65 33 m 1
 333 33 l 1
 333 633 l 1
 65 633 l 1
 65 33 l 1
EndSplineSet
Validated: 1
EndChar

StartChar: comma
Encoding: 44 44 3
GlifName: comma
Width: 359
VWidth: 1024
GlyphClass: 2
Flags: W
HStem: -133 233<153 160>
VStem: 100 160
LayerCount: 2
Fore
SplineSet
136 30 m 1
 153 100 l 1
 260 100 l 1
 160 -133 l 1
 100 -133 l 1
 136 30 l 1
EndSplineSet
Validated: 1
EndChar

StartChar: danda
Encoding: 2404 2404 4
GlifName: danda
Width: 254
GlyphClass: 2
Flags: W
VStem: 110 48<61 478>
LayerCount: 2
Fore
SplineSet
156 535 m 1
 158 61 l 1
 110 11 l 1
 110 478 l 1
 156 535 l 1
EndSplineSet
Validated: 1
EndChar

StartChar: doubledanda
Encoding: 2405 2405 5
GlifName: doubledanda
Width: 424
GlyphClass: 2
Flags: W
VStem: 110 48<61 478> 253 49<70 487>
LayerCount: 2
Fore
SplineSet
307 545 m 1
 302 70 l 1
 253 16 l 1
 257 487 l 1
 307 545 l 1
156 535 m 5
 158 61 l 5
 110 11 l 5
 110 478 l 5
 156 535 l 5
EndSplineSet
Validated: 1
EndChar

StartChar: u0981
Encoding: 2433 2433 6
GlifName: u0981
Width: 29
GlyphClass: 4
Flags: W
HStem: 504.001 50.0225<-384.851 -221.533> 633.005 83.96<-341.305 -288.19> 705.995 20G<-17.0649 -8.80029>
VStem: -347.995 69.9346<643.012 708.672> -35.0127 48.0078<670.935 718.448>
LayerCount: 2
Fore
SplineSet
-618.995117188 695 m 2xb8
 -618.995117188 701.399414062 -616.555664062 707.799804688 -611.677734375 712.677734375 c 0
 -606.799804688 717.555664062 -600.399414062 719.995117188 -594 719.995117188 c 0
 -581.201171875 719.995117188 -570.24609375 709.599609375 -569.111328125 697.31640625 c 1
 -555.185546875 671.59765625 -528.947265625 640.451171875 -502.833007812 624.256835938 c 0
 -502.021484375 623.75390625 -501.232421875 623.19921875 -500.471679688 622.594726562 c 0
 -477.799804688 604.58984375 -450.709960938 588.891601562 -427.486328125 580.508789062 c 0
 -416.717773438 576.62109375 -400.11328125 570.129882812 -385.244140625 561.07421875 c 1
 -330.598632812 554.0234375 l 1
 -221.533203125 555.903320312 l 1
 -172.168945312 577.842773438 l 2
 -171.926757812 577.950195312 -171.68359375 578.053710938 -171.439453125 578.153320312 c 0
 -147.282226562 587.979492188 -123.7734375 603.333007812 -104.21484375 620.030273438 c 0
 -103.793945312 620.389648438 -103.364257812 620.732421875 -102.92578125 621.059570312 c 0
 -95.6123046875 626.51171875 -88.83984375 632.422851562 -82.5732421875 638.689453125 c 0
 -61.3583984375 659.905273438 -45.7236328125 685.5234375 -35.0126953125 710.779296875 c 0
 -31.4228515625 719.2421875 -22.1298828125 725.995117188 -12 725.995117188 c 0
 -5.6005859375 725.995117188 0.7998046875 723.555664062 5.677734375 718.677734375 c 0
 10.5556640625 713.799804688 12.9951171875 707.399414062 12.9951171875 701 c 0
 12.9951171875 697.668945312 12.333984375 694.336914062 11.0126953125 691.220703125 c 0
 -1.716796875 661.208007812 -20.416015625 630.13671875 -47.2177734375 603.333984375 c 0
 -54.9482421875 595.604492188 -63.3330078125 588.2578125 -72.408203125 581.439453125 c 0
 -95.1708984375 562.1015625 -122.30078125 544.211914062 -152.18359375 532 c 2
 -205.831054688 508.157226562 l 2
 -208.924804688 506.782226562 -212.240234375 506.06640625 -215.565429688 506.008789062 c 2
 -332 504.000976562 l 2
 -333.076171875 504.000976562 -334.15234375 504.07421875 -335.220703125 504.211914062 c 2
 -397.220703125 512.211914062 l 2
 -400.9921875 512.698242188 -404.673828125 514.043945312 -407.947265625 516.247070312 c 0
 -417.275390625 522.52734375 -434.7421875 529.963867188 -444.513671875 533.491210938 c 0
 -473.881835938 544.092773438 -504.110351562 561.806640625 -530.416015625 582.525390625 c 0
 -565.770507812 604.870117188 -598.833984375 644.427734375 -616.403320312 679.89453125 c 0
 -618.130859375 683.3828125 -618.995117188 687.19140625 -618.995117188 691 c 2
 -618.995117188 695 l 2xb8
-277.849609375 684.37890625 m 0
 -277.849609375 681.821289062 -278.060546875 679.603515625 -278.060546875 677.671875 c 0
 -278.0234375 677.115234375 -278.004882812 676.557617188 -278.004882812 676 c 0
 -278.004882812 673.88671875 -277.866210938 671.958007812 -277.866210938 669.46484375 c 0
 -277.866210938 667.115234375 -278.018554688 664.203125 -278.68359375 660.598632812 c 0
 -279.56640625 655.813476562 -281.734375 648.822265625 -287.831054688 642.725585938 c 0
 -295.455078125 635.1015625 -305.426757812 633.004882812 -313 633.004882812 c 0
 -324.215820312 633.004882812 -331.116210938 638.709960938 -334.83984375 642.43359375 c 0
 -339.430664062 647.024414062 -341.837890625 651.383789062 -343.764648438 655.669921875 c 0
 -346.163085938 661.000976562 -347.995117188 666.330078125 -347.995117188 674 c 2
 -347.995117188 678 l 2
 -347.995117188 684.399414062 -345.555664062 690.799804688 -340.677734375 695.677734375 c 2
 -328.677734375 707.677734375 l 2
 -326.166992188 710.188476562 -323.251953125 712.053710938 -320.142578125 713.272460938 c 0
 -316.372070312 715.604492188 -312.564453125 716.96484375 -307.040039062 716.96484375 c 0xd8
 -300.247070312 716.96484375 -292.25 714.551757812 -286.741210938 709.04296875 c 0
 -278.8125 701.114257812 -278.596679688 693.83984375 -278.202148438 690.416992188 c 0
 -277.9296875 688.061523438 -277.849609375 686.0703125 -277.849609375 684.37890625 c 0
EndSplineSet
Validated: 1
Substitution2: "Single Substitution Lookup 27" u0981.salt
EndChar

StartChar: u0982
Encoding: 2434 2434 7
GlifName: u0982
Width: 470
GlyphClass: 2
Flags: W
HStem: 11.788 65.212<391.065 443.902> 329 62<119.61 181.583> 509 124<129.788 198.212>
VStem: 118 92<519.33 622.67>
LayerCount: 2
Fore
SplineSet
101 293 m 1
 93 305 87 325 87 341 c 0
 87 379 139 391 171 391 c 0
 218 391 256 356 283 329 c 0
 298 314 331 278 331 257 c 0
 331 252 333 247 333 243 c 0
 333 221 384 77 413 77 c 0
 427 77 457 65 457 45 c 0
 439.377367758 32.6641574309 431.847843448 11.7879927658 406.363148995 11.7879927658 c 0
 402.925155732 11.7879927658 399.160393577 12.1679212846 395 13 c 0
 310 43 293 155 227 225 c 0
 205 249 195 329 139 329 c 0
 137 329 119 307 117 305 c 0
 101 293 l 1
118 571 m 0
 118 612 145 633 164 633 c 0
 183 633 210 612 210 571 c 0
 210 530 183 509 164 509 c 0
 145 509 118 530 118 571 c 0
EndSplineSet
Validated: 1
EndChar

StartChar: u0983
Encoding: 2435 2435 8
GlifName: u0983
Width: 423
VWidth: 1024
GlyphClass: 2
Flags: W
HStem: 0 65<185.966 280.034> 195 65<185.966 280.034> 325 65<185.966 280.034> 520 65<185.966 279.711>
VStem: 103 65<82.9656 177.034 407.966 502.034> 298 65<82.9656 177.034 407.966 502.034>
LayerCount: 2
Fore
SplineSet
103 455 m 1
 103 491 116 522 141 547 c 0
 166 572 197 585 233 585 c 256
 278 585 300 572 325 547 c 0
 350 522 363 491 363 455 c 256
 363 419 350 388 325 363 c 0
 300 338 269 325 233 325 c 256
 197 325 166 338 141 363 c 0
 116 388 103 419 103 455 c 1
168 455 m 1
 168 437 174 422 187 409 c 0
 200 396 215 390 233 390 c 256
 251 390 266 396 279 409 c 0
 292 422 298 437 298 455 c 256
 298 473 292 488 279 501 c 0
 266 514 251 520 233 520 c 256
 215 520 200 514 187 501 c 0
 174 488 168 473 168 455 c 1
103 130 m 1
 103 166 116 197 141 222 c 0
 166 247 197 260 233 260 c 256
 269 260 300 247 325 222 c 0
 350 197 363 166 363 130 c 256
 363 94 350 63 325 38 c 0
 300 13 269 0 233 0 c 256
 197 0 166 13 141 38 c 0
 116 63 103 94 103 130 c 1
168 130 m 1
 168 112 174 97 187 84 c 0
 200 71 215 65 233 65 c 256
 251 65 266 71 279 84 c 0
 292 97 298 112 298 130 c 256
 298 148 292 163 279 176 c 0
 266 189 251 195 233 195 c 256
 215 195 200 189 187 176 c 0
 174 163 168 148 168 130 c 1
EndSplineSet
Validated: 1
EndChar

StartChar: u09a4
Encoding: 2468 2468 9
GlifName: u09a4
Width: 898
GlyphClass: 2
Flags: W
HStem: 41.4815 89.8248<319.521 543.359> 383.988 95.2182<186.779 255.879> 423 21G<600 621.696> 597.006 106.89<568.021 668.603> 609.742 94.9205<186.678 248.133> 740 78<77 703.423> 1003 20G<761 765>
VStem: 58.1244 100.17<281.583 393.887> 265.984 98.016<486.93 598.274> 443 106.831<503.148 579.556> 718.842 97.1582<320.977 532.002> 770 78.0767<833.466 942.309>
LayerCount: 2
Fore
SplineSet
735 998 m 2x87d0
 747 1012 759 1022 763 1023 c 0
 767 1023 784 1009 801 993 c 0
 825 969 834 955 841 929 c 0
 845.746801221 913.084254728 848.076662038 897.480372735 848.076662038 882.406052988 c 0
 848.076662038 843.49381974 832.551832348 808.110279551 803 780 c 0
 763 741 768 742 471 740 c 2
 77 738 l 1
 77 778 l 1
 77 818 l 1
 461 818 l 2
 744 818 744 818 762 852 c 0
 766 862 770 876 770 885 c 0
 770 908 751 945 732 961 c 2
 715 975 l 1
 735 998 l 2x87d0
633 423 m 1xb7e0
 600 424 l 1
 503 427 l 1
 486 444 l 2
 463 468 444 513 443 543 c 0
 443 632.28008464 520.722121792 703.896050691 614.744262112 703.896050691 c 0xb7e0
 620.767987188 703.896050691 626.858617193 703.602096354 633 703 c 0
 678 699 712 682 746 645 c 0
 792 595 816 520 816 427 c 0
 816 210 665 53 446 42 c 0
 437.791164204 41.6550909329 429.720324634 41.4814875268 421.78321405 41.4814875268 c 0
 314.659409435 41.4814875268 231.895345807 73.1046541928 163 142 c 0
 93.3396288995 212.576954931 58.1244204334 304.157057809 58.1244204334 419.820491963 c 0
 58.1244204334 430.346752994 58.4160868119 441.072481765 59 452 c 0
 66 579 111 670 181 696 c 0
 196.335927383 701.842258051 211.731111674 704.662413782 226.767234943 704.662413782 c 0
 273.499516173 704.662413782 316.763387076 677.420645198 344 629 c 0
 362 598 364 589 364 544 c 0
 363 505 360 487 350 467 c 0
 333 434 293 399 263 389 c 0
 253.169783801 385.580794366 238.955454913 383.988302352 223.9484113 383.988302352 c 0xcfe0
 203.84310376 383.988302352 182.314982392 386.846606339 168 392 c 0
 165.449530849 393.15930416 163.490415597 393.888532756 162.022936566 393.888532756 c 0
 159.33261755 393.888532756 158.294669771 391.437622295 158.294669771 384.692530998 c 0
 158.294669771 379.248611097 158.970789008 371.007461579 160 359 c 0
 166 301 181 265 215 228 c 0
 274.062270932 164.323489151 344.195971069 131.306320713 418.327622331 131.306320713 c 0
 424.525183033 131.306320713 430.750686649 131.5370879 437 132 c 0
 529 139 593 165 632 209 c 0
 667 249 702 318 713 372 c 0
 716.988358263 390.381129388 718.841750334 409.183238026 718.841750334 427.702390604 c 0
 718.841750334 515.536860352 677.149527672 597.006207906 623.806772492 597.006207906 c 0
 623.538142513 597.006207906 623.26921707 597.004141801 623 597 c 0
 592 597 573 587 557 562 c 0
 551.991541071 554.66618514 549.83070308 547.940289357 549.83070308 541.536153089 c 0
 549.83070308 512.137696574 595.366205995 489.519702742 620 446 c 2
 633 423 l 1xb7e0
244 599 m 0
 236.751566433 606.461622789 228.775938553 609.741878274 220.877334434 609.741878274 c 0
 196.868650843 609.741878274 173.571607865 579.434827829 173.571607865 544.127262121 c 0
 173.571607865 536.564694958 174.640425813 528.77271497 177 521 c 0
 185.176665442 494.133813546 204.268899499 479.206530263 222.721632403 479.206530263 c 0xcfc0
 235.863473409 479.206530263 248.680950632 486.777853733 257 503 c 0
 263.080796025 514.781542298 265.983960149 528.151900546 265.983960149 541.464268089 c 0
 265.983960149 563.179860671 258.258855714 584.741144286 244 599 c 0
EndSplineSet
Validated: 1
EndChar

StartChar: zwnj
Encoding: 8204 8204 11
GlifName: zwnj
Width: 0
GlyphClass: 2
Flags: W
VStem: -13 25<12 683>
LayerCount: 2
Fore
SplineSet
-12 684 m 1
 13 683 l 1
 12 12 l 1
 -13 12 l 1
 -12 684 l 1
EndSplineSet
Validated: 1
EndChar

StartChar: zwj
Encoding: 8205 8205 12
GlifName: zwj
Width: 0
GlyphClass: 2
Flags: W
HStem: 703 20G<-137.429 -93.6923 69.1538 117>
VStem: -19 39<15 601>
LayerCount: 2
Fore
SplineSet
-19 10 m 1
 -19 605 l 1
 -102 532 l 1
 -131 542 l 1
 -34 630 l 1
 -146 688 l 1
 -126 723 l 1
 0 645 l 1
 93 723 l 1
 123 698 l 1
 20 625 l 1
 127 557 l 1
 118 537 l 1
 20 601 l 1
 20 15 l 1
 -19 10 l 1
EndSplineSet
Validated: 1
EndChar

StartChar: quotedblleft
Encoding: 8220 8220 13
GlifName: quotedblleft
Width: 518
GlyphClass: 2
Flags: W
HStem: 621.444 48.5556<142.33 208.842 330.972 417.842> 828.093 20G<175.035 184.591 384.035 393.591>
VStem: 72 48<670.413 747.1> 281 48<670.413 747.1>
LayerCount: 2
Fore
SplineSet
135 623 m 1
 93 633 72 657 72 695 c 0
 72 710 76 725 83 743 c 0
 100 783 129 818 172 848 c 1
 173.235685146 848.061784257 174.44464923 848.093030159 175.625477162 848.093030159 c 0
 193.556765862 848.093030159 205 840.887883369 205 824 c 0
 205 819 204 815 203 810 c 1
 191 804 175 789 155 765 c 0
 132 737 120 715 120 697 c 0
 120 684 127 675 142 670 c 0
 149 669 158 669 170 670 c 0
 176 670 184 671 191 672 c 1
 203 667 209 658 209 646 c 0
 209 637 205 630 196 625 c 1
 182.666666667 622.333333333 170.666666667 621.444444444 160.296296296 621.444444444 c 0
 155.111111111 621.444444444 150.333333333 621.666666667 146 622 c 2
 135 623 l 1
344 623 m 1
 302 633 281 657 281 695 c 0
 281 710 285 725 292 743 c 0
 309 783 338 818 381 848 c 1
 382.235685146 848.061784257 383.44464923 848.093030159 384.625477162 848.093030159 c 0
 402.556765862 848.093030159 414 840.887883369 414 824 c 0
 414 819 413 815 412 810 c 1
 400 804 384 789 364 765 c 0
 341 737 329 715 329 697 c 0
 329 684 336 675 351 670 c 0
 358 669 367 669 379 670 c 0
 385 670 393 671 400 672 c 1
 412 667 418 658 418 646 c 0
 418 637 414 630 405 625 c 1
 391.666666667 622.333333333 380.111111111 621.444444444 370.037037037 621.444444444 c 0
 365 621.444444444 360.333333333 621.666666667 356 622 c 2
 344 623 l 1
EndSplineSet
Validated: 1
EndChar

StartChar: quotedblright
Encoding: 8221 8221 14
GlifName: quotedblright
Width: 516
GlyphClass: 2
Flags: W
HStem: 756 49.3607<101.362 167.67 310.362 376.67>
VStem: 190 48<678.91 755.812> 399 49<677.355 755.812>
LayerCount: 2
Fore
SplineSet
437 683 m 0
 420 642 390 607 347 578 c 1
 344.018368035 577.593413823 341.220416426 577.388876036 338.611123964 577.388876036 c 0
 321.96772701 577.388876036 313 585.710574513 313 603 c 0
 313 607 314 611 315 616 c 1
 327 621 344 636 365 661 c 0
 388 689 399 712 399 729 c 0
 399 742 392 751 377 756 c 0
 370 757 360 757 348 756 c 0
 342 756 335 755 328 754 c 1
 316 759 310 767 310 779 c 0
 310 789 315 796 324 801 c 1
 338.514708428 804.05572809 351.862232585 805.360679775 363.150923032 805.360679775 c 0
 366.639320225 805.360679775 369.931116293 805.236067977 373 805 c 0
 377 805 380 804 383 803 c 0
 426 793 448 769 448 732 c 0
 448 717 444 700 437 683 c 0
228 683 m 0
 211 642 181 607 138 578 c 1
 135.018368035 577.593413823 132.220416426 577.388876036 129.611123964 577.388876036 c 0
 112.96772701 577.388876036 104 585.710574513 104 603 c 0
 104 607 105 611 106 616 c 1
 118 621 134 636 155 661 c 0
 178 689 190 712 190 729 c 0
 190 742 183 751 168 756 c 0
 161 757 151 757 139 756 c 0
 133 756 126 755 119 754 c 1
 107 759 101 767 101 779 c 0
 101 789 106 796 115 801 c 1
 129.514708428 804.05572809 142.862232585 805.360679775 154.150923032 805.360679775 c 0
 157.639320225 805.360679775 160.931116293 805.236067977 164 805 c 0
 168 805 171 804 174 803 c 0
 217 793 238 769 238 732 c 0
 238 717 235 700 228 683 c 0
EndSplineSet
Validated: 1
EndChar

StartChar: euro
Encoding: 8364 8364 15
GlifName: euro
Width: 519
GlyphClass: 2
Flags: W
HStem: 288 24<6 183 261 494> 386 24<6 188 270 493> 574 53<414.391 480.849>
LayerCount: 2
Fore
SplineSet
270 410 m 1
 493 410 l 1
 493 385 l 1
 256 386 l 1
 249 374 l 1
 244 330 l 1
 248 318 253 304 260 289 c 1
 251 312 l 1
 494 312 l 1
 494 287 l 1
 261 288 l 1
 270 269 280 248 293 225 c 0
 316 184 375 129 469 61 c 1
 464 12 l 1
 463.104455555 11.8009901233 462.119800015 11.7009925741 461.045048158 11.7009925741 c 0
 451.318809891 11.7009925741 434.213861726 19.8905938289 409 37 c 0
 395 46 378 58 359 73 c 0
 267 144 236 190 194 287 c 1
 5 288 l 1
 6 314 l 1
 183 313 l 1
 176 330 l 1
 176 347 182 368 193 394 c 1
 188 386 l 1
 4 386 l 1
 6 409 l 1
 200 410 l 1
 207 424 215 438 225 454 c 0
 291 563 376 620 479 627 c 1
 493 574 l 1
 454 571 415 556 376 532 c 0
 343 511 308 471 270 410 c 1
EndSplineSet
Validated: 1
EndChar

StartChar: uni25CC
Encoding: 9676 9676 16
GlifName: uni25C_C_
Width: 776
GlyphClass: 2
Flags: W
HStem: -8 21G<511.667 561>
LayerCount: 2
Fore
SplineSet
148 313 m 1
 188 400 244 464 316 504 c 1
 353 450 l 1
 292 408 243 357 207 298 c 1
 148 313 l 1
498 521 m 1
 585 481 648 425 688 353 c 1
 634 315 l 1
 592 376 541 425 482 461 c 1
 498 521 l 1
356 -21 m 1
 269 19 206 75 166 147 c 1
 220 184 l 1
 262 123 312 74 371 38 c 1
 356 -21 l 1
694 183 m 1
 654 96 597 33 525 -8 c 1
 489 46 l 1
 550 88 598 139 634 198 c 1
 694 183 l 1
EndSplineSet
Validated: 1
EndChar

StartChar: u0981.salt
Encoding: 65538 -1 18
GlifName: u0981.salt
Width: 0
GlyphClass: 2
Flags: W
HStem: 694 34.7917<-166.822 -80.6005> 749 62<-148.67 -84.459> 770 20G<-209.5 -204.5 -43.5 -37>
VStem: -221 34<748.867 789.646> -159.01 76.0493<751.843 801.672> -58 37<750.25 791.909>
LayerCount: 2
Fore
SplineSet
-83 779 m 0xdc
 -82.9734240007 778.495056014 -82.9602673925 777.995762298 -82.9602673925 777.502175162 c 0
 -82.9602673925 759.423097137 -100.611247983 749 -123 749 c 0
 -143.184823892 749 -159.009547855 763.533666428 -159.009547855 780.124790777 c 0
 -159.009547855 787.37051577 -155.991346569 795.008653431 -149 802 c 0
 -142 808 -133 811 -123 811 c 0
 -100 811 -83 801 -83 779 c 0xdc
-117 694 m 0
 -175 694 -221 720 -221 778 c 1
 -216 786 -212 790 -207 790 c 0xbc
 -202 790 -195 787 -187 781 c 1
 -183.186843159 757.167769742 -159.38095931 728.791737892 -130.309642364 728.791737892 c 0
 -128.885159471 728.791737892 -127.44803448 728.859867631 -126 729 c 0
 -80 731 -73 750 -58 786 c 1
 -51 790 -46 792 -41 792 c 0
 -33 792 -26 787 -21 778 c 1
 -27 735 -55 707 -104 695 c 0
 -109 695 -113 694 -117 694 c 0
EndSplineSet
Validated: 1
EndChar

StartChar: u099c_u09cd_u099e.akhn
Encoding: 65539 -1 19
GlifName: u099c_u09cd_u099e.akhn
Width: 858
GlyphClass: 3
Flags: W
HStem: 28 52<296.089 444.015> 69 59.3467<646.555 743.593> 227 56<660.704 729.25> 431 20G<684 723.531> 610 63<-13 292 391 859>
VStem: 23 59<412.65 526.123> 202 61<350.441 504.637> 524 66<209.187 291.967> 749 59<133.519 213.721 303.264 381.121>
AnchorPoint: "Anchor-0" 441 675 basechar 0
AnchorPoint: "Anchor-1" 455 41 basechar 0
LayerCount: 2
Fore
SplineSet
747 173 m 0x7f80
 747 206 721 227 683 227 c 1
 668 232 660 242 660 255 c 0
 660 269 667 280 682 283 c 0
 713 289 749 309 749 346 c 0
 749 373 729 388 690 390 c 1
 656 383 632 371 615 353 c 1
 602 337 l 1
 584 307 l 2
 582 303 579 299 576 293 c 1
 587 271 592 247 590 220 c 0
 590 216 589 213 588 209 c 1
 609 183 627 165 640 155 c 0
 656.085408176 142.242607309 685.273606515 128.346690131 709.174419078 128.346690131 c 0
 728.363813289 128.346690131 744.144904509 137.304140579 747 163 c 0
 747 166 747 169 747 173 c 0x7f80
344 577 m 1
 304.800634837 555.618528093 263 480.235705476 263 419 c 0
 263 381 276 353 302 335 c 1
 428 392 l 1
 391 479 363 540 344 577 c 1
807 170 m 0
 807 120.933412233 775.63332768 69 714 69 c 0x7f80
 674 69 634 86 594 120 c 0
 582 130 572 140 563 150 c 1
 536 108 511 79 489 62 c 0
 458.426585762 39.0699393218 424.245374303 28 375 28 c 0
 280 28 197 85 126 199 c 0
 67 295 33 397 23 506 c 1
 29 521 38 528 50 528 c 0
 59 528 70 523 82 515 c 1
 97 408 131 310 184 223 c 0
 242 128 304 80 370 80 c 0xbf80
 409 80 447.949554145 96.2112380621 483 134 c 0
 511.949554145 165.211238062 524 202 524 241 c 0
 524 286 505 322 468 349 c 1
 455 345 428 330 387 306 c 0
 353 286 325 276 304 276 c 0
 293 276 282 278 271 283 c 1
 225 322 202 370 202 427 c 0
 202 495.136385534 241.777165841 571.367050647 292 610 c 1
 -13 610 l 1
 -13 673 l 1
 859 673 l 1
 859 610 l 1
 391 610 l 1
 484 405 l 1
 507 394 528 377 546 355 c 1
 568 390 596 416 629 434 c 0
 651 446 673 451 695 451 c 0
 752.061855083 451 808 402.551971997 808 345 c 0
 808 311 793 283 763 259 c 1
 792 236 807 206 807 170 c 0
EndSplineSet
Validated: 33
LCarets2: 2 0 0
Ligature2: "'akhn' Akhand in Bengali lookup 2 subtable" u099c u09cd u099e
EndChar

StartChar: u0995_u09cd_u09b7.akhn
Encoding: 65540 -1 20
GlifName: u0995_u09cd_u09b7.akhn
Width: 816
GlyphClass: 3
Flags: W
HStem: 610 63<-12 110.52 169 337 392.164 488 545 831>
VStem: 128 59<512.917 591.785> 287 66<282.331 404.487> 331 60<541.367 609.508> 488 57<133 408 494 610> 687 64<260.143 343.868>
AnchorPoint: "Anchor-0" 455 679 basechar 0
AnchorPoint: "Anchor-1" 519 45 basechar 0
LayerCount: 2
Fore
SplineSet
405 610 m 1xdc
 396 600 391 590 391 580 c 0
 391 553 424 524 488 494 c 1
 488 610 l 1
 405 610 l 1xdc
183 514 m 1
 268.435517111 502.608597719 353 434.550636921 353 343 c 0xec
 353 319 347 294 335 269 c 1
 488 133 l 1
 488 430 l 1
 384 477 331 526 331 578 c 0
 331 588 333 599 337 610 c 1
 169 610 l 1
 181 591 187 570 187 548 c 0
 187 538 186 527 183 514 c 1
200 155 m 1
 183.47644766 157.542084975 166 170.393441916 166 191 c 0
 166 197 168 202 172 206 c 0
 248 249 287 294 287 342 c 0
 287 400.153067143 234.108692745 456 175 456 c 0
 168 456 161 455 154 453 c 1
 133 420 103 392 62 368 c 1
 38.0747447151 366.592632042 24 374.422165889 24 397 c 0
 24 402 25 406 28 410 c 1
 67.4377734901 429.718886745 128 490.028196152 128 545 c 0
 128 578 107 600 67 610 c 1
 -12 610 l 1
 -12 673 l 1
 831 673 l 1
 831 610 l 1
 545 610 l 1
 545 471 l 1
 603 451 651 427 689 396 c 0
 730 363 751 330 751 297 c 0
 751 254 715 216 643 185 c 0
 628.067036305 180.520110891 612 199.057832403 612 217 c 0
 612 222 613 226 614 230 c 1
 663 251 687 275 687 300 c 0
 687 339 640 375 545 408 c 1
 545 68 l 2
 545 54.0184191216 521.97266586 41 502 41 c 0
 494 41 487 43 483 47 c 2
 294 221 l 1
 269 197 237 175 200 155 c 1
EndSplineSet
Validated: 33
Ligature2: "'akhn' Akhand in Bengali lookup 2 subtable" u0995 u09cd u09b7
EndChar

StartChar: u09b9_u09cd_u09ae.cjct
Encoding: 65541 -1 21
GlifName: u09b9_u09cd_u09ae.cjct
Width: 783
GlyphClass: 3
Flags: W
HStem: 431 51<326.043 466> 464 55<530.167 642.701> 610 63<-6 106.448 156 466 528 790>
VStem: 123 57<529.034 592.436> 284 58<294.789 423.415> 466 62<170 431 502 610> 662 51<108.965 446.448>
AnchorPoint: "Anchor-0" 373 681 basechar 0
AnchorPoint: "Anchor-1" 505 85 basechar 0
LayerCount: 2
Fore
SplineSet
466 170 m 1xbe
 466 431 l 1
 434.554275866 425.450754565 367.206157749 427.242942804 324 431 c 1
 336 404 342 378 342 353 c 0
 342 336 339 320 334 305 c 1
 466 170 l 1xbe
268 501 m 1
 319 488 364 482 404 482 c 0
 426 482 447 484 466 488 c 1
 466 610 l 1
 156 610 l 1
 175 580 183 556 181 535 c 0
 181 533 180 532 180 530 c 1
 215 527 245 517 268 501 c 1
66 372 m 1
 49.8494223389 372 30 389.562117332 30 409 c 0
 30 413 31 416 33 419 c 0
 70.5326247069 435.085410589 123 495.074425799 123 546 c 0
 123 589 92 610 30 610 c 2
 -6 610 l 1
 -6 673 l 1
 790 673 l 1
 790 610 l 1
 528 610 l 1
 528 502 l 1
 566 513 596 519 618 519 c 0
 636 519 650 516 660 509 c 0
 696 480 715 422 715 335 c 1
 713 240 l 1
 713 157 729 101 760 71 c 0
 762 67 763 63 763 59 c 0
 763 41.8248284951 741.920195295 28.7256863864 719 32 c 1
 688 59 666.924891548 107.862677645 662 179 c 0
 657.924891548 237.862677645 658 297 656 358 c 0
 654 419 645 454 626 462 c 0
 623 463 619 464 613 464 c 0x7e
 611 464 583 458 528 445 c 1
 528 97 l 1
 466 84 l 1
 308 251 l 1
 279 221 243 198 200 181 c 1
 182 186 174 197 174 213 c 0
 174 219 175 224 178 230 c 1
 249 252 284 294 284 355 c 0
 284 419.885705919 233.041577681 473.971811108 166 472 c 0
 165 472 163 471 162 471 c 0
 147 438 115 405 66 372 c 1
EndSplineSet
Validated: 33
Substitution2: "'salt' Stylistic Alternatives in Bengali2 lookup 17-1" u09b9_u09cd_u09ae.salt
Ligature2: "'cjct' Conjunct Forms in Bengali2 lookup 13" u09b9 u09cd u09ae
EndChar

StartChar: u09a4_u09cd_u09a4.cjct
Encoding: 65542 -1 22
GlifName: u09a4_u09cd_u09a4.cjct
Width: 705
GlyphClass: 3
Flags: W
HStem: 31 60<339.907 514.755> 519 57<359.075 481.263> 610 63<-12 704>
VStem: 19 55<511.333 555.573> 267 59<341.583 485.816> 525 58<358.972 476.396> 553 60<127.004 255.524>
AnchorPoint: "Anchor-0" 399 675 basechar 0
AnchorPoint: "Anchor-1" 475 31 basechar 0
LayerCount: 2
Fore
SplineSet
267 419 m 0xfc
 267 503.344762049 331.621971005 576 415 576 c 0
 460 576 499 561 532 531 c 1
 546 515 l 1
 570 486 583 453 583 417 c 0xfc
 583 382 571 350 548 321 c 1
 591 283 613 239 613 189 c 0
 613 90.2904774236 522.971828223 31 419 31 c 0
 367 31 309 55 245 104 c 0
 219 125 196 146 176 168 c 0
 103 251 50 369 19 524 c 0
 17.5778837254 545.331744119 24.0275108753 557 43 557 c 0
 56 557 66 550 74 536 c 1
 116 388 l 1
 133 336 157 290 187 249 c 0
 265 144 346 91 430 91 c 0
 504.610723816 91 553 123.769081819 553 190 c 0xfa
 553 227 539.232356526 258.363427561 507 276 c 0
 486.232356526 287.363427561 474 297 474 310 c 0
 474 321 480.277284969 335.739717764 496 351 c 0
 514.277284969 368.739717764 525 389 525 414 c 0
 525 471.367143927 475.431252773 519 416 519 c 0
 406 519 395.385771106 519.505170131 386 515 c 0
 345.385771106 495.505170131 326 464 326 425 c 0
 326 407 331 386 339 362 c 1
 340.538669175 340.458631549 332.274313279 330 311 330 c 0
 301 330 293 334 287 342 c 0
 274 366 267 392 267 419 c 0xfc
-12 673 m 1
 704 673 l 1
 704 610 l 1
 -12 610 l 1
 -12 673 l 1
EndSplineSet
Validated: 33
Ligature2: "'cjct' Conjunct Forms in Bengali2 lookup 13" u09a4 u09cd u09a4
EndChar

StartChar: u0995_u09cd.haln
Encoding: 65543 -1 23
GlifName: u0995_u09cd.haln
Width: 707
GlyphClass: 3
Flags: W
HStem: -20 20G<399.579 445.273> 231 56<484.639 549.295> 511 61<419 510.875> 610 63<-7 357 419 711>
VStem: 357 62<121 493 569.44 610> 575 54<312.003 452.956>
AnchorPoint: "Anchor-0" 403 683 basechar 0
LayerCount: 2
Fore
SplineSet
418 0 m 1
 583 -121 l 1
 551 -164 l 1
 383 -38 l 1
 418 0 l 1
357 493 m 1
 112 342 l 1
 357 121 l 1
 357 493 l 1
575 384 m 0
 575 467.475747877 498.93023737 513.865291976 423 511 c 1
 419 511 l 1
 419 55 l 2
 419 42 412 35 398 35 c 0
 383 35 369 41 357 51 c 2
 44 328 l 1
 35 333 31 340 31 348 c 0
 31 358 37 366 48 373 c 2
 357 560 l 1
 357 610 l 1
 -7 610 l 1
 -7 673 l 1
 711 673 l 1
 711 610 l 1
 419 610 l 1
 419 572 l 1
 559 556 629 493 629 382 c 0
 629 304.842574026 591.754531164 228.663920901 517 231 c 0
 494.729887892 229.515325859 484 237.128004762 484 258 c 0
 484 273 491 282 504 287 c 1
 548.119732832 281.245252239 575 335.491166808 575 384 c 0
EndSplineSet
Validated: 33
Ligature2: "'haln' Halant Forms in Bengali lookup 12 subtable" u0995 u09cd
EndChar

StartChar: u0996_u09cd.hln
Encoding: 65544 -1 24
GlifName: u0996_u09cd.hln
Width: 610
GlyphClass: 3
Flags: W
HStem: -20 20G<511.081 557.5> 473 58<61.9532 201.749> 610 63<536 613>
VStem: 300 57<427.379 569.354> 474 62<121 610>
AnchorPoint: "Anchor-0" 525 671 basechar 0
LayerCount: 2
Fore
SplineSet
530 0 m 1
 695 -120 l 1
 663 -163 l 1
 495 -37 l 1
 530 0 l 1
235 633 m 0
 235 650.980452074 241.659511975 663 259 663 c 0
 265 663 271 661 278 657 c 0
 333 622 359 568 357 496 c 1
 357 491 l 1
 354 404 306 343 213 308 c 1
 474 121 l 1
 474 617 l 2
 474 654 491 673 527 673 c 2
 613 673 l 1
 613 610 l 1
 536 610 l 1
 536 64 l 2
 536 50.399637577 516.475724644 39 497 39 c 0
 488 39 480 41 474 46 c 2
 133 297 l 1
 127 306 125 315 125 324 c 0
 125 341 132 349 145 349 c 0
 186 354 221 369 252 397 c 0
 284 426 300 461 300 499 c 0
 300 524 293 548 279 572 c 1
 250 506 206 473 144 473 c 0
 108 473 67 485 24 508 c 1
 16 515 12 523 12 533 c 0
 12 552 21 562 39 562 c 0
 42 562 45 561 48 560 c 0
 82 540 114 531 141 531 c 0
 197 531 228 565 235 633 c 0
EndSplineSet
Validated: 33
Ligature2: "'haln' Halant Forms in Bengali lookup 12 subtable" u0996 u09cd
EndChar

StartChar: u0996_u09cd.haln
Encoding: 65545 -1 25
GlifName: u0996_u09cd.haln
Width: 599
GlyphClass: 3
Flags: W
HStem: -20 20G<502.579 548.438> 580 58<167.171 346.982> 610 63<525 604>
VStem: 231 59<249.213 381.688> 463 62<31.7449 471.968 545 610>
AnchorPoint: "Anchor-0" 501 677 basechar 0
LayerCount: 2
Fore
SplineSet
521 0 m 1x98
 687 -121 l 1
 654 -164 l 1
 486 -38 l 1
 521 0 l 1x98
184 160 m 0
 167.275311966 160 150 169.71568898 150 187 c 0
 150 195 155 202 162 209 c 0
 209 236 231 271 231 316 c 0
 231 375.04585526 183.465094337 428 124 428 c 0
 102 428 80 422 59 409 c 0
 50 403 41 401 33 401 c 0
 18 401 10 409 10 424 c 0
 10 428 11 432 13 437 c 0
 42.2550409449 547.51904357 102.27050982 604.096966049 210 633 c 0
 230 637 250 638 268 638 c 0xd8
 342 638 406 607 463 545 c 1
 463 673 l 1
 604 673 l 1
 604 610 l 1
 525 610 l 1xb8
 525 53 l 2
 525 38 516 31 495 31 c 0
 474 31 463 38 463 53 c 2
 463 382 l 2
 463 425 452 461 429 491 c 0
 381 550 323 580 255 580 c 0xd8
 185 580 131 548 92 484 c 1
 154.739108471 490.273910847 204.342395449 471.657604551 237 439 c 0
 272 406 290 365 290 316 c 0
 290 248 258 197 195 162 c 0
 191 161 188 160 184 160 c 0
EndSplineSet
Validated: 33
Ligature2: "'haln' Halant Forms in Bengali lookup 12 subtable" u0997 u09cd
EndChar

StartChar: u0998_u09cd.haln
Encoding: 65546 -1 26
GlifName: u0998_u09cd.haln
Width: 540
GlyphClass: 3
Flags: W
HStem: -18 20G<441.579 487.273> 610 63<-13 43 97.016 402 464 542>
VStem: 26 56<500.955 594.423> 402 62<121 610>
AnchorPoint: "Anchor-0" 277 677 basechar 0
LayerCount: 2
Fore
SplineSet
460 2 m 1
 625 -119 l 1
 593 -162 l 1
 425 -36 l 1
 460 2 l 1
82 548 m 0
 82 508.660935492 118.032642592 477 162 477 c 1
 205 484 l 1
 224 484 234 474 234 455 c 0
 234 448 231 441 226 435 c 2
 124 315 l 1
 402 121 l 1
 402 610 l 1
 125 610 l 1
 96 594 82 573 82 548 c 0
135 420 m 1
 76.2031655408 428.39954778 26 475.188184723 26 543 c 0
 26 565 32 588 43 610 c 1
 -13 610 l 1
 -13 673 l 1
 542 673 l 1
 542 610 l 1
 464 610 l 1
 464 62 l 2
 464 47 451 39 427 39 c 0
 417 39 409 41 402 46 c 2
 62 287 l 1
 53 291 48 298 48 307 c 0
 48 314 51 321 57 328 c 2
 135 420 l 1
EndSplineSet
Validated: 1
Ligature2: "'haln' Halant Forms in Bengali lookup 12 subtable" u0998 u09cd
EndChar

StartChar: u0999_u09cd.haln
Encoding: 65547 -1 27
GlifName: u0999_u09cd.haln
Width: 628
GlyphClass: 3
Flags: W
HStem: -20 20G<412.541 459.5> 38 56<294.712 460.181> 400 20G<473 483> 436 59<298.019 423.14>
VStem: 223 56<342.249 449.588> 452 57<524.644 600.695> 544 57<173.16 314.237>
AnchorPoint: "Anchor-0" 427 723 basechar 0
LayerCount: 2
Fore
SplineSet
432 0 m 1
 597 -120 l 1
 564 -163 l 1
 396 -37 l 1
 432 0 l 1
436 597 m 0
 373.739533727 641.471761623 314.534743279 561.057704164 300 516 c 0
 299 512 298 508 297 504 c 1
 326 498 347 495 362 495 c 0
 404 495 434 515 452 556 c 1
 455 573 450 587 436 597 c 0
509 568 m 0
 509 492.464095361 437.545272593 436 359 436 c 0
 332 436 307 441 285 450 c 0
 281 450 279 435 279 403 c 0
 279 379 287 358 303 339 c 1
 447 409 l 1
 455 416 466 420 480 420 c 0
 486 420 492 419 498 418 c 1
 567 368 601 310 601 244 c 0
 601 189 579 141 535 100 c 0
 491 59 440 38 383 38 c 0
 317 38 253 64 193 117 c 0
 109.360185543 189.730273441 67.1169387107 287.973775802 40 410 c 0
 36 426 30 460 20 511 c 1
 22 528 31 537 46 537 c 0
 57 537 67 531 74 519 c 1
 93 415 117 335 144 278 c 0
 185.01482572 195.97034856 271.852598566 94 381 94 c 0
 461.434651996 94 544 162.504339227 544 243 c 0
 544 288 522 327 478 362 c 1
 298 265 l 1
 248 304 223 347 223 394 c 0
 223 425 225 448 230 465 c 0
 229 467 228 468 227 468 c 0
 144 506 87 561 57 633 c 0
 51.434051721 652.480818976 63.1672272809 665 84 665 c 0
 91 665 98 663 104 659 c 1
 143 593 188 547 241 522 c 1
 250 554 268 586 297 616 c 0
 345.783832463 667.832821992 409.442529644 696.199649424 469 647 c 0
 480 638 491 625 501 610 c 1
 506 597 509 583 509 568 c 0
EndSplineSet
Validated: 33
Ligature2: "'haln' Halant Forms in Bengali lookup 12 subtable" u0989 u09cd
EndChar

StartChar: u099a_u09cd.haln
Encoding: 65548 -1 28
GlifName: u099a_u09cd.haln
Width: 478
GlyphClass: 3
Flags: W
HStem: -21 20G<266.579 312.273> 33 62<129.677 212.039> 610 63<-13 63 125 479>
VStem: 63 62<98.4847 475 537.502 610> 337 57<250.489 381.936>
AnchorPoint: "Anchor-0" 159 681 basechar 0
LayerCount: 2
Fore
SplineSet
285 -1 m 1
 450 -122 l 1
 417 -165 l 1
 250 -39 l 1
 285 -1 l 1
125 475 m 1
 125 145 l 2
 125 112 137 95 160 95 c 0
 170 95 182 99 197 107 c 0
 229 125 259 156 289 202 c 0
 321 252 337 297 337 336 c 0
 337 347 336 357 333 366 c 1
 324 381 291 398 234 415 c 0
 177 432 141 452 125 475 c 1
164 33 m 0
 110.383586624 33 63 77.4420374556 63 133 c 2
 63 610 l 1
 -13 610 l 1
 -13 673 l 1
 479 673 l 1
 479 610 l 1
 125 610 l 1
 125 570 l 1
 144 534 173.703728204 501.034626733 219 483 c 2
 327 440 l 1
 358 426 379 406 387 383 c 0
 392 370 394 355 394 337 c 0
 394 277 371 215 326 152 c 0
 280 89 231 50 178 35 c 0
 174 34 169 33 164 33 c 0
EndSplineSet
Validated: 1
Ligature2: "'haln' Halant Forms in Bengali lookup 12 subtable" u099a u09cd
EndChar

StartChar: u099b_u09cd.haln
Encoding: 65549 -1 29
GlifName: u099b_u09cd.haln
Width: 610
GlyphClass: 3
Flags: W
HStem: -21 20G<440.579 486.273> 97 55<151.379 284.686> 252 49<149.764 234.828> 610 63<-13 79 149 609>
VStem: 87 62<302.324 524 578.47 604> 470 53<315.85 452.385>
AnchorPoint: "Anchor-0" 211 675 basechar 0
LayerCount: 2
Fore
SplineSet
459 -1 m 1
 624 -122 l 1
 592 -165 l 1
 424 -39 l 1
 459 -1 l 1
149 524 m 1
 149 327 l 2
 149 310 157 301 173 301 c 0
 200 301 236 319 279 354 c 0
 331 398 350 433 333 457 c 0
 323 473 298 482 260 488 c 0
 203 497 166 509 149 524 c 1
370 544 m 1
 461.6753109 537.888312607 523 489.253403138 523 392 c 0
 523 338 504 285 466 234 c 0
 427.104836597 182.13978213 391.169351547 156.371747223 321 136 c 1
 399 132 480 110 563 69 c 0
 593 54 620 38 644 21 c 1
 648 12 649 6 649 -1 c 0
 649 -18 638 -26 615 -25 c 1
 611 -25 l 1
 491.603433394 58.0584811174 359.51492021 87.3242539895 166 97 c 1
 156 105 150 116 150 129 c 0
 150 140 155 147 164 152 c 1
 216 158 252 163 270 168 c 0
 305 177 334.874465676 195.511854442 363 216 c 0
 408.619741733 249.231863195 470 322.167427779 470 394 c 0
 470 439 445 468 393 482 c 1
 394 474 395 466 395 458 c 0
 395 403 367 355 313 312 c 0
 264 273 214 252 164 252 c 0
 113 252 87 275 87 320 c 2
 87 604 l 1
 79 610 l 1
 -13 610 l 1
 -13 673 l 1
 609 673 l 1
 609 612 l 1
 149 612 l 1
 149 562.352247166 265.094463126 542 332 542 c 0
 348 542 361 542 370 544 c 1
EndSplineSet
Validated: 33
Ligature2: "'haln' Halant Forms in Bengali lookup 12 subtable" u099b u09cd
EndChar

StartChar: u099c_u09cd.haln
Encoding: 65550 -1 30
GlifName: u099c_u09cd.haln
Width: 849
GlyphClass: 3
Flags: W
HStem: -21 20G<548.579 594.273> -17 21G<754.5 767.5> 80 56<316.572 486.502> 410 20G<534.5 574.5> 610 63<-3 332 548 848>
VStem: 38 54<416.6 544.543> 260 57<386.291 515.584> 570 58<210.656 351.278> 674 57<101.039 337.3>
AnchorPoint: "Anchor-0" 445 675 basechar 0
LayerCount: 2
Fore
SplineSet
567 -1 m 1xbf80
 732 -122 l 1
 700 -165 l 1
 532 -39 l 1
 567 -1 l 1xbf80
439 613 m 1
 386.792940272 587.738519487 317 513.994357583 317 443 c 0
 317 411 331 387 358 371 c 0
 361 372 392 384 452 408 c 0
 489 423 521 430 548 430 c 1
 601 391 628 341 628 279 c 0
 628 207 594 152 527 115 c 0
 484 92 442 80 399 80 c 0
 299 80 211.648736602 142.054193488 128 259 c 0
 108.648736602 286.054193488 83 332 62 403 c 0
 49 445 40.4513714107 481.906485955 38 515 c 0
 36.4513714107 535.906485955 46 546 62 546 c 0
 72 546 82 540 92 529 c 1
 100 432 132 347 187 272 c 0
 254 182 327 136 404 136 c 0
 449 136 490 153 529 188 c 0
 556 213 570 244 570 280 c 0
 570 317 556 350 527 377 c 1
 514 373 484 361 437 341 c 0
 400 325 370 316 347 315 c 1
 289 340 260 382 260 441 c 0
 260 499 284 555 332 610 c 1
 -3 610 l 1
 -3 673 l 1
 415 674 699 674 848 673 c 1
 848 610 l 1
 548 610 l 1
 776 470 l 1
 787 466 792 459 792 447 c 0
 792 442 791 437 788 432 c 0
 750 344 731 272 731 217 c 0
 731 157 750 91 788 19 c 1
 788 -5 778 -17 757 -17 c 0x7f80
 752 -17 746 -16 740 -13 c 1
 696 73 674 149 674 216 c 0
 674 275 692 347 728 432 c 1
 439 613 l 1
EndSplineSet
Validated: 33
Ligature2: "'haln' Halant Forms in Bengali lookup 12 subtable" u099c u09cd
EndChar

StartChar: u099d_u09cd.haln
Encoding: 65551 -1 31
GlifName: u099d_u09cd.haln
Width: 705
GlyphClass: 3
Flags: W
HStem: -22 20G<383.579 429.273> 610 63<-6 347 619 705>
VStem: 347 62<123 272 351 491 560 610> 557 62<238 610>
AnchorPoint: "Anchor-0" 349 679 basechar 0
LayerCount: 2
Fore
SplineSet
402 -2 m 1
 567 -123 l 1
 535 -166 l 1
 367 -40 l 1
 402 -2 l 1
347 491 m 1
 107 342 l 1
 347 123 l 1
 347 491 l 1
557 610 m 2
 557 652 578 673 619 673 c 2
 705 673 l 1
 705 610 l 1
 619 610 l 1
 619 162 l 2
 619 149 608 142 587 142 c 0
 574 142 564 145 557 152 c 1
 409 272 l 1
 409 57 l 2
 409 39 397 31 373 31 c 0
 363 31 354 33 347 39 c 2
 35 326 l 2
 31 329 29 336 29 345 c 0
 29 358 34 368 43 373 c 2
 347 560 l 1
 347 610 l 1
 -6 610 l 1
 -6 673 l 1
 347 673 l 2
 388 673 409 652 409 610 c 2
 409 351 l 1
 557 238 l 1
 557 610 l 2
EndSplineSet
Validated: 1
Ligature2: "'haln' Halant Forms in Bengali lookup 12 subtable" u099d u09cd
EndChar

StartChar: u099e_u09cd.haln
Encoding: 65552 -1 32
GlifName: u099e_u09cd.haln
Width: 924
GlyphClass: 3
Flags: W
HStem: -20 20G<571.579 617.273> 106 58<125.448 368.759> 125 59<195.094 461.783> 133 60<738.235 825.638> 310 59<735.639 804.594> 493 62<720.849 824.294> 608 59<417.09 521.915>
VStem: 17 57<220.003 383.906> 252 62<331.507 516.421> 532 62<123 599.695> 833 67<395.95 483.914> 845 67<201.941 282.299>
AnchorPoint: "Anchor-0" 513 685 basechar 0
LayerCount: 2
Fore
SplineSet
590 0 m 1x8fc0
 755 -121 l 1
 723 -164 l 1
 555 -38 l 1
 590 0 l 1x8fc0
594 60 m 2
 594 48.1324073912 567.487871872 36 548 36 c 0
 540 36 535 38 532 42 c 0
 490 97 438 125 375 125 c 0xafc0
 366 125 326 121 256 112 c 0
 226 108 205 106 195 106 c 0
 177 106 160.407572054 105.93289328 146 111 c 0
 56.7336779761 142.394740102 17 196.693946805 17 312 c 0
 17 330 18 350 20 373 c 1
 29 381 38 385 47 385 c 0
 58 385 68 379 77 369 c 1
 75 334 74 313 74 306 c 0
 74 249 93 208 130 182 c 0
 147 170 169 164 194 164 c 0xcfc0
 209 164 236 167 274 174 c 0
 312 181 342 184 364 184 c 0xafc0
 425 184 481 164 532 123 c 1
 532 536 l 2
 532 584 516 608 483 608 c 0
 466 608 443 600 414 585 c 0
 348 551 314 502 314 438 c 0
 314 409 320 376 333 337 c 1
 331 320 321 311 301 311 c 0
 290 311 282 314 275 321 c 1
 260 355 252 390 252 426 c 0
 252 541.870063941 336.150432522 633.50649341 436 659 c 0
 451 664 465 667 478 667 c 0
 506 667 533 656 559 633 c 0
 583 612 594 581 594 540 c 2
 594 60 l 2
776 555 m 0
 838.114756844 553.7738751 900 503.800081099 900 437 c 0x9fe0
 900 402 883 370 849 342 c 1
 891 315 912 278 912 233 c 0
 912 183 884 150 829 135 c 0
 821 134 812 133 803 133 c 0x9fd0
 719 133 650 195 595 320 c 1
 595 375 l 1
 614 426 633 463 651 485 c 0
 687 529 728.040894024 555.946697001 776 555 c 0
643 348 m 1
 667.753555616 285.388065206 723.44434718 193 799 193 c 0
 804 193 809 194 815 195 c 0
 835 208 845 223 845 241 c 0x9fd0
 845 276.849775226 798.150609416 310 758 310 c 1
 742 319 734 329 734 340 c 0
 734 351 741 361 754 369 c 1
 791.271921126 373.472630535 833 401.54475587 833 444 c 0
 833 477 811 493 768 493 c 0
 743 493 717 475 693 438 c 0
 687 429 670 399 643 348 c 1
EndSplineSet
Validated: 33
Ligature2: "'haln' Halant Forms in Bengali lookup 12 subtable" u099e u09cd
EndChar

StartChar: u099f_u09cd.haln
Encoding: 65553 -1 33
GlifName: u099f_u09cd.haln
Width: 491
GlyphClass: 3
Flags: W
HStem: -22 20G<267.053 313.273> 35 80<155.28 260.084> 610 63<-6 80 142 377.999 438 490> 756 57<5.37013 351.687> 929 20G<-86 -71.5>
VStem: -104 56<861.161 948.362> 80 62<128.761 609> 356 58<231.492 376.957> 378 60<673.327 729.985>
AnchorPoint: "Anchor-0" 165 825 basechar 0
LayerCount: 2
Fore
SplineSet
286 -2 m 1xfe
 451 -123 l 1
 418 -166 l 1
 250 -40 l 1
 286 -2 l 1xfe
142 176 m 2
 142 141.788869303 166.09915403 115 204 115 c 0
 229 115 254 128 279 154 c 0
 331 210 356 264 356 315 c 0
 356 342 350 362 339 375 c 1
 327 386 l 1
 293 412 l 1
 290 416 290 420 290 425 c 0
 290 443.284950751 305.186244514 457 326 457 c 1
 385 416 414 371 414 321 c 0xff
 414 260 390 198 343 135 c 0
 294 69 242 35 187 35 c 0
 162 35 137 47 115 72 c 0
 92 100 81 129 80 160 c 1
 80 609 l 1
 57 610 32 610 8 610 c 2
 -6 610 l 1
 -6 673 l 1
 375 673 l 1
 377 680 378 686 378 692 c 0
 378 735 329 756 229 756 c 1
 143 753 l 1
 49 763 -11 775 -35 789 c 0
 -76 811 -101.459371417 858.015523471 -104 930 c 0
 -104.459371417 943.015523471 -94 949 -78 949 c 0
 -65 949 -55 945 -48 936 c 1
 -45.9507164348 831.486538174 21.8625870504 813 139 813 c 2
 198 813 l 1
 271 812 322 806 355 794 c 0
 410 773 438 733 438 673 c 1xfe80
 490 673 l 1
 490 610 l 1
 142 610 l 1
 142 176 l 2
EndSplineSet
Validated: 33
Ligature2: "'haln' Halant Forms in Bengali lookup 12 subtable" u099f u09cd zwnj 
EndChar

StartChar: u09a0_u09cd.haln
Encoding: 65554 -1 34
GlifName: u09a0_u09cd.haln
Width: 517
GlyphClass: 3
Flags: W
HStem: -23 20G<287.579 333.273> 39 55<143.13 276.757> 610 63<-1 196 314 521> 996 56<138.818 205.671>
VStem: 35 51<155.81 254.367> 74 58<870.55 987.493> 235 44<419.578 550.506> 380 63<207.636 413.469>
AnchorPoint: "Anchor-0" 293 711 basechar 0
LayerCount: 2
Fore
SplineSet
306 -3 m 1xf3
 471 -124 l 1
 438 -167 l 1
 271 -41 l 1
 306 -3 l 1xf3
278 551 m 1
 279 540 279 528 279 517 c 0
 279 394 214 304 86 246 c 1xfb
 86 199.385250871 98.3506783034 162.480486909 121 137 c 0
 144 109 173 94 207 94 c 0
 242 94 276 109 308 140 c 0
 357 187 380 241 380 304 c 0
 380 381 346 464 278 551 c 1
74 950 m 0xf7
 74 1005 109 1040 180 1052 c 1
 198 1047 208 1035 208 1016 c 0
 208 1006 203 999 196 996 c 1
 153 996 132 980 132 949 c 0xf7
 132 927 142.040084081 889.999838306 167 842 c 0
 207.040084081 764.999838306 242 709 264 673 c 1
 521 673 l 1
 521 610 l 1
 314 610 l 1
 400 506 443 402 443 297 c 0
 443 232 422 173 381 121 c 0
 337 66 283 39 219 39 c 0
 195 39 171 44 147 52 c 0
 120 61 95 85 71 125 c 0
 47 164 35 202 35 236 c 0xfb
 35 261 42 279 56 292 c 1
 124 320 172 354 199 394 c 0
 223 429 235 472 235 524 c 0
 235 550 233 579 227 610 c 1
 -1 610 l 1
 -1 673 l 1
 196 673 l 1
 189 688 171 721 139 774 c 0
 96 849 74 907 74 950 c 0xf7
EndSplineSet
Validated: 1
EndChar

StartChar: u09a1_u09cd.haln
Encoding: 65555 -1 35
GlifName: u09a1_u09cd.haln
Width: 735
GlyphClass: 3
Flags: W
HStem: -24 20G<435.579 481.273> 35 59<338.639 505.489> 610 63<-7 289 351 733>
VStem: 29 55<455.468 529.073> 289 62<335.076 610> 600 58<191.974 376.799>
AnchorPoint: "Anchor-1" 367 689 basechar 0
LayerCount: 2
Fore
SplineSet
733 673 m 1
 733 610 l 1
 351 610 l 1
 351 353 l 1
 356 340 364 333 375 333 c 0
 393 333 417 347 446 376 c 0
 472 402 497 433 522 470 c 0
 526 477 533 480 542 480 c 0
 556 480 569 474 580 463 c 0
 632 414 658 358 658 296 c 0
 658 264 654.740887319 227.467700189 638 190 c 0
 591.740887319 86.4677001895 520 36 434 35 c 0
 367 34 303 59 241 109 c 0
 209 134 182 163 161 195 c 0
 110 271 63.3536866025 372.504792494 29 502 c 0
 24.9056034838 517.433706799 41.3395873359 530 59 530 c 0
 69 530 77 526 84 519 c 1
 119 408 154.048920844 330.583111961 179 281 c 0
 221.318031156 196.905053099 314.702037616 94 426 94 c 0
 481 94 526 119 563 168 c 0
 588 201 600 240 600 285 c 0
 600 335 585 377 555 412 c 1
 510 361 481 330 468 319 c 0
 431 288 393.75740554 268.862172698 357 272 c 0
 311.75740554 275.862172698 289 316 289 382 c 2
 289 610 l 1
 -7 610 l 1
 -7 673 l 1
 733 673 l 1
454 -4 m 1
 619 -125 l 1
 587 -167 l 1
 419 -42 l 1
 454 -4 l 1
EndSplineSet
Validated: 33
Ligature2: "'haln' Halant Forms in Bengali lookup 12 subtable" u09a1 u09cd
EndChar

StartChar: u09a2_u09cd.haln
Encoding: 65556 -1 36
GlifName: u09a2_u09cd.haln
Width: 504
GlyphClass: 3
Flags: W
HStem: -21 20G<238.579 284.273> 35 80<170.075 274.084> 610 63<-6 94 156 504>
VStem: 94 62<129.056 609> 371 57<232.755 376.957>
AnchorPoint: "Anchor-0" 229 679 basechar 0
LayerCount: 2
Fore
SplineSet
257 -1 m 1
 422 -122 l 1
 390 -165 l 1
 222 -39 l 1
 257 -1 l 1
156 176 m 2
 156 142.703344521 180.976793431 115 218 115 c 0
 243 115 268 128 293 154 c 0
 345 210 371 264 371 315 c 0
 371 342 365 362 354 375 c 1
 342 386 l 1
 308 412 l 1
 305 416 304 420 304 425 c 0
 304 442.476294481 319.977783093 457 340 457 c 1
 399 416 428 371 428 321 c 0
 428 260 404 198 357 135 c 0
 308 69 256 35 201 35 c 0
 176 35 152 47 130 72 c 0
 107 100 95 129 94 160 c 1
 94 609 l 1
 -6 610 l 1
 -6 673 l 1
 504 673 l 1
 504 610 l 1
 156 610 l 1
 156 176 l 2
EndSplineSet
Validated: 1
Ligature2: "'haln' Halant Forms in Bengali lookup 12 subtable" u09a2 u09cd
EndChar

StartChar: u09a3_u09cd.haln
Encoding: 65557 -1 37
GlifName: u09a3_u09cd.haln
Width: 522
GlyphClass: 3
Flags: W
HStem: -20 20G<400.579 446.273> 283 56<143.805 209.816> 591 55<153.378 309.077> 610 63<448 523>
VStem: 40 55<388.637 531.799> 386 62<44.8503 517.236 588 608.018>
AnchorPoint: "Anchor-0" 431 687 basechar 0
LayerCount: 2
Fore
SplineSet
419 0 m 1xcc
 584 -121 l 1
 552 -164 l 1
 384 -38 l 1
 419 0 l 1xcc
187 283 m 0
 97.4659852261 300.409391762 40 358.362085498 40 461 c 0
 40 577.502395178 124.993645164 646 246 646 c 0xec
 293 646 340 627 386 588 c 1
 386 645 407 673 448 673 c 2
 523 673 l 1
 523 610 l 1
 448 610 l 1xdc
 448 69 l 2
 448 52 438 44 419 44 c 0
 397 44 386 52 386 68 c 2
 386 414 l 2
 386 429 382 455 374 493 c 0
 362.565926625 546.359009085 293.854381914 591 228 591 c 0xec
 188 591 154 577 128 548 c 1
 116 532 l 1
 102 511 95 487 95 461 c 0
 95 399.098036127 139.955507691 341.223870086 200 339 c 1
 208 336 212 330 212 319 c 0
 212 303.425353395 203.772338833 283 187 283 c 0
EndSplineSet
Validated: 1
Ligature2: "'haln' Halant Forms in Bengali lookup 12 subtable" u09a3 u09cd
EndChar

StartChar: u09a4_u09cd.haln
Encoding: 65558 -1 38
GlifName: u09a4_u09cd.haln
Width: 727
GlyphClass: 3
Flags: W
HStem: -21 20G<466.579 512.273> 38 59<340.635 506.068> 489 58<390.636 527.428> 610 63<-6 726>
VStem: 30 54<452.125 548.333> 311 59<355.524 468.521> 592 58<203.934 420.076>
AnchorPoint: "Anchor-0" 363 681 basechar 0
LayerCount: 2
Fore
SplineSet
485 -1 m 1
 650 -122 l 1
 618 -165 l 1
 450 -39 l 1
 485 -1 l 1
454 547 m 0
 578.775454887 549.012507337 650 442.627614353 650 313 c 0
 650 191.400882989 589.5129073 79.1709691 496 48 c 0
 476 41 455 38 434 38 c 0
 420 38 406 39 392 42 c 0
 335 52 288 72 252 101 c 0
 230 119 203 146 172 184 c 0
 94 281 46 394 30 523 c 0
 25.6983791376 537.338736208 41.1150045111 549 59 549 c 0
 72 549 80 544 84 534 c 0
 104 453 120 397 132 366 c 0
 164.194149912 281.681988326 234.299601475 176.674310237 308 133 c 0
 326 123 358 111 405 98 c 0
 413 97 421 97 428 97 c 0
 491 97 537 127 565 188 c 0
 581 222 590 262 592 310 c 0
 595 369 582 415 552 447 c 0
 523 477 487 491 445 489 c 0
 443 489 441 489 439 489 c 0
 393 481 370 456 370 416 c 0
 370 397 375 381 386 366 c 1
 386 346 376 336 355 336 c 0
 348 336 341 338 334 342 c 1
 319 367 311 392 311 417 c 0
 311 490.061446123 378.342213758 547 454 547 c 0
-6 673 m 1
 726 673 l 1
 726 610 l 1
 -6 610 l 1
 -6 673 l 1
EndSplineSet
Validated: 33
Ligature2: "'haln' Halant Forms in Bengali lookup 12 subtable" u09a4 u09cd
EndChar

StartChar: u09a5_u09cd.haln
Encoding: 65559 -1 39
GlifName: u09a5_u09cd.haln
Width: 582
GlyphClass: 3
Flags: W
HStem: -20 20G<481.579 527.273> 595 58<114.877 248.556> 610 63<505 582>
VStem: 27 56<468.611 560.258> 280 56<429.467 563.744> 443 62<117 610>
AnchorPoint: "Anchor-0" 509 679 basechar 0
LayerCount: 2
Fore
SplineSet
500 0 m 1x9c
 665 -121 l 1
 633 -164 l 1
 465 -38 l 1
 500 0 l 1x9c
443 610 m 2xbc
 443 645.603011211 466.176419724 673 505 673 c 2
 582 673 l 1
 582 610 l 1
 505 610 l 1xbc
 505 60 l 2
 505 47 493 40 467 40 c 0
 457 40 449 42 443 46 c 2
 137 274 l 1
 133 283 130 292 130 299 c 0
 130 310 135 318 144 321 c 0
 203.934359134 344.200397084 280 429.232728659 280 504 c 0
 280 547 257.498814092 577.947742918 213 592 c 0
 200.498814092 595.947742918 188 595 178 595 c 0
 118 595 87.9938422807 559.746098976 83 489 c 0
 81.9938422807 474.746098976 71 468 52 468 c 0
 39 468 31 473 27 482 c 1
 21.0637333459 594.789066427 69.3613128594 653 178 653 c 0xdc
 270.663749021 653 336 597.433111538 336 504 c 0
 336 469 327 432 308 394 c 0
 291 361 257 327 208 292 c 1
 443 117 l 1
 443 610 l 2xbc
EndSplineSet
Validated: 33
Ligature2: "'haln' Halant Forms in Bengali lookup 12 subtable" u09a5 u09cd
EndChar

StartChar: u09a6_u09cd.haln
Encoding: 65560 -1 40
GlifName: u09a6_u09cd.haln
Width: 439
GlyphClass: 3
Flags: W
HStem: -20 20G<330.081 376.5> 610 63<-13 33 95 440>
VStem: 33 62<375 610> 255 58<134.204 395.955>
AnchorPoint: "Anchor-0" 189 677 basechar 0
LayerCount: 2
Fore
SplineSet
349 0 m 1
 514 -120 l 1
 482 -163 l 1
 314 -37 l 1
 349 0 l 1
440 673 m 1
 440 610 l 1
 95 610 l 1
 95 375 l 1
 110 394 137 417 175 445 c 0
 239 492 288 514 321 514 c 0
 324 514 327 513 330 513 c 0
 351 511 362 499 361 478 c 1
 329 389 313 316 313 258 c 0
 313 196 329 133 363 69 c 1
 367.19981575 45.2010440831 342.841424537 36.2698219329 313 40 c 1
 275 108 255 178 255 251 c 0
 255 306 267 370 289 443 c 1
 214 414 147 364 88 294 c 1
 80 289 71 287 61 287 c 0
 42 287 33 295 33 310 c 2
 33 610 l 1
 -13 610 l 1
 -13 673 l 1
 440 673 l 1
EndSplineSet
Validated: 33
Ligature2: "'haln' Halant Forms in Bengali lookup 12 subtable" u09a6 u09cd
EndChar

StartChar: u09a7_u09cd.haln
Encoding: 65561 -1 41
GlifName: u09a7_u09cd.haln
Width: 485
GlyphClass: 3
Flags: W
HStem: -18 20G<371.579 417.273> 610 63<88.8144 191.242 402 478>
VStem: 21 58<515.468 597.177> 340 62<121 495 564 610>
AnchorPoint: "Anchor-0" 375 675 basechar 0
LayerCount: 2
Fore
SplineSet
390 2 m 1
 555 -119 l 1
 523 -162 l 1
 355 -36 l 1
 390 2 l 1
340 121 m 1
 340 495 l 1
 95 344 l 1
 340 121 l 1
21 558 m 0
 21 606 44 638 91 657 c 0
 115 666 143 671 175 671 c 1
 187 668 193 659 193 646 c 0
 193 629 187 618 176 612 c 1
 111 612 79 595 79 562 c 0
 79 555 80 546 83 538 c 0
 106 499 141 480 186 480 c 0
 193 480 201 481 208 482 c 1
 340 564 l 1
 340 610 l 2
 340 652 361 673 402 673 c 2
 478 673 l 1
 478 610 l 1
 402 610 l 1
 402 53 l 2
 402 42 389 37 364 37 c 0
 354 37 346 39 340 42 c 1
 30 328 l 2
 26 333 23 339 23 347 c 0
 23 359 28 370 37 380 c 1
 126 432 l 1
 74 455 39 489 22 534 c 0
 21 542 21 550 21 558 c 0
EndSplineSet
Validated: 1
Ligature2: "'haln' Halant Forms in Bengali lookup 12 subtable" u09a7 u09cd
EndChar

StartChar: u09a8_u09cd.haln
Encoding: 65562 -1 42
GlifName: u09a8_u09cd.haln
Width: 519
GlyphClass: 3
Flags: W
HStem: -21 20G<423.579 469.273> 395 58<149.906 319.791> 610 63<-6 388 450 526>
VStem: 40 59<199.899 346.476> 388 62<33.4395 322.94 390 610>
AnchorPoint: "Anchor-0" 249 679 basechar 0
LayerCount: 2
Fore
SplineSet
442 -1 m 1
 607 -122 l 1
 575 -165 l 1
 407 -39 l 1
 442 -1 l 1
230 395 m 0
 154.700592539 395 99 352.085504046 99 276 c 0
 99 209.527901229 125.067854644 187.262679946 171 162 c 0
 176 157 178 152 178 146 c 0
 178 129.857612174 165.199829165 112.114310119 145 115 c 1
 82.7330655649 139.299291487 40 195.827150945 40 277 c 0
 40 384.703610373 124.158877777 453 236 453 c 0
 295 453 345 432 388 390 c 1
 388 610 l 1
 -6 610 l 1
 -6 673 l 1
 526 673 l 1
 526 610 l 1
 450 610 l 1
 450 51 l 2
 450 39 440 33 419 33 c 0
 398 33 388 39 388 51 c 2
 388 263 l 1
 368.894987381 348.972556785 324.352404016 395 230 395 c 0
EndSplineSet
Validated: 33
Ligature2: "'haln' Halant Forms in Bengali lookup 12 subtable" u09a8 u09cd
EndChar

StartChar: u09aa_u09cd.haln
Encoding: 65563 -1 43
GlifName: u09aa_u09cd.haln
Width: 644
GlyphClass: 3
Flags: W
HStem: -18 20G<543.053 589.273> 439 21G<45.4161 57.5> 606 60<189.456 342.509> 610 63<575 650>
VStem: 513 62<35.6394 417.506 502 610>
AnchorPoint: "Anchor-0" 371 701 basechar 0
LayerCount: 2
Fore
SplineSet
562 2 m 1xc8
 727 -119 l 1
 694 -162 l 1
 526 -36 l 1
 562 2 l 1xc8
400 542 m 1
 355 585 311 606 266 606 c 0xe8
 221 606 176 585 132 542 c 1
 254 398 l 1
 400 542 l 1
513 609 m 2
 513 641.770858737 539.062846614 673 575 673 c 2
 650 673 l 1
 650 610 l 1
 575 610 l 1xd8
 575 55 l 2
 575 42 564 35 544 35 c 0
 523 35 513 41 513 54 c 2
 513 328 l 2
 513 359 505 390 489 422 c 0
 482 437 465 463 440 500 c 1
 211 276 l 1
 188.911905812 270.477976453 168 283.398504759 168 306 c 0
 168 310 169 314 170 317 c 1
 210 358 l 1
 99 493 l 1
 68 443 l 1
 63 440 60 439 55 439 c 0
 35.8321974273 439 21.9729930178 452.135034911 18 472 c 1
 65 575 135 638 229 661 c 0
 244 664 258 666 273 666 c 0
 361 666 442 611 513 502 c 1
 513 609 l 2
EndSplineSet
Validated: 33
LCarets2: 1 0
Ligature2: "'haln' Halant Forms in Bengali lookup 12 subtable" u09aa u09cd
EndChar

StartChar: u09ab_u09cd.haln
Encoding: 65564 -1 44
GlifName: u09ab_u09cd.haln
Width: 686
GlyphClass: 3
Flags: W
HStem: -21 20G<402.579 448.273> 233 59<500.282 550.944> 515 55<423 516.651> 610 63<-9 16 96 694>
VStem: 361 62<121 515> 575 59<314.599 461.162>
AnchorPoint: "Anchor-0" 321 685 basechar 0
LayerCount: 2
Fore
SplineSet
421 -1 m 1
 586 -122 l 1
 554 -165 l 1
 386 -39 l 1
 421 -1 l 1
423 62 m 1
 424.553698454 44.9093170094 413.847208236 37 396 37 c 0
 382 37 370 41 361 49 c 2
 57 297 l 1
 53 305 51 312 51 319 c 0
 51 328 55 338 63 347 c 1
 166 443 l 1
 16 610 l 1
 -9 610 l 1
 -9 673 l 1
 694 673 l 1
 694 610 l 1
 96 610 l 1
 227 463 l 1
 236.140404171 441.672390267 232.158492772 428.508483484 221 418 c 2
 118 321 l 1
 361 121 l 1
 361 514 l 2
 361 551 372 570 393 570 c 0
 505 570 578 538 612 474 c 0
 627 446 634 417 634 387 c 0
 634 315.515768511 589.46091742 239.668370768 525 233 c 1
 508 235 499 246 499 267 c 0
 499 280 504 288 515 292 c 1
 551.799508782 287.911165691 575 346.821839488 575 389 c 0
 575 471.784680978 513.246507177 515 423 515 c 1
 423 62 l 1
EndSplineSet
Validated: 33
Ligature2: "'haln' Halant Forms in Bengali lookup 12 subtable" u09ab u09cd
EndChar

StartChar: u09ac_u09cd.haln
Encoding: 65565 -1 45
GlifName: u09ac_u09cd.haln
Width: 478
GlyphClass: 3
Flags: W
HStem: -20 20G<377.081 423.667> 610 63<-6 349 411 487>
VStem: 349 62<128 500 564 610>
AnchorPoint: "Anchor-0" 249 687 basechar 0
LayerCount: 2
Fore
SplineSet
396 0 m 1
 562 -120 l 1
 529 -163 l 1
 361 -37 l 1
 396 0 l 1
349 128 m 1
 349 500 l 1
 104 347 l 1
 349 128 l 1
-6 673 m 1
 487 673 l 1
 487 610 l 1
 411 610 l 1
 411 62 l 1
 407 47 395 39 376 39 c 0
 365 39 356 42 349 49 c 2
 38 332 l 2
 32 337 30 343 30 352 c 0
 30 363 33 371 40 375 c 2
 349 564 l 1
 349 610 l 1
 -6 610 l 1
 -6 673 l 1
EndSplineSet
Validated: 1
LCarets2: 1 0
Ligature2: "'haln' Halant Forms in Bengali lookup 12 subtable" u09ac u09cd
EndChar

StartChar: u09ad_u09cd.haln
Encoding: 65566 -1 46
GlifName: u09ad_u09cd.haln
Width: 780
GlyphClass: 3
Flags: W
HStem: 24 67<364.864 552.112> 288 56<396.112 514.004> 610 63<-6 799>
VStem: 30 52<476.768 582.67> 317 61<361.047 475.25> 667 60<201.522 359.88>
AnchorPoint: "Anchor-0" 377 683 basechar 0
LayerCount: 2
Fore
SplineSet
588 5 m 1
 753 -116 l 1
 721 -159 l 1
 553 -33 l 1
 588 5 l 1
450 288 m 0
 371.525500156 288 317 348.052438296 317 430 c 0
 317 447 319 465 325 482 c 1
 332 489 339 493 348 493 c 0
 361 493 373 485 383 470 c 1
 380 455 378 442 378 429 c 0
 378 372 401 344 449 344 c 0
 456 344 464 345 471 347 c 0
 499 354 523 368 543 390 c 0
 552 400 566 420 586 452 c 0
 591 462 601 468 617 468 c 0
 624 468 630 466 636 461 c 0
 697 405 727 345 727 283 c 0
 727 246 716 210 695 173 c 0
 638 74 560 24 462 24 c 0
 349 24 249 89 160 220 c 0
 118 282 88 339 70 390 c 0
 54 434 41 491 30 562 c 1
 34 576 42 583 57 583 c 0
 65 583 73 581 82 577 c 1
 95 487 124 399 171 313 c 0
 228.040122473 209.614778018 325.801096537 91 457 91 c 0
 527 91 584 119 628 175 c 0
 654 209 667 244 667 283 c 0
 667 322 652 358 622 392 c 1
 573 335 528 301 486 292 c 0
 474 289 462 288 450 288 c 0
-6 673 m 1
 799 673 l 1
 799 610 l 1
 -6 610 l 1
 -6 673 l 1
EndSplineSet
Validated: 1
LCarets2: 1 0
Ligature2: "'haln' Halant Forms in Bengali lookup 12 subtable" u09ad u09cd
EndChar

StartChar: u09ae_u09cd.haln
Encoding: 65567 -1 47
GlifName: u09ae_u09cd.haln
Width: 568
GlyphClass: 3
Flags: W
HStem: -23 20G<464.579 510.273> 67 56<166.491 246.255> 359 59<240 324.611> 610 63<-8 76 145 431 493 569>
VStem: 66 56<167.241 309.835> 431 62<39.6394 246.987 324 610>
AnchorPoint: "Anchor-0" 273 677 basechar 0
LayerCount: 2
Fore
SplineSet
483 -3 m 1
 648 -124 l 1
 616 -167 l 1
 448 -41 l 1
 483 -3 l 1
431 610 m 1
 145 610 l 1
 106 547 l 1
 171.802317362 538.77471033 223.909570789 502.179538753 237 440 c 0
 239 433 240 425 240 418 c 1
 279.518341862 419.580733674 318.551156106 409.972096669 346 395 c 0
 371 381 400 357 431 324 c 1
 431 610 l 1
122 241 m 0
 122 173.600781146 164.622019473 123 234 123 c 1
 243 119 247 111 247 99 c 0
 247 78 240 67 225 67 c 0
 144 74 91.2348905334 116.594250338 70 195 c 0
 65.2348905334 212.594250338 66 228 66 243 c 0
 66 312 104 366 181 407 c 1
 183.99004922 460.820885954 137.808636661 490 77 490 c 0
 71 490 65 490 58 489 c 0
 38 493 28 503 28 522 c 0
 28 526 28 530 29 534 c 1
 76 610 l 1
 -8 610 l 1
 -8 673 l 1
 569 673 l 1
 569 610 l 1
 493 610 l 1
 493 57 l 2
 493 45 484 39 464 39 c 0
 442 39 431 45 431 58 c 2
 431 102 l 2
 431 211.256385495 414.288960684 263.360462697 362 310 c 0
 326.661801308 341.520175856 289 359 246 359 c 0
 191 359 150.177735146 333.691966047 128 283 c 0
 122.177735146 269.691966047 122 255 122 241 c 0
EndSplineSet
Validated: 33
Ligature2: "'haln' Halant Forms in Bengali lookup 12 subtable" u09ae u09cd
EndChar

StartChar: u09af_u09cd.haln
Encoding: 65568 -1 48
GlifName: u09af_u09cd.haln
Width: 502
GlyphClass: 3
Flags: W
HStem: -21 20G<400.579 446.273> 610 63<-1 25 102 363 425 501>
VStem: 363 62<115 610>
AnchorPoint: "Anchor-0" 258 684 basechar 0
LayerCount: 2
Fore
SplineSet
419 -1 m 1
 584 -122 l 1
 552 -165 l 1
 384 -39 l 1
 419 -1 l 1
-1 673 m 1
 501 673 l 1
 501 610 l 1
 425 610 l 1
 425 60 l 2
 425 43 413 34 390 34 c 0
 380 34 370 37 363 42 c 2
 37 278 l 2
 30 284 26 291 26 299 c 0
 26 306 29 314 34 321 c 1
 169 439 l 1
 25 610 l 1
 -1 610 l 1
 -1 673 l 1
102 610 m 1
 232 452 l 1
 238.905863371 435.42592791 238.911403331 420.183552498 228 412 c 2
 97 302 l 1
 363 115 l 1
 363 610 l 1
 102 610 l 1
EndSplineSet
Validated: 33
Ligature2: "'haln' Halant Forms in Bengali lookup 12 subtable" u09af u09cd
EndChar

StartChar: u09b0_u09cd.haln
Encoding: 65569 -1 49
GlifName: u09b0_u09cd.haln
Width: 482
GlyphClass: 3
Flags: W
HStem: -21 20G<383.579 429.273> 49 73<146 225> 610 63<-6 349 411 487>
VStem: 146 79<49 122> 349 62<128 500 564 610>
AnchorPoint: "Anchor-0" 220 688 basechar 0
LayerCount: 2
Fore
SplineSet
402 -1 m 1
 567 -122 l 1
 535 -165 l 1
 367 -39 l 1
 402 -1 l 1
349 128 m 1
 349 500 l 1
 104 347 l 1
 349 128 l 1
-6 673 m 1
 487 673 l 1
 487 610 l 1
 411 610 l 1
 411 62 l 1
 407 47 395 39 376 39 c 0
 365 39 356 42 349 49 c 2
 38 332 l 2
 32 337 30 343 30 352 c 0
 30 363 33 371 40 375 c 2
 349 564 l 1
 349 610 l 1
 -6 610 l 1
 -6 673 l 1
146 122 m 1
 225 122 l 1
 225 49 l 1
 146 49 l 1
 146 122 l 1
EndSplineSet
Validated: 1
Ligature2: "'haln' Halant Forms in Bengali lookup 12 subtable" u09b0 u09cd
Ligature2: "'haln' Halant Forms in Bengali lookup 12 subtable" u09b0 u09cd
EndChar

StartChar: u09b2_u09cd.haln
Encoding: 65570 -1 50
GlifName: u09b2_u09cd.haln
Width: 697
GlyphClass: 2
Flags: W
HStem: -20 20G<592.081 638.5> 185 56<137.374 246.554> 463 58<391.414 489.916> 469 59<132.958 267.201> 610 63<-6 557 619 695>
VStem: 29 59<289.368 424.329> 557 62<32.0613 386.309 452 610>
AnchorPoint: "Anchor-1" 338 680 basechar 0
LayerCount: 2
Fore
SplineSet
611 0 m 1xce
 776 -120 l 1
 744 -163 l 1
 576 -37 l 1
 611 0 l 1xce
200 469 m 0xde
 136.224500547 469 88 421.552917337 88 355 c 0
 88 289.410252874 141.536339815 241 211 241 c 0
 217 241 223 241 229 242 c 1
 242 237 248 229 248 218 c 0
 248 204 242 193 229 186 c 1
 222 185 215 185 208 185 c 0
 157 185 115 201 80 235 c 0
 46 269 29 309 29 355 c 0
 29 386 38 417 56 446 c 0
 90 501 138 528 200 528 c 0xde
 254 528 297 506 331 461 c 1
 365 501 399 521 434 521 c 0
 472 521 513 498 557 452 c 1
 557 610 l 1
 -6 610 l 1
 -6 673 l 1
 695 673 l 1
 695 610 l 1
 619 610 l 1
 619 62 l 2
 619 41 608 31 587 31 c 0
 567 31 557 40 557 60 c 2
 557 351 l 1
 518 426 478 463 438 463 c 0xee
 407 463 380 439 359 390 c 1
 354 384 345 382 332 382 c 0
 319 382 310 385 304 392 c 1
 286 443 251 469 200 469 c 0xde
EndSplineSet
Validated: 1
EndChar

StartChar: u09b6_u09cd.haln
Encoding: 65571 -1 51
GlifName: u09b6_u09cd.haln
Width: 631
GlyphClass: 3
Flags: W
HStem: -23 20G<538.053 584.273> 339 56<4.49512 96.0966> 610 63<-15.4727 113.29 561 637>
VStem: 499 62<40.8581 559.954 609 610>
AnchorPoint: "Anchor-1" 602 684 basechar 0
LayerCount: 2
Fore
SplineSet
557 -3 m 1
 722 -124 l 1
 689 -167 l 1
 521 -41 l 1
 557 -3 l 1
499 513 m 2
 499 571.954271053 411.50774398 612 349 612 c 0
 316 612 289 602 268 581 c 1
 257 569 l 1
 245 553 240 534 241 513 c 0
 244.744732443 428.743520033 305.434364558 406.640549799 394 398 c 1
 399 395 401 390 401 381 c 0
 401 363 396 350 387 342 c 1
 335 347 297 355 274 367 c 0
 247 381 223 407 202 445 c 1
 179 401 153 372 122 357 c 0
 101 348 66 342 16 339 c 1
 8 345 4 354 4 366 c 0
 4 377 7 387 14 395 c 1
 84.4613314526 399.403833216 147.400761702 432.683199148 162 494 c 0
 173.672141021 542.633920919 120.925089504 595.017835832 79 605 c 0
 64 608 38 610 -1 610 c 0
 -11 610 -16 621 -16 643 c 0
 -16 663 -11 673 -1 673 c 0
 52 673 88 670 106 664 c 0
 142 653 174 624 201 577 c 1
 222 610 244 633 265 646 c 0
 284 659 311.81448481 670.222344076 349 673 c 0
 401.506383639 676.922082748 483.19877832 647.374395509 499 609 c 1
 499 639.189518673 528.354742002 673 561 673 c 2
 637 673 l 1
 637 610 l 1
 561 610 l 1
 561 60 l 2
 561 47 552 40 533 40 c 0
 510 40 499 47 499 60 c 2
 499 513 l 2
EndSplineSet
Validated: 33
Ligature2: "'haln' Halant Forms in Bengali lookup 12 subtable" u09b6 u09cd
EndChar

StartChar: u09b7_u09cd.haln
Encoding: 65572 -1 52
GlifName: u09b7_u09cd.haln
Width: 492
GlyphClass: 3
Flags: W
HStem: -21 20G<395.579 441.273> 610 63<-8 18 95 355 417 494>
VStem: 355 62<115 329 392 610>
AnchorPoint: "Anchor-0" 240 692 basechar 0
LayerCount: 2
Fore
SplineSet
414 -1 m 1
 579 -122 l 1
 547 -165 l 1
 379 -39 l 1
 414 -1 l 1
494 610 m 1
 417 610 l 1
 417 60 l 2
 417 43 405 34 382 34 c 0
 372 34 362 37 355 42 c 2
 30 278 l 2
 23 284 19 291 19 299 c 0
 19 306 21 314 26 321 c 1
 162 439 l 1
 18 610 l 1
 -8 610 l 1
 -8 673 l 1
 494 673 l 1
 494 610 l 1
355 392 m 1
 355 610 l 1
 95 610 l 1
 224 453 l 1
 355 392 l 1
355 115 m 1
 355 329 l 1
 203 397 l 1
 89 302 l 1
 355 115 l 1
EndSplineSet
Validated: 1
Ligature2: "'haln' Halant Forms in Bengali lookup 12 subtable" u09b7 u09cd
EndChar

StartChar: u09b8_u09cd.haln
Encoding: 65573 -1 53
GlifName: u09b8_u09cd.haln
Width: 656
GlyphClass: 3
Flags: W
HStem: -21 20G<564.053 610.273> 120 60<118.953 207.003> 393 56<365.998 439.98> 610 63<-6 143 218 524 586 662>
VStem: 524 62<29.8581 258.926 364 610>
LayerCount: 2
Fore
SplineSet
583 -1 m 1
 748 -122 l 1
 715 -165 l 1
 547 -39 l 1
 583 -1 l 1
177 542 m 1
 261.225058929 526.207801451 298.875357593 489.846705699 341 429 c 1
 361 442 380 449 399 449 c 0
 433 449 474 421 524 364 c 1
 524 610 l 1
 218 610 l 1
 177 542 l 1
125 489 m 0
 105.499247721 487.499942132 96 496.336320919 96 515 c 0
 96 522 98 528 102 534 c 2
 143 610 l 1
 -6 610 l 1
 -6 673 l 1
 662 673 l 1
 662 610 l 1
 586 610 l 1
 586 49 l 2
 586 36 577 29 558 29 c 0
 535 29 524 36 524 49 c 2
 524 117 l 2
 524 192 509 258 479 315 c 0
 452 367 425 393 397 393 c 0
 382 393 369.852781566 384.394456351 364 366 c 0
 341.852781566 296.394456351 315 239 280 193 c 0
 242 144 203 120 162 120 c 0
 115 120 72 153 33 220 c 0
 31 225 31 229 31 233 c 0
 31 250 40 258 60 258 c 0
 67 258 75 256 82 252 c 1
 109 204 136 180 164 180 c 0
 206 180 252 243 303 369 c 1
 282 410 262 438 243 454 c 0
 217 476 177 488 125 489 c 0
EndSplineSet
Validated: 33
Ligature2: "'haln' Halant Forms in Bengali lookup 12 subtable" u09b8 u09cd
EndChar

StartChar: u09b9_u09cd.haln
Encoding: 65574 -1 54
GlifName: u09b9_u09cd.haln
Width: 448
GlyphClass: 3
Flags: W
HStem: 536 58<201.172 309.041> 610 63<-6 108 184 455>
VStem: 58 56<402.521 490.559> 353 57<354.894 491.687>
LayerCount: 2
Fore
SplineSet
366 -20 m 1
 531 -140 l 1
 499 -183 l 1
 331 -57 l 1
 366 -20 l 1
58 423 m 1
 58 486.221371646 100.150492707 554.247806746 152 574 c 1
 108 610 l 1
 -6 610 l 1
 -6 673 l 1
 455 673 l 1
 455 610 l 1
 184 610 l 2
 181.11759647 610 211.737477115 599.01669718 217 592 c 1
 224 594 231 594 239 594 c 0
 294 594 336 576 368 539 c 1
 381 521 l 1
 400 491 410 457 410 416 c 0
 410 405 409 393 408 382 c 0
 383 286 297 229 150 211 c 1
 501 -6 l 1
 502 -10 503 -14 503 -18 c 0
 503 -36 493 -45 474 -44 c 1
 471 -44 l 1
 29 227 l 1
 23 235 20 243 20 252 c 0
 20 271 28 280 45 280 c 0
 48 280 52 279 56 278 c 0
 83 274 110 272 134 272 c 0
 245 272 317 310 350 387 c 1
 352 397 353 407 353 418 c 0
 353 460 339 492 310 514 c 1
 294 523 l 1
 275 531 l 2
 263 535 250 536 236 536 c 0
 159 536 118 496 114 416 c 1
 108 407 99 402 86 402 c 0
 72 402 63 409 58 423 c 1
EndSplineSet
Validated: 33
Ligature2: "'haln' Halant Forms in Bengali lookup 12 subtable" u09b9 u09cd
EndChar

StartChar: u09dc_u09cd.haln
Encoding: 65575 -1 55
GlifName: u09dc_u09cd.haln
Width: 736
GlyphClass: 3
Flags: W
HStem: -83 73<422 500> -21 20G<566.579 612.273> 35 59<339.639 506.489> 610 63<-6 290 352 734>
VStem: 30 55<455.468 529.073> 290 62<335.076 610> 422 78<-83 -10> 601 58<191.974 376.799>
LayerCount: 2
Fore
SplineSet
585 -1 m 1x7f
 750 -122 l 1
 718 -165 l 1
 550 -39 l 1
 585 -1 l 1x7f
422 -10 m 1xbf
 500 -10 l 1
 500 -83 l 1
 422 -83 l 1
 422 -10 l 1xbf
734 673 m 1
 734 610 l 1
 352 610 l 1
 352 353 l 1
 357 340 365 333 376 333 c 0
 394 333 418 347 447 376 c 0
 473 402 498 433 523 470 c 0
 527 477 534 480 543 480 c 0
 557 480 570 474 581 463 c 0
 633 414 659 358 659 296 c 0
 659 264 655.740887319 227.467700189 639 190 c 0
 592.740887319 86.4677001895 521 36 435 35 c 0
 368 34 304 59 242 109 c 0
 210 134 183 163 162 195 c 0
 111 271 64.3536866025 372.504792494 30 502 c 0
 25.9056034838 517.433706799 42.3395873359 530 60 530 c 0
 70 530 78 526 85 519 c 1
 120 408 155.048920844 330.583111961 180 281 c 0
 222.318031156 196.905053099 315.702037616 94 427 94 c 0
 482 94 527 119 564 168 c 0
 589 201 601 240 601 285 c 0
 601 335 586 377 556 412 c 1
 511 361 482 330 469 319 c 0
 432 288 394.75740554 268.862172698 358 272 c 0
 312.75740554 275.862172698 290 316 290 382 c 2
 290 610 l 1
 -6 610 l 1
 -6 673 l 1
 734 673 l 1
EndSplineSet
Validated: 33
LCarets2: 1 0
Ligature2: "'haln' Halant Forms in Bengali lookup 12 subtable" u09dc u09cd
EndChar

StartChar: u09dd_u09cd.haln
Encoding: 65576 -1 56
GlifName: u09dd_u09cd.haln
Width: 502
GlyphClass: 3
Flags: W
HStem: -78 73<166 244> 35 80<170.075 274.084> 610 63<-6 94 156 504>
VStem: 94 62<129.056 609> 166 78<-78 -5> 371 57<232.755 376.957>
LayerCount: 2
Fore
SplineSet
340 -2 m 1
 505 -123 l 1
 473 -166 l 1
 305 -40 l 1
 340 -2 l 1
166 -5 m 1
 244 -5 l 1
 244 -78 l 1
 166 -78 l 1
 166 -5 l 1
156 176 m 2
 156 142.703344521 180.976793431 115 218 115 c 0
 243 115 268 128 293 154 c 0
 345 210 371 264 371 315 c 0
 371 342 365 362 354 375 c 1
 342 386 l 1
 308 412 l 1
 305 416 304 420 304 425 c 0
 304 442.476294481 319.977783093 457 340 457 c 1
 399 416 428 371 428 321 c 0
 428 260 404 198 357 135 c 0
 308 69 256 35 201 35 c 0
 176 35 152 47 130 72 c 0
 107 100 95 129 94 160 c 1
 94 609 l 1
 -6 610 l 1
 -6 673 l 1
 504 673 l 1
 504 610 l 1
 156 610 l 1
 156 176 l 2
EndSplineSet
Validated: 1
Ligature2: "'haln' Halant Forms in Bengali lookup 12 subtable" u09dd u09cd
EndChar

StartChar: glyph219
Encoding: 65577 -1 57
GlifName: glyph219
Width: 497
GlyphClass: 2
Flags: W
HStem: -20 20G<393.053 439.273> 59 58<148 211> 610 63<-6 20 97 358 420 496>
VStem: 148 63<59 117> 358 62<115 610>
LayerCount: 2
Fore
SplineSet
412 0 m 1
 577 -121 l 1
 544 -164 l 1
 376 -38 l 1
 412 0 l 1
-6 673 m 1
 496 673 l 1
 496 610 l 1
 420 610 l 1
 420 60 l 2
 420 43 408 34 385 34 c 0
 375 34 365 37 358 42 c 2
 32 278 l 2
 25 284 21 291 21 299 c 0
 21 306 24 314 29 321 c 1
 164 439 l 1
 20 610 l 1
 -6 610 l 1
 -6 673 l 1
97 610 m 1
 227 452 l 1
 233.905863371 435.42592791 233.911403331 420.183552498 223 412 c 2
 92 302 l 1
 358 115 l 1
 358 610 l 1
 97 610 l 1
148 117 m 1
 211 117 l 1
 211 59 l 1
 148 59 l 1
 148 117 l 1
EndSplineSet
Validated: 33
EndChar

StartChar: u099c_u09cd_u099e_u09cd.haln
Encoding: 65578 -1 58
GlifName: u099c_u09cd_u099e_u09cd.haln
Width: 868
GlyphClass: 3
Flags: W
HStem: -20 20G<468.579 514.273> 28 52<303.089 451.015> 227 56<667.706 735.447> 431 20G<691 730.531> 610 63<-6 299 398 866>
VStem: 30 59<412.65 526.123> 209 61<350.441 504.907> 531 66<209.187 291.967> 754 60<131.683 214.801 302.209 381.684>
LayerCount: 2
Fore
SplineSet
487 -0 m 1
 652 -121 l 1
 620 -164 l 1
 452 -38 l 1
 487 -0 l 1
754 173 m 0
 754 205.700904227 727.646394592 227 690 227 c 1
 675 232 667 242 667 255 c 0
 667 269 673.545491738 279.979219905 689 283 c 0
 720.348124015 289.127389332 756 309.45481029 756 346 c 0
 756 373 736 388 697 390 c 1
 663 383 639 371 622 353 c 2
 608 337 l 1
 591 307 l 2
 589 303 586 299 583 293 c 1
 594 271 599 247 597 220 c 0
 597 216 596 213 595 209 c 1
 616 183 634 165 647 155 c 0
 676.260306162 132.241984097 746.592982943 105.336846491 753 163 c 0
 753 166 754 169 754 173 c 0
351 577 m 1
 310.858731814 555.104762808 270 481.986109526 270 419 c 0
 270 381 283 353 309 335 c 1
 435 392 l 1
 398 479 370 540 351 577 c 1
814 170 m 0
 814 120.933412233 782.63332768 69 721 69 c 0
 681 69 641 86 601 120 c 0
 589 130 579 140 570 150 c 1
 543 108 518 79 496 62 c 0
 465.426585762 39.0699393218 431.245374303 28 382 28 c 0
 287 28 204 85 133 199 c 0
 74 295 40 397 30 506 c 1
 36 521 45 528 57 528 c 0
 66 528 77 523 89 515 c 1
 104 408 138 310 191 223 c 0
 249 128 311 80 377 80 c 0
 416 80 454.949554145 96.2112380621 490 134 c 0
 518.949554145 165.211238062 531 202 531 241 c 0
 531 286 512 322 475 349 c 1
 462 345 435 330 394 306 c 0
 360 286 332 276 311 276 c 0
 300 276 289 278 278 283 c 1
 232 322 209 370 209 427 c 0
 209 495.136385534 248.777165841 571.367050647 299 610 c 1
 -6 610 l 1
 -6 673 l 1
 866 673 l 1
 866 610 l 1
 398 610 l 1
 491 405 l 1
 514 394 535 377 553 355 c 1
 575 390 603 416 636 434 c 0
 658 446 680 451 702 451 c 0
 759.061855083 451 815 402.551971997 815 345 c 0
 815 311 800 283 770 259 c 1
 799 236 814 206 814 170 c 0
EndSplineSet
Validated: 33
Ligature2: "'half' Half Forms in Bengali lookup 5 subtable" u099c_u09cd_u099e.akhn u09cd zwj
Ligature2: "'haln' Halant Forms in Bengali lookup 12 subtable" u099c_u09cd_u099e.akhn u09cd
EndChar

StartChar: kassa_u09cd.half
Encoding: 65579 -1 59
GlifName: kassa_u09cd.half
Width: 833
GlyphClass: 3
Flags: W
HStem: -20 20G<521.579 567.273> 610 63<-6 116.52 175 343 398.164 494 551 837>
VStem: 134 59<512.917 591.785> 293 66<282.331 404.487> 337 60<541.367 609.508> 494 57<133 408 494 610> 693 64<260.143 343.868>
LayerCount: 2
Fore
SplineSet
540 0 m 1xe6
 705 -121 l 1
 673 -164 l 1
 505 -38 l 1
 540 0 l 1xe6
411 610 m 1
 402 600 397 590 397 580 c 0xee
 397 553 430 524 494 494 c 1
 494 610 l 1
 411 610 l 1
189 514 m 1
 274.435517111 502.608597719 359 434.550636921 359 343 c 0xf6
 359 319 353 294 341 269 c 1
 494 133 l 1
 494 430 l 1
 390 477 337 526 337 578 c 0
 337 588 339 599 343 610 c 1
 175 610 l 1
 187 591 193 570 193 548 c 0
 193 538 192 527 189 514 c 1
206 155 m 1
 189.47644766 157.542084975 172 170.393441916 172 191 c 0
 172 197 174 202 178 206 c 0
 254 249 293 294 293 342 c 0
 293 400.153067143 240.108692745 456 181 456 c 0
 174 456 167 455 160 453 c 1
 139 420 109 392 68 368 c 1
 44.0747447151 366.592632042 30 374.422165889 30 397 c 0
 30 402 31 406 34 410 c 1
 73.4377734901 429.718886745 134 490.028196152 134 545 c 0
 134 578 113 600 73 610 c 1
 -6 610 l 1
 -6 673 l 1
 837 673 l 1
 837 610 l 1
 551 610 l 1
 551 471 l 1
 609 451 657 427 695 396 c 0
 736 363 757 330 757 297 c 0
 757 254 721 216 649 185 c 0
 634.067036305 180.520110891 618 199.057832403 618 217 c 0
 618 222 619 226 620 230 c 1
 669 251 693 275 693 300 c 0
 693 339 646 375 551 408 c 1
 551 68 l 2
 551 54.0184191216 527.97266586 41 508 41 c 0
 500 41 493 43 489 47 c 2
 300 221 l 1
 275 197 243 175 206 155 c 1
EndSplineSet
Validated: 33
Ligature2: "'haln' Halant Forms in Bengali lookup 12 subtable" u0995_u09cd_u09b7.akhn u09cd
Ligature2: "'half' Half Forms in Bengali lookup 5 subtable" u0995_u09cd_u09b7.akhn u09cd zwj
EndChar

StartChar: u09b0_u09cd.rphf
Encoding: 65580 -1 60
GlifName: u09b0_u09cd.rphf
Width: 5
GlyphClass: 3
Flags: W
HStem: 667 224
VStem: -146 330
AnchorPoint: "Anchor-0" -100 660 mark 0
LayerCount: 2
Fore
SplineSet
149 891 m 0
 164.214667357 891 184 881.860185925 184 865 c 0
 184 860 182 857 176 852 c 2
 -61 667 l 1
 -146 667 l 1
 138 888 l 2
 141 890 144 891 149 891 c 0
EndSplineSet
Validated: 1
Ligature2: "'rphf' Reph Form in Bengali lookup 3 subtable" u09f0 u09cd
Ligature2: "'rphf' Reph Form in Bengali lookup 3 subtable" u09b0 u09cd
EndChar

StartChar: u09af_u09cd.pstf
Encoding: 65581 -1 61
GlifName: u09af_u09cd.pstf
Width: 265
GlyphClass: 3
Flags: W
HStem: -15 51<31.5339 95.6074> 610 63<-6 112 166.961 272>
VStem: 75 57<367.057 576.402> 146 50<83.0889 272.188>
LayerCount: 2
Fore
SplineSet
272 673 m 1
 272 610 l 1
 232 610 l 2
 207 610 184 602 163 585 c 1
 151 574 l 2
 135.551503438 558.551503438 132 523.990502697 132 494 c 0
 132 459 143 401 164 321 c 0
 185 241 196 182 196 147 c 0
 196 65 152 11 65 -15 c 1
 42 -11 31 -3 31 12 c 0
 31 21 36 29 47 36 c 1
 113 53 146 92 146 153 c 0
 146 184 135 239 111 318 c 0
 87 397 75 457 75 496 c 0
 75 542 88 580 112 610 c 1
 -6 610 l 1
 -6 673 l 1
 272 673 l 1
EndSplineSet
Validated: 1
LCarets2: 1 0
Ligature2: "'pstf' Post Base Forms in Bengali lookup 6 subtable" u09cd u09af
EndChar

StartChar: u09b0_u09cd.blwf
Encoding: 65582 -1 62
GlifName: u09b0_u09cd.blwf
Width: 131
VWidth: 1024
GlyphClass: 3
Flags: W
HStem: -345 72<-324 -162.945>
VStem: 53 78<-55.7063 156>
LayerCount: 2
Fore
SplineSet
53 156 m 5
 131 156 l 5
 131 67.3333333333 122.833333333 -9.66666666667 106.5 -75 c 4
 90.1666666667 -140.333333333 66.6666666667 -190 36 -224 c 4
 1.33333333333 -262.666666667 -47.3333333333 -292.5 -110 -313.5 c 4
 -172.666666667 -334.5 -244 -345 -324 -345 c 5
 -324 -273 l 5
 -256.666666667 -273 -196.166666667 -263.666666667 -142.5 -245 c 4
 -88.8333333333 -226.333333333 -47.3333333333 -200 -18 -166 c 4
 4.66666666667 -139.333333333 22.1666666667 -98.3333333333 34.5 -43 c 4
 46.8333333333 12.3333333333 53 78.6666666667 53 156 c 5
EndSplineSet
Validated: 5
LCarets2: 1 0
Ligature2: "'blwf' Below Base Forms in Bengali2 lookup 4 subtable" u09cd u09f0
Ligature2: "'blwf' Below Base Forms in Bengali2 lookup 4 subtable" u09cd u09b0
EndChar

StartChar: u09ac_u09cd.blwf
Encoding: 65583 -1 63
GlifName: u09ac_u09cd.blwf
Width: 5
GlyphClass: 3
Flags: W
HStem: -183 226<-101.999 -41.9688>
VStem: -102 62<-128 -12>
LayerCount: 2
Fore
SplineSet
-102 -128 m 1
 -102 -12 l 1
 -193 -61 l 1
 -102 -128 l 1
-40 -156 m 2
 -40 -170.884288192 -63.7132398626 -183 -85 -183 c 0
 -92 -183 -98 -182 -102 -179 c 2
 -259 -70 l 1
 -265 -63 -268 -59 -268 -56 c 0
 -268 -53 -262 -49 -250 -42 c 2
 -102 40 l 2
 -99 42 -94 43 -88 43 c 0
 -71.9091167759 43 -40 32.1254314743 -40 14 c 2
 -40 -156 l 2
EndSplineSet
Validated: 1
EndChar

StartChar: u0995_u09b0_u09cd.blwf.vatu
Encoding: 65584 -1 64
GlifName: u0995_u09b0_u09cd.blwf.vatu
Width: 856
GlyphClass: 3
Flags: W
HStem: 91 61<122.395 335.268> 109 61<335 407.744> 270 49.3316<626.297 711.003> 440 60.1795<605.436 711.111> 526 59<375.638 468.513> 610 63<-8 858>
VStem: 29 58<191.463 349.255> 233 58<280.867 452.536> 471 62<123 373.438 430 525.048> 727 54<334.4 412.494>
AnchorPoint: "Anchor-1" 493 20 basechar 0
LayerCount: 2
Fore
SplineSet
335 109 m 1x7fc0
 335 109 219.740592207 91 190 91 c 0
 177 91 164 92 151 94 c 0
 70 116 29 177 29 278 c 0
 29 294 29 311 31 330 c 1
 36 343 44 350 57 350 c 0
 73 350 85 343 92 328 c 1
 88 309 87 292 87 275 c 0
 87 193 122 152 193 152 c 0xbfc0
 200 152 233 157 289 165 c 0
 312 169 328 170 336 170 c 0
 392 170 437 154 471 123 c 1
 471 487 l 2
 471 513 461 526 441 526 c 0
 436 526 431 525 426 524 c 0
 336 500 291 451 291 376 c 0
 291 351 297 323 308 294 c 0
 309 291 310 287 310 284 c 0
 310 270 301 263 283 263 c 0
 271 263 261 268 253 276 c 1
 240 310 233 343 233 375 c 0
 233 487.887115718 318.431861145 568.061694449 423 583 c 0
 430 584 438 585 445 585 c 0
 481 585 506 571 521 542 c 1
 528 524 l 1
 531 513 533 502 533 489 c 2
 533 430 l 1
 572 470 l 1
 594.163735325 489.789049397 619.460322458 500.179543369 648.385730673 500.179543369 c 0
 718.308581267 500.179543369 781 451.348990574 781 382 c 0
 781 374 780 365 778 357 c 0
 762.516129032 298.935483871 720.809573361 269.903225806 651.974018999 269.903225806 c 0
 649.67950052 269.903225806 647.355722327 270 645 270 c 2
 641 270 l 1
 631 275 626 283 626 293 c 0
 626 306 632 315 645 320 c 1
 649.730082256 319.556554789 654.241671561 319.331602528 658.544456881 319.331602528 c 0
 697.345062644 319.331602528 727 341.706014989 727 382 c 0
 727 389 727 395 725 401 c 0
 709 427 688 440 664 440 c 0
 634 440 601 421 564 383 c 0
 552 371 541 359 533 347 c 1
 533 51 l 2
 533 43 526 35 512 29 c 0
 504 26 496 25 490 24 c 0
 481 24 475 26 471 31 c 0
 429 83 384 109 335 109 c 1x7fc0
858 610 m 1
 -8 610 l 1
 -8 673 l 1
 858 673 l 1
 858 610 l 1
EndSplineSet
Validated: 1
Substitution2: "'salt' Stylistic Alternatives in Bengali2 lookup 17-1" u0995_u09cd_u09b0.salt
Ligature2: "'vatu' Vattu Variants in Bengali lookup 7 subtable" u0995 u09b0_u09cd.blwf
EndChar

StartChar: u0996_u09b0_u09cd.blwf.vatu
Encoding: 65585 -1 65
GlifName: u0996_u09b0_u09cd.blwf.vatu
Width: 624
GlyphClass: 3
Flags: W
HStem: 33 55<134.158 317.051> 473 58<80.8202 220.1> 610 63<554 632>
VStem: 24 54<146.748 192.312> 319 57<427.379 569.354> 492 62<122 610>
AnchorPoint: "Anchor-1" 531 10 basechar 0
LayerCount: 2
Fore
SplineSet
254 633 m 0
 254 651.914175369 259.629622686 663 278 663 c 0
 284 663 290 661 297 657 c 0
 352 622 378 568 376 496 c 1
 376 491 l 1
 373 404 325 343 232 308 c 1
 491 122 l 1
 491 183 l 1
 492 183 l 1
 492 617 l 2
 492 654 510 673 546 673 c 2
 632 673 l 1
 632 610 l 1
 554 610 l 1
 554 64 l 2
 554 62 554 60 553 58 c 1
 553 41 l 2
 553 26 540 18 513 18 c 0
 503 18 496 19 491 24 c 0
 466 51 435 64 400 64 c 0
 378 64 348 58 310 47 c 0
 277 37 244 33 212 33 c 0
 115 33 53 77 24 167 c 1
 25 185 38 194 61 194 c 0
 67 194 72 193 78 191 c 1
 100 122 144 88 208 88 c 0
 228 88 250 92 275 99 c 0
 323 112 361 120 389 122 c 1
 152 297 l 1
 146 306 143 315 143 324 c 0
 143 341 150 349 163 349 c 0
 204 354 240 369 271 397 c 0
 303 426 319 461 319 499 c 0
 319 524 312 548 298 572 c 1
 269 506 224 473 162 473 c 0
 126 473 86 485 43 508 c 1
 35 515 31 523 31 533 c 0
 31 552 39 562 57 562 c 0
 60 562 64 561 67 560 c 0
 101 540 132 531 159 531 c 0
 215 531 247 565 254 633 c 0
EndSplineSet
Validated: 33
Ligature2: "'vatu' Vattu Variants in Bengali lookup 7 subtable" u0996 u09b0_u09cd.blwf
EndChar

StartChar: u0997_u09b0_u09cd.blwf.vatu
Encoding: 65586 -1 66
GlifName: u0997_u09b0_u09cd.blwf.vatu
Width: 621
GlyphClass: 3
Flags: W
HStem: 0 21G<500 518.5> 16 55<124.88 310.627> 47 58<284.365 462.391> 570 58<190.024 369.982> 600 63<548 626>
VStem: 17 53<129.748 175.517> 254 58<239.213 371.015> 486 62<86 461.968 535 600>
AnchorPoint: "Anchor-1" 511 -3 basechar 0
LayerCount: 2
Fore
SplineSet
207 150 m 0x37
 190.275311966 150 173 159.71568898 173 177 c 0
 173 185 178 192 185 199 c 0
 232 226 254 261 254 306 c 0
 254 366.393797066 207.089839038 418 146 418 c 0
 124 418 103 412 82 399 c 0
 73 393 64 391 56 391 c 0
 41 391 33 399 33 414 c 0
 33 418 34 422 36 427 c 0
 65.5217250241 538.526516758 124.286345493 593.832921962 233 623 c 0
 253 627 273 628 291 628 c 0x37
 365 628 429 597 486 535 c 1
 486 663 l 1
 626 663 l 1
 626 600 l 1
 548 600 l 1
 548 43 l 2
 548 38 547 35 545 32 c 1
 545 23 l 2
 545 8 532 0 505 0 c 0
 495 0 488 2 483 7 c 0
 458 34 428 47 393 47 c 0xaf
 371 47 340 41 302 30 c 0
 269 20 237 16 205 16 c 0
 108 16 46 60 17 150 c 1
 18 168 30 177 53 177 c 0
 59 177 64 176 70 174 c 1
 92 105 136 71 200 71 c 0x47
 220 71 243 75 268 82 c 0
 325 98 368 105 398 105 c 0
 426 105 454 99 483 86 c 1
 483 166 l 1
 486 166 l 1
 486 372 l 2
 486 415 475 451 452 481 c 0
 404 540 346 570 278 570 c 0
 208 570 154 538 115 474 c 1
 228.939544718 485.393954472 312 410.282113186 312 306 c 0
 312 238 281 187 218 152 c 0
 214 151 211 150 207 150 c 0x37
EndSplineSet
Validated: 33
Ligature2: "'vatu' Vattu Variants in Bengali lookup 7 subtable" u0997 u09b0_u09cd.blwf
EndChar

StartChar: u0998_u09b0_u09cd.blwf.vatu
Encoding: 65587 -1 67
GlifName: u0998_u09b0_u09cd.blwf.vatu
Width: 545
GlyphClass: 3
Flags: W
HStem: -9 57<109.781 312.818> 15 56<208.271 370.46> 610 63<-9 46 100.016 405 467 545>
VStem: 29 56<500.736 594.423> 405 62<122 610>
AnchorPoint: "Anchor-1" 454 -16 basechar 0
LayerCount: 2
Fore
SplineSet
85 548 m 0x38
 85 508.08778618 121.621068195 477 166 477 c 1
 208 484 l 1
 227 484 237 474 237 455 c 0
 237 448 234 441 229 435 c 2
 127 315 l 1
 405 122 l 1
 405 284.666666667 405 447.333333333 405 610 c 1
 128 610 l 1
 99 594 85 573 85 548 c 0x38
139 420 m 1
 79.7478550846 428.464592131 29 474.64826657 29 543 c 0
 29 565 35 588 46 610 c 1
 -9 610 l 1
 -9 673 l 1
 545 673 l 1
 545 610 l 1
 467 610 l 1
 467 407.666666667 467 205.333333333 467 3 c 0
 467 -12 453 -19 426 -19 c 0
 415 -19 408 -17 405 -14 c 0
 387 5 363 15 334 15 c 0x78
 319 15 294 10 258 2 c 0
 223 -6 197 -9 177 -9 c 0
 134 -8 102 0 81 16 c 0
 60 32 39 63 18 110 c 1
 16.5352084186 131.971873722 23.4790997435 144 44 144 c 0
 53 144 63 141 72 135 c 1
 85 101 98 78 111 66 c 0
 125 54 143 48 165 48 c 0xb8
 179 48 203 52 238 59 c 0
 285 67 322 71 349 71 c 0x78
 357 71 364 71 371 70 c 1
 65 287 l 1
 56 291 51 298 51 307 c 0
 51 314 55 321 61 328 c 2
 139 420 l 1
EndSplineSet
Validated: 33
Ligature2: "'vatu' Vattu Variants in Bengali lookup 7 subtable" u0998 u09b0_u09cd.blwf
EndChar

StartChar: u0999_u09b0_u09cd.blwf.vatu
Encoding: 65588 -1 68
GlifName: u0999_u09b0_u09cd.blwf.vatu
Width: 624
GlyphClass: 3
Flags: W
HStem: -103 45<111.256 231.041> -47 51<280.675 397.685> -20 20G<57.8813 68.5> 38 56<294.712 405.117> 400 20G<473 483> 436 59<298.019 423.14>
VStem: 223 56<342.249 449.588> 407 51<-89.8398 -56.7084 -14 40> 452 57<524.644 600.695> 544 57<173.196 314.237>
AnchorPoint: "Anchor-1" 430 -92 basechar 0
LayerCount: 2
Fore
SplineSet
436 597 m 0x9ec0
 373.739533727 641.471761623 314.534743279 561.057704164 300 516 c 0
 299 512 298 508 297 504 c 1
 326 498 347 495 362 495 c 0
 404 495 434 515 452 556 c 1
 455 573 450 587 436 597 c 0x9ec0
509 568 m 0
 509 492.464095361 437.545272593 436 359 436 c 0
 332 436 307 441 285 450 c 0
 281 450 279 435 279 403 c 0
 279 379 287 358 303 339 c 1
 447 409 l 1
 455 416 466 420 480 420 c 0
 486 420 492 419 498 418 c 1
 567 368 601 310 601 244 c 0
 601 156.774397733 530.82109658 79.3079112175 458 52 c 1
 458 -68 l 2
 458 -83 446 -91 422 -91 c 0
 414 -91 409 -88 407 -84 c 0
 395 -59 377 -47 355 -47 c 0xdf40
 342 -47 322 -52 295 -63 c 0
 232 -89 189 -103 164 -103 c 0
 123 -103 85 -79 50 -30 c 1
 50 -13.4712439681 50.7625194464 0 65 0 c 0xbf40
 72 0 81 -3 92 -10 c 1
 109 -42 132 -58 159 -58 c 0
 173 -58 192 -52 217 -42 c 2
 285 -15 l 2
 320 -2 343 4 353 4 c 0
 369 4 387 -2 407 -14 c 1
 407 40 l 1xdf40
 399 39 391 38 383 38 c 0
 317 38 253 64 193 117 c 0
 109.360185543 189.730273441 67.1169387107 287.973775802 40 410 c 0
 36 426 30 460 20 511 c 1
 22 528 31 537 46 537 c 0
 57 537 67 531 74 519 c 1
 93 415 117 335 144 278 c 0
 185.01482572 195.97034856 271.852598566 94 381 94 c 0
 461.434651996 94 544 162.504339227 544 243 c 0
 544 288 522 327 478 362 c 1
 298 265 l 1
 248 304 223 347 223 394 c 0
 223 425 225 448 230 465 c 0
 229 467 228 468 227 468 c 0
 144 506 87 561 57 633 c 0
 51.434051721 652.480818976 63.1672272809 665 84 665 c 0
 91 665 98 663 104 659 c 1
 143 593 188 547 241 522 c 1
 250 554 268 586 297 616 c 0
 345.783832463 667.832821992 409.442529644 696.199649424 469 647 c 0
 480 638 491 625 501 610 c 1
 506 597 509 583 509 568 c 0
EndSplineSet
Validated: 33
Ligature2: "'vatu' Vattu Variants in Bengali lookup 7 subtable" u0999 u09b0_u09cd.blwf
EndChar

StartChar: u099a_u09b0_u09cd.blwf.vatu
Encoding: 65589 -1 69
GlifName: u099a_u09b0_u09cd.blwf.vatu
Width: 475
GlyphClass: 3
Flags: W
HStem: -83 45<-31.7441 89.6973> -27 51<140.148 253.846> 33 62<136.822 219.25> 610 63<-5 70 132 486>
VStem: 70 62<98.9625 475 537.531 610> 264 51<6 77> 344 57<250.489 381.936>
AnchorPoint: "Anchor-1" 297 -77 basechar 0
LayerCount: 2
Fore
SplineSet
132 475 m 1
 132 145 l 2
 132 112 144 95 167 95 c 0
 177 95 189 99 204 107 c 0
 236 125 266 156 296 202 c 0
 328 252 344 297 344 336 c 0
 344 347 343 357 340 366 c 1
 331 381 298 398 241 415 c 0
 184 432 148 452 132 475 c 1
-93 -10 m 1
 -93 6.52875603194 -92.2374805536 20 -78 20 c 0
 -71 20 -62 17 -51 10 c 1
 -34 -22 -11 -38 16 -38 c 0
 30 -38 49 -33 74 -23 c 2
 142 5 l 1
 177 18 199 24 209 24 c 0
 225 24 244 18 264 6 c 1
 264 77 l 1
 239 57 213 43 186 35 c 0
 182 34 176 33 171 33 c 0
 118.111795329 33 70 78.6348847956 70 133 c 2
 70 610 l 1
 -5 610 l 1
 -5 673 l 1
 486 673 l 1
 486 610 l 1
 132 610 l 1
 132 570 l 1
 151 534 181.761811671 501.179832693 227 483 c 2
 334 440 l 1
 365 426 386 406 394 383 c 0
 399 370 401 355 401 337 c 0
 401 277 379 215 333 152 c 0
 326 142 319 134 312 125 c 1
 315 126 l 1
 315 -48 l 2
 315 -63 303 -71 279 -71 c 0
 271 -71 266 -69 264 -65 c 0
 252 -40 234 -27 212 -27 c 0
 199 -27 179 -33 152 -44 c 0
 89 -70 46 -83 21 -83 c 0
 -20 -83 -58 -59 -93 -10 c 1
EndSplineSet
Validated: 1
Ligature2: "'vatu' Vattu Variants in Bengali lookup 7 subtable" u099a u09b0_u09cd.blwf
EndChar

StartChar: u099b_u09b0_u09cd.blwf.vatu
Encoding: 65590 -1 70
GlifName: u099b_u09b0_u09cd.blwf.vatu
Width: 617
GlyphClass: 3
Flags: W
HStem: -110 45<118.959 240.422> -54 51<291.182 404.846> 252 49<156.276 241.554> 610 63<-6 85 156 616>
VStem: 94 62<302.324 524 578.599 604> 415 51<-21 50> 477 53<317.734 451.565>
AnchorPoint: "Anchor-1" 448 -103 basechar 0
LayerCount: 2
Fore
SplineSet
156 524 m 1
 156 327 l 2
 156 310 164 301 180 301 c 0
 207 301 243 319 286 354 c 0
 338 398 356 433 339 457 c 0
 329 473 305 482 267 488 c 0
 210 497 173 509 156 524 c 1
376 544 m 1
 467.261941623 537.915870558 530 488.511058979 530 392 c 0
 530 338 511 285 473 234 c 0
 452 206 427 184 402 167 c 0
 383 156 359 145 328 136 c 1
 406 132 487 110 570 69 c 0
 600 54 626 38 650 21 c 1
 654 12 656 6 656 -1 c 0
 656 -18 645 -26 622 -25 c 1
 618 -25 l 1
 572 7 522 31 466 50 c 1
 466 -75 l 2
 466 -90 454 -98 430 -98 c 0
 422 -98 417 -96 415 -92 c 0
 403 -67 385 -54 363 -54 c 0
 350 -54 330 -60 303 -71 c 0
 240 -97 196 -110 171 -110 c 0
 130 -110 93 -86 58 -37 c 1
 58 -20.4712439681 58.7625194464 -7 73 -7 c 0
 80 -7 89 -10 100 -17 c 1
 117 -49 140 -65 167 -65 c 0
 181 -65 200 -60 225 -50 c 2
 292 -22 l 1
 327 -9 350 -3 360 -3 c 0
 376 -3 395 -9 415 -21 c 1
 415 65 l 1
 352 81 270 92 172 97 c 1
 162 105 157 116 157 129 c 0
 157 140 161 147 170 152 c 1
 222 158 258 163 276 168 c 0
 311 177 341.881782036 195.502026869 370 216 c 0
 414.838647583 248.687042776 477 323.875462277 477 394 c 0
 477 439 451 468 399 482 c 1
 400 474 401 466 401 458 c 0
 401 403 374 355 320 312 c 0
 271 273 220 252 170 252 c 0
 119 252 94 275 94 320 c 2
 94 604 l 1
 85 610 l 1
 -6 610 l 1
 -6 673 l 1
 616 673 l 1
 616 612 l 1
 156 612 l 1
 156 562.650745489 271.33019866 542 338 542 c 0
 354 542 367 542 376 544 c 1
EndSplineSet
Validated: 33
Ligature2: "'vatu' Vattu Variants in Bengali lookup 7 subtable" u099b u09b0_u09cd.blwf
EndChar

StartChar: u099c_u09b0_u09cd.blwf.vatu
Encoding: 65591 -1 71
GlifName: u099c_u09b0_u09cd.blwf.vatu
Width: 665
GlyphClass: 3
Flags: W
HStem: 49 56<144.389 359.347> 85 56<327.948 545.25> 162 56<252.315 395.906> 346 57<264.26 333.906> 427 20G<396.5 410> 610 63<-6 264 321.235 407.375 476 672>
VStem: 43 57<454.373 558.187> 189 57<409.065 479> 434 56<253.763 377.572> 537 56<134.103 395.031>
AnchorPoint: "Anchor-1" 600 39 basechar 0
LayerCount: 2
Fore
SplineSet
326 218 m 0x7fc0
 383.95471864 218 434 254.135622463 434 312 c 0
 434 337 425 363 405 388 c 1
 392 386 370 378 339 365 c 0
 311 352 289 346 274 346 c 0
 266 346 258 347 251 350 c 0
 210 375 189 410 189 455 c 0
 189 512 214 563 264 610 c 1
 -6 610 l 1
 -6 673 l 1
 672 673 l 1
 672 610 l 1
 476 610 l 1
 631 507 l 1
 645 502 652 489 652 469 c 0
 652 465 651 462 650 460 c 0
 612 411 593 345 593 262 c 0
 593 202 602 137 622 66 c 1
 618 47 607 38 587 38 c 0
 582 38 577 39 572 41 c 1
 545 70 509 85 466 85 c 0x7fc0
 439 85 399 79 345 67 c 0
 291 55 250 49 222 49 c 0
 127 49 63 97 31 192 c 1
 34 212 43 221 58 221 c 0
 66 221 76 217 86 210 c 1
 111 140 154 105 215 105 c 0xbfc0
 244 105 285 111 341 123 c 0
 397 135 439 141 468 141 c 0
 496 141 522 138 546 131 c 1
 540 200 537 247 537 274 c 0
 537 346 553 411 585 471 c 1
 389 602 l 2
 383 605 377 607 370 607 c 0
 347 607 322 593 296 566 c 0
 270 539 254 510 248 479 c 1
 246 461 l 1
 246 438 255 419 273 404 c 0
 276 403 278 403 281 403 c 0
 289 403 307 410 334 425 c 0
 361 440 386 447 407 447 c 0
 413 447 419 446 426 445 c 1
 469 419 490 377 490 320 c 0
 490 241.576671308 441.980454147 174.287800535 370 165 c 0
 357 163 344 162 332 162 c 0
 179 162 83 289 43 544 c 1
 54 555 65 560 76 560 c 0
 84 560 92 558 100 552 c 1
 117 437 149 351 195 292 c 0
 234 243 277 218 326 218 c 0x7fc0
EndSplineSet
Validated: 1
Ligature2: "'vatu' Vattu Variants in Bengali lookup 7 subtable" u099c u09b0_u09cd.blwf
EndChar

StartChar: u099d_u09b0_u09cd.blwf.vatu
Encoding: 65592 -1 72
GlifName: u099d_u09b0_u09cd.blwf.vatu
Width: 694
GlyphClass: 3
Flags: W
HStem: 28 55<-10.3417 171.592> 60 58<151.721 260.889> 610 63<-6 347 619 705>
VStem: -120 53<142.73 187.656> 347 62<124 272 351 491 560 610> 557 62<238 610>
AnchorPoint: "Anchor-1" 383 7 basechar 0
LayerCount: 2
Fore
SplineSet
346 124 m 1x3c
 346 126 346 137 345 158 c 0
 345 166 346 173 347 178 c 1
 347 491 l 1
 106 342 l 1
 346 124 l 1x3c
261 118 m 1x7c
 35 326 l 2
 31 329 28 336 28 345 c 0
 28 358 33 368 42 373 c 2
 347 560 l 1
 347 610 l 1
 -6 610 l 1
 -6 673 l 1
 347 673 l 2
 388 673 409 652 409 610 c 2
 409 351 l 1
 557 238 l 1
 557 610 l 2
 557 652 578 673 619 673 c 2
 705 673 l 1
 705 610 l 1
 619 610 l 1
 619 162 l 2
 619 149 607 142 586 142 c 0
 573 142 564 145 557 152 c 1
 409 272 l 1
 409 57 l 2
 409 55 408 53 408 51 c 2
 408 36 l 2
 408 21 395 13 368 13 c 0
 358 13 351 15 346 20 c 0
 321 47 291 60 256 60 c 0x7c
 234 60 203 53 165 42 c 0
 132 32 100 28 68 28 c 0
 -29 28 -91 73 -120 163 c 1
 -119 181 -107 189 -84 189 c 0
 -78 189 -73 189 -67 187 c 1
 -45 118 -1 83 63 83 c 0xbc
 83 83 106 87 131 94 c 0
 188 110 231 118 261 118 c 1x7c
EndSplineSet
Validated: 1
Ligature2: "'vatu' Vattu Variants in Bengali lookup 7 subtable" u099d u09b0_u09cd.blwf
EndChar

StartChar: u099e_u09b0_u09cd.blwf.vatu
Encoding: 65593 -1 73
GlifName: u099e_u09b0_u09cd.blwf.vatu
Width: 903
GlyphClass: 3
Flags: W
HStem: -110 45<249.256 371.039> -54 51<422.174 534.964> 106 58<127.004 370.26> 125 59<197.094 463.533> 133 60<740.235 827.638> 310 59<737.639 806.616> 493 62<722.849 826.294> 608 59<419.09 523.688>
VStem: 19 57<220.125 383.906> 254 62<331.507 516.421> 534 62<123 599.695> 545 52<-21 54.3958> 834 68<395.815 483.914> 847 67<201.941 282.104>
AnchorPoint: "Anchor-1" 564 -101 basechar 0
LayerCount: 2
Fore
SplineSet
778 555 m 0xcfd4
 840.114756844 553.7738751 902 503.800081099 902 437 c 0xcfd8
 902 402 885 370 851 342 c 1
 893 315 914 278 914 233 c 0
 914 183 886 150 831 135 c 0
 823 134 814 133 805 133 c 0
 721 133 652 195 597 320 c 1
 597 375 l 1
 616 426 635 463 653 485 c 0
 689 529 730.040894024 555.946697001 778 555 c 0xcfd4
645 348 m 1
 669.753555616 285.388065206 725.44434718 193 801 193 c 0
 806 193 811 194 817 195 c 0
 837 208 847 223 847 241 c 0xcfc4
 847 275.929123358 799.437096329 310 760 310 c 1
 744 319 736 329 736 340 c 0
 736 351 743 361 756 369 c 1
 793.655949627 373.518713955 834 400.841705362 834 444 c 0
 834 477 813 493 770 493 c 0
 745 493 719 475 695 438 c 0
 689 429 672 399 645 348 c 1
188 -37 m 1
 188 -19.6992094564 188.759827681 -7 204 -7 c 0
 211 -7 219 -10 230 -17 c 1
 247 -49 270 -65 297 -65 c 0
 311 -65 330 -60 355 -50 c 2
 423 -22 l 1
 458 -9 481 -3 491 -3 c 0
 507 -3 525 -9 545 -21 c 1
 545 37 l 1xd7d0
 540 38 536 39 534 42 c 0
 492 97 439 125 376 125 c 0xd7e0
 367 125 328 121 258 112 c 0
 228 108 207 106 197 106 c 0
 179 106 161.408011452 105.934426433 147 111 c 0
 58.2052093192 142.21850271 19 197.326906704 19 312 c 0
 19 330 19 350 21 373 c 1
 30 381 40 385 49 385 c 0
 60 385 70 379 79 369 c 1
 77 334 76 313 76 306 c 0
 76 249 95 208 132 182 c 0
 149 170 171 164 196 164 c 0xe7e0
 211 164 238 167 276 174 c 0
 314 181 344 184 366 184 c 0
 427 184 483 164 534 123 c 1
 534 536 l 2
 534 584 518 608 485 608 c 0
 468 608 445 600 416 585 c 0
 350 551 316 502 316 438 c 0
 316 409 322 376 335 337 c 1
 333 320 323 311 303 311 c 0
 292 311 284 314 277 321 c 1
 262 355 254 390 254 426 c 0
 254 541.870063941 338.150432522 633.50649341 438 659 c 0
 453 664 466 667 479 667 c 0
 507 667 535 656 561 633 c 0
 585 612 596 581 596 540 c 2
 596 99 l 1xd7e0
 597 99 l 1
 597 -75 l 2
 597 -90 585 -98 561 -98 c 0
 553 -98 547 -96 545 -92 c 0xd7d0
 533 -67 516 -54 494 -54 c 0
 481 -54 461 -60 434 -71 c 0
 371 -97 327 -110 302 -110 c 0
 261 -110 223 -86 188 -37 c 1
EndSplineSet
Validated: 33
Ligature2: "'vatu' Vattu Variants in Bengali lookup 7 subtable" u099e u09b0_u09cd.blwf
EndChar

StartChar: u099f_u09b0_u09cd.blwf.vatu
Encoding: 65594 -1 74
GlifName: u099f_u09b0_u09cd.blwf.vatu
Width: 493
GlyphClass: 3
Flags: W
HStem: -88 45<-13.7441 108.039> -32 51<159.174 271.964> 35 80<155.075 258.906> 610 63<-6 79 141 377.999 437 489> 756 57<4.37013 348.209> 929 20G<-86 -71.5>
VStem: -104 55<861.161 948.497> 79 62<129.056 609> 282 52<1 71> 356 57<232.755 376.957> 378 59<673.327 730.607>
AnchorPoint: "Anchor-1" 300 -79 basechar 0
LayerCount: 2
Fore
SplineSet
141 176 m 2xffa0
 141 142.703344521 165.976793431 115 203 115 c 0
 228 115 253 128 278 154 c 0
 330 210 356 264 356 315 c 0
 356 342 350 362 339 375 c 1
 327 386 l 1
 293 412 l 1
 290 416 289 420 289 425 c 0
 289 442.476294481 304.977783093 457 325 457 c 1
 384 416 413 371 413 321 c 0xffc0
 413 260 389 198 342 135 c 2
 331 120 l 1
 334 121 l 1
 334 -53 l 2
 334 -68 322 -76 298 -76 c 0
 290 -76 284 -74 282 -70 c 0
 270 -45 253 -32 231 -32 c 0
 218 -32 198 -38 171 -49 c 0
 108 -75 64 -88 39 -88 c 0
 -2 -88 -40 -64 -75 -15 c 1
 -75 1.25025190999 -72.9176846526 15 -59 15 c 0
 -52 15 -44 12 -33 5 c 1
 -16 -27 7 -43 34 -43 c 0
 48 -43 67 -38 92 -28 c 2
 160 -0 l 1
 195 13 218 19 228 19 c 0
 244 19 262 13 282 1 c 1
 282 71 l 1
 251 47 219 35 186 35 c 0
 161 35 137 47 115 72 c 0
 92 100 80 129 79 160 c 1
 79 609 l 1
 56 610 31 610 7 610 c 2
 -6 610 l 1
 -6 673 l 1
 375 673 l 1
 377 680 378 686 378 692 c 0
 378 735 328 756 228 756 c 1
 142 753 l 1
 48 763 -12 775 -36 789 c 0
 -77 811 -101.459371417 858.015523471 -104 930 c 0
 -104.459371417 943.015523471 -94 949 -78 949 c 0
 -65 949 -56 945 -49 936 c 1
 -46.9507164348 831.486538174 20.8625870504 813 138 813 c 2
 197 813 l 1
 336.725064798 811.085958016 437 793.783609951 437 673 c 1
 489 673 l 1
 489 610 l 1
 141 610 l 1
 141 176 l 2xffa0
EndSplineSet
Validated: 33
Ligature2: "'vatu' Vattu Variants in Bengali lookup 7 subtable" u099f u09b0_u09cd.blwf
EndChar

StartChar: u09a0_u09b0_u09cd.blwf.vatu
Encoding: 65595 -1 75
GlifName: u09a0_u09b0_u09cd.blwf.vatu
Width: 516
GlyphClass: 3
Flags: W
HStem: -85 44<32.2559 152.372> -30 51<202.697 318.755> 39 55<146.272 280.049> 610 63<-7 191 309 515> 996 56<133.818 199.864>
VStem: 30 60<154.016 254.367> 69 58<870.55 987.493> 230 52<419.578 550.506> 328 52<3 75> 384 54<208.306 411.022>
AnchorPoint: "Anchor-1" 354 -81 basechar 0
LayerCount: 2
Fore
SplineSet
281 551 m 1xfdc0
 282 540 282 528 282 517 c 0
 282 394 218 304 90 246 c 1
 90 198.759754542 101.146793466 162.709857351 124 137 c 0
 147 109 176 94 210 94 c 0
 245 94 279 109 311 140 c 0
 360 187 384 241 384 304 c 0
 384 381 349 464 281 551 c 1xfdc0
-29 -13 m 1
 -29 2.95085603855 -26.3945112266 18 -13 18 c 0
 -6 18 2 14 13 7 c 1
 30 -25 53 -41 80 -41 c 0
 94 -41 113 -35 138 -25 c 2
 206 2 l 2
 241 15 264 21 274 21 c 0
 290 21 308 15 328 3 c 1
 328 75 l 1
 294 51 257 39 214 39 c 0
 190 39 166 44 142 52 c 0
 115 61 90 85 66 125 c 0
 42 164 30 202 30 236 c 0xfdc0
 30 261 37 279 51 292 c 1
 119 320 167 354 194 394 c 0
 218 429 230 472 230 524 c 0
 230 550 227 579 221 610 c 1
 -7 610 l 1
 -7 673 l 1
 191 673 l 1
 184 688 166 721 134 774 c 0
 91 849 69 907 69 950 c 0
 69 1005 104 1040 175 1052 c 1
 193 1047 202 1035 202 1016 c 0
 202 1006 198 999 191 996 c 1
 148 996 127 980 127 949 c 0xfbc0
 127 927 137.040084081 889.999838306 162 842 c 0
 202.040084081 764.999838306 237 709 259 673 c 1
 515 673 l 1
 515 610 l 1
 309 610 l 1
 395 506 438 402 438 297 c 0
 438 233 418 175 377 123 c 1
 380 124 l 1
 380 -51 l 2
 380 -66 368 -74 344 -74 c 0
 336 -74 330 -71 328 -67 c 0
 316 -42 299 -30 277 -30 c 0
 264 -30 244 -35 217 -46 c 0
 154 -72 110 -85 85 -85 c 0
 44 -85 6 -62 -29 -13 c 1
EndSplineSet
Validated: 1
Ligature2: "'vatu' Vattu Variants in Bengali lookup 7 subtable" u09a0 u09b0_u09cd.blwf
EndChar

StartChar: u09a1_u09b0_u09cd.blwf.vatu
Encoding: 65596 -1 76
GlifName: u09a1_u09b0_u09cd.blwf.vatu
Width: 733
GlyphClass: 3
Flags: W
HStem: -112 45<112.874 235.697> -57 52<283.675 400.653> 36 58<340.074 410 461 506.489> 610 63<-6 290 352 734>
VStem: 30 55<455.468 529.073> 290 62<335.076 610> 410 51<-99.8398 -66.7084 -23 38.725> 601 58<191.974 376.799>
AnchorPoint: "Anchor-1" 440 -104 basechar 0
LayerCount: 2
Fore
SplineSet
53 -40 m 1
 53 -23.7477510203 54.2848426009 -9 68 -9 c 0
 75 -9 84 -13 95 -20 c 1
 112 -52 135 -67 162 -67 c 0
 176 -67 195 -62 220 -52 c 2
 288 -24 l 1
 323 -11 345 -5 355 -5 c 0
 371 -5 390 -11 410 -23 c 1
 410 36 l 1
 347 42 286 69 229 119 c 0
 203 142 181 168 162 195 c 0
 111 271 64.3536866025 372.504792494 30 502 c 0
 25.9056034838 517.433706799 42.3395873359 530 60 530 c 0
 70 530 78 526 85 519 c 1
 120 408 155.048920844 330.583111961 180 281 c 0
 222.318031156 196.905053099 315.702037616 94 427 94 c 0
 482 94 527 119 564 168 c 0
 589 201 601 240 601 285 c 0
 601 335 586 377 556 412 c 1
 511 361 482 330 469 319 c 0
 432 288 394.75740554 268.862172698 358 272 c 0
 312.75740554 275.862172698 290 316 290 382 c 2
 290 610 l 1
 -6 610 l 1
 -6 673 l 1
 734 673 l 1
 734 610 l 1
 352 610 l 1
 352 353 l 1
 357 340 365 333 376 333 c 0
 394 333 418 347 447 376 c 0
 473 402 498 433 523 470 c 0
 527 477 534 480 543 480 c 0
 557 480 570 474 581 463 c 0
 633 414 659 358 659 296 c 0
 659 264 655.717306594 227.469825124 639 190 c 0
 597.717306594 97.4698251243 535 48 461 37 c 1
 461 -78 l 2
 461 -93 449 -101 425 -101 c 0
 417 -101 412 -98 410 -94 c 0
 398 -69 380 -57 358 -57 c 0
 345 -57 325 -62 298 -73 c 0
 235 -99 192 -112 167 -112 c 0
 126 -112 88 -89 53 -40 c 1
EndSplineSet
Validated: 33
Ligature2: "'vatu' Vattu Variants in Bengali lookup 7 subtable" u09a1 u09b0_u09cd.blwf
EndChar

StartChar: u09a2_u09b0_u09cd.blwf.vatu
Encoding: 65597 -1 77
GlifName: u09a2_u09b0_u09cd.blwf.vatu
Width: 504
GlyphClass: 3
Flags: W
HStem: -78 45<1.56089 124.039> -22 51<175.174 287.964> 35 80<170.883 274.906> 610 63<-5 95 157 505>
VStem: 95 62<129.056 609> 298 52<11 71> 372 57<232.755 378.119>
AnchorPoint: "Anchor-1" 328 -74 basechar 0
LayerCount: 2
Fore
SplineSet
157 176 m 2
 157 142.703344521 181.976793431 115 219 115 c 0
 244 115 269 128 294 154 c 0
 346 210 372 264 372 315 c 0
 372 342 365.643116957 362.600156579 354 375 c 0
 340.784281173 389.074654128 324.106155404 399.77282207 309 412 c 1
 306 416 305 420 305 425 c 0
 305 443.284950751 320.186244514 457 341 457 c 1
 400 416 429 371 429 321 c 0
 429 260 405 198 358 135 c 2
 350 124 l 1
 350 -43 l 2
 350 -58 337 -66 313 -66 c 0
 305 -66 300 -64 298 -60 c 0
 286 -35 269 -22 247 -22 c 0
 234 -22 214 -28 187 -39 c 0
 124 -65 80 -78 55 -78 c 0
 15 -78 -24 -54 -59 -5 c 1
 -59 11.7884570221 -57.420078876 25 -43 25 c 0
 -36 25 -28 22 -17 15 c 1
 0 -17 23 -33 50 -33 c 0
 64 -33 83 -28 108 -18 c 2
 176 10 l 1
 211 23 234 29 244 29 c 0
 260 29 278 23 298 11 c 1
 298 71 l 1
 267 47 235 35 202 35 c 0
 177 35 152 47 130 72 c 0
 107 100 96 129 95 160 c 1
 95 609 l 1
 -5 610 l 1
 -5 673 l 1
 505 673 l 1
 505 610 l 1
 157 610 l 1
 157 176 l 2
EndSplineSet
Validated: 1
Ligature2: "'vatu' Vattu Variants in Bengali lookup 7 subtable" u09a2 u09b0_u09cd.blwf
EndChar

StartChar: u09a3_u09b0_u09cd.blwf.vatu
Encoding: 65598 -1 78
GlifName: u09a3_u09b0_u09cd.blwf.vatu
Width: 510
GlyphClass: 3
Flags: W
HStem: 43 63<56.9372 191.721> 94 59<211.74 348.426> 283 56<128.605 195.864> 591 55<138.772 295.273> 610 63<434 509>
VStem: 25 56<389.058 531.799> 372 62<124 517.816 588 608.018>
AnchorPoint: "Anchor-1" 402 42 basechar 0
LayerCount: 2
Fore
SplineSet
25 461 m 0x76
 25 577.502395178 109.993645164 646 231 646 c 0x76
 278 646 326 627 372 588 c 1
 372 645 393 673 434 673 c 2
 509 673 l 1
 509 610 l 1
 434 610 l 1
 434 69 l 2
 434 52 424 44 405 44 c 0
 389 44 379 49 374 57 c 1
 372 55 370 55 368 55 c 0
 367 55 367 55 366 55 c 0
 343 81 319 94 297 94 c 0x6e
 283 94 249.103109074 87.20355475 198 67 c 0
 163.103109074 53.20355475 135 43 110 43 c 0
 57 43 10 80 -29 155 c 0
 -31 160 -32 164 -32 169 c 0
 -32 183 -23 190 -6 190 c 0
 0 190 7 189 14 186 c 1
 42 133 72 106 106 106 c 0xa6
 119 106 139 110 163 118 c 2
 237 142 l 1
 262 149 283 153 301 153 c 0
 327 153 351 144 372 124 c 1
 372 414 l 2
 372 429 367 455 359 493 c 0
 353 521 336 544 306 563 c 0
 278 581 246 591 213 591 c 0
 173 591 140 577 114 548 c 1
 102 532 l 1
 88 511 81 487 81 461 c 0
 81 399.098036127 125.955507691 341.223870086 186 339 c 1
 194 336 198 330 198 319 c 0
 198 302.716357278 189.565767574 283 172 283 c 0
 100 297 55 336 35 398 c 0
 28 419 25 440 25 461 c 0x76
EndSplineSet
Validated: 1
Ligature2: "'vatu' Vattu Variants in Bengali lookup 7 subtable" u09a3 u09b0_u09cd.blwf
EndChar

StartChar: u09a4_u09b0_u09cd.blwf.vatu
Encoding: 65599 -1 79
GlifName: u09a4_u09b0_u09cd.blwf.vatu
Width: 605
GlyphClass: 3
Flags: W
HStem: 91 61<119.265 331.267> 109 61<331 403.744> 526 59<369.991 465.109> 610 63<-12 604>
VStem: 24 59<188.786 349.125> 229 58<280.867 452.789> 467 62<123 525.048>
AnchorPoint: "Anchor-1" 498 19 basechar 0
LayerCount: 2
Fore
SplineSet
331 109 m 1x7e
 331 109 215.740592207 91 186 91 c 0
 173 91 159 92 146 94 c 0
 65 116 24 177 24 278 c 0
 24 294 25 311 27 330 c 1
 32 343 40 350 53 350 c 0
 69 350 81 343 88 328 c 1
 84 309 83 292 83 275 c 0
 83 193 117 152 188 152 c 0xbe
 195 152 228 157 284 165 c 0
 307 169 324 170 332 170 c 0
 388 170 433 154 467 123 c 1
 467 487 l 2
 467 513 457 526 437 526 c 0
 432 526 427 525 422 524 c 0
 332 500 287 451 287 376 c 0
 287 351 293 323 304 294 c 0
 305 291 306 287 306 284 c 0
 306 270 297 263 279 263 c 0
 267 263 257 268 249 276 c 1
 236 310 229 343 229 375 c 0
 229 436 250 486 293 525 c 0
 327 556 369 576 418 583 c 0
 425 584 433 585 440 585 c 0
 476 585 502 571 517 542 c 1
 524 524 l 1
 527 513 529 502 529 489 c 2
 529 51 l 2
 529 36.5262253352 503.682620195 26.9471033659 486 24 c 0
 477 24 471 26 467 31 c 0
 425 83 380 109 331 109 c 1x7e
-12 673 m 1
 604 673 l 1
 604 610 l 1
 -12 610 l 1
 -12 673 l 1
EndSplineSet
Validated: 1
Substitution2: "'salt' Stylistic Alternatives in Bengali2 lookup 17-1" u09a4_u09b0_u09cd.vatu.salt
Ligature2: "'vatu' Vattu Variants in Bengali lookup 7 subtable" u09a4 u09b0_u09cd.blwf
EndChar

StartChar: u09a5_u09b0_u09cd.blwf.vatu
Encoding: 65600 -1 80
GlifName: u09a5_u09b0_u09cd.blwf.vatu
Width: 589
GlyphClass: 3
Flags: W
HStem: -26 57<154.962 357.186> -2 56<252.486 441.225> 595 58<124.877 258.556> 610 63<515 591>
VStem: 37 56<468.611 560.258> 290 56<429.318 563.744> 453 62<46 49 117 610>
AnchorPoint: "Anchor-1" 486 -41 basechar 0
LayerCount: 2
Fore
SplineSet
453 610 m 2x1e
 453 646.494646393 475.380922446 673 515 673 c 2
 591 673 l 1
 591 610 l 1
 515 610 l 1
 515 60 l 2
 515 56 514 52 511 49 c 1
 511 -14 l 2
 511 -29 497 -36 470 -36 c 0
 459 -36 452 -34 449 -31 c 0
 431 -12 408 -2 379 -2 c 0x5e
 364 -2 338 -7 303 -15 c 0
 268 -23 241 -26 221 -26 c 0
 178 -25 146 -17 125 -1 c 0
 104 15 83 46 62 93 c 1
 60.4668428205 115.997357693 67.0988122131 126 89 126 c 0
 98 126 107 124 116 118 c 1
 129 84 143 61 156 49 c 0
 170 37 188 31 209 31 c 0x8e
 223 31 247 35 282 42 c 0
 329 50 366 54 393 54 c 0
 416 54 435 51 449 46 c 1
 449 49 l 1
 146 274 l 1
 142 283 140 292 140 299 c 0
 140 310 144 318 153 321 c 0
 213.446184715 344.398523116 290 428.464705622 290 504 c 0
 290 547 267.498814092 577.947742918 223 592 c 0
 210.498814092 595.947742918 198 595 188 595 c 0
 128 595 97.9938422807 559.746098976 93 489 c 0
 91.9938422807 474.746098976 81 468 62 468 c 0
 49 468 41 473 37 482 c 1
 31.0637333459 594.789066427 79.3613128594 653 188 653 c 0x6e
 280.663749021 653 346 597.433111538 346 504 c 0
 346 469 336 432 317 394 c 0
 300 361 267 327 218 292 c 1
 453 117 l 1
 453 610 l 2x1e
EndSplineSet
Validated: 33
Ligature2: "'vatu' Vattu Variants in Bengali lookup 7 subtable" u09a5 u09b0_u09cd.blwf
EndChar

StartChar: u09a6_u09b0_u09cd.blwf.vatu
Encoding: 65601 -1 81
GlifName: u09a6_u09b0_u09cd.blwf.vatu
Width: 434
GlyphClass: 3
Flags: W
HStem: 6 63<33.1755 167.721> 57 59<187.917 278.694> 610 63<-12 34 96 440>
VStem: 34 62<375 610> 256 57<134.634 392.503>
AnchorPoint: "Anchor-1" 351 18 basechar 0
LayerCount: 2
Fore
SplineSet
365 55 m 0xb8
 365 45.2225189292 355.691780939 12.1541095303 342 19 c 0
 334 27 326 34 319 40 c 0
 317 40 315 40 313 40 c 1
 311 45 l 1
 298 53 285 57 273 57 c 0x78
 259 57 225.103109074 50.20355475 174 30 c 0
 139.103109074 16.20355475 111 6 86 6 c 0
 33 6 -14 43 -53 118 c 0
 -55 123 -56 127 -56 132 c 0
 -56 146 -47 153 -30 153 c 0
 -24 153 -17 152 -10 149 c 1
 18 96 49 69 83 69 c 0xb8
 96 69 115 73 139 81 c 2
 213 104 l 2
 238 112 259 116 277 116 c 2
 279 116 l 1x78
 264 160 256 205 256 251 c 0
 256 306 268 370 290 443 c 1
 215 414 148 364 89 294 c 1
 81 289 72 287 62 287 c 0
 43 287 34 295 34 310 c 2
 34 610 l 1
 -12 610 l 1
 -12 673 l 1
 440 673 l 1
 440 610 l 1
 96 610 l 1
 96 375 l 1
 111 394 138 417 176 445 c 0
 240 492 289 514 322 514 c 0
 325 514 328 513 331 513 c 0
 352 511 363 499 362 478 c 1
 330 389 313 316 313 258 c 0
 313 196 330 133 364 69 c 0
 365 66 365 61 365 55 c 0xb8
EndSplineSet
Validated: 33
Ligature2: "'vatu' Vattu Variants in Bengali lookup 7 subtable" u09a6 u09b0_u09cd.blwf
EndChar

StartChar: u09a7_u09b0_u09cd.blwf.vatu
Encoding: 65602 -1 82
GlifName: u09a7_u09b0_u09cd.blwf.vatu
Width: 488
GlyphClass: 3
Flags: W
HStem: -19 58<54.9278 257.355> 5 57<153.155 330.431> 610 63<97.8144 200.242 411 487>
VStem: 30 58<515.468 597.177> 349 62<121 495 564 610>
AnchorPoint: "Anchor-1" 385 -33 basechar 0
LayerCount: 2
Fore
SplineSet
349 121 m 1x38
 349 495 l 1
 104 344 l 1
 349 121 l 1x38
30 558 m 0
 30 606 53 638 100 657 c 0
 124 666 152 671 184 671 c 1
 196 668 202 659 202 646 c 0
 202 629 196 618 185 612 c 1
 120 612 88 595 88 562 c 0
 88 555 90 546 93 538 c 0
 116 499 150 480 195 480 c 0
 202 480 210 481 217 482 c 1
 349 564 l 1
 349 610 l 2
 349 652 370 673 411 673 c 2
 487 673 l 1
 487 610 l 1
 411 610 l 1
 411 118 l 1
 412 118 l 1
 412 -6 l 2
 412 -21 398 -28 371 -28 c 0
 360 -28 353 -26 350 -23 c 0
 332 -4 308 5 279 5 c 0x78
 264 5 238 0 203 -8 c 0
 168 -16 142 -19 122 -19 c 0
 79 -18 46 -10 25 6 c 0
 4 22 -17 54 -38 101 c 1
 -39.4224878981 122.337318471 -30.9292952805 134 -11 134 c 0
 -2 134 8 131 17 125 c 1
 30 91 44 68 57 56 c 0
 71 44 88 39 109 39 c 0xb8
 123 39 148 42 183 49 c 0
 230 57 266 62 293 62 c 0x78
 307 62 320 61 331 59 c 1
 39 328 l 2
 35 333 33 339 33 347 c 0
 33 359 37 370 46 380 c 1
 136 432 l 1
 84 455 49 489 32 534 c 0
 31 542 30 550 30 558 c 0
EndSplineSet
Validated: 33
Ligature2: "'vatu' Vattu Variants in Bengali lookup 7 subtable" u09a7 u09b0_u09cd.blwf
EndChar

StartChar: u09a8_u09b0_u09cd.blwf.vatu
Encoding: 65603 -1 83
GlifName: u09a8_u09b0_u09cd.blwf.vatu
Width: 523
GlyphClass: 3
Flags: W
HStem: 21 55<26.8804 215.504> 52 58<186.365 364.391> 395 58<147.069 316.791> 610 63<-9 385 447 523>
VStem: -81 53<134.748 180.517> 37 59<199.899 346.24> 385 62<91 322.94 390 610>
AnchorPoint: "Anchor-1" 405 1 basechar 0
LayerCount: 2
Fore
SplineSet
227 395 m 0x7e
 152.458160092 395 96 351.012478668 96 276 c 0
 96 209.527901229 122.067854644 187.262679946 168 162 c 0
 173 157 175 152 175 146 c 0
 175 129.857612174 162.199829165 112.114310119 142 115 c 1
 79.7330655649 139.299291487 37 195.827150945 37 277 c 0
 37 384.703610373 121.158877777 453 233 453 c 0
 292 453 342 432 385 390 c 1
 385 610 l 1
 -9 610 l 1
 -9 673 l 1
 523 673 l 1
 523 610 l 1
 447 610 l 1
 447 28 l 2
 447 13 434 5 407 5 c 0
 397 5 390 7 385 12 c 0
 360 39 330 52 295 52 c 0x7e
 273 52 242 46 204 35 c 0
 171 25 139 21 107 21 c 0
 10 21 -52 65 -81 155 c 1
 -80 173 -68 182 -45 182 c 0
 -39 182 -34 181 -28 179 c 1
 -6 110 38 76 102 76 c 0xbe
 122 76 145 79 170 86 c 0
 227 102 270 110 300 110 c 0
 328 110 356 104 385 91 c 1
 385 263 l 1
 365.894987381 348.972556785 321.352404016 395 227 395 c 0x7e
EndSplineSet
Validated: 33
Ligature2: "'vatu' Vattu Variants in Bengali lookup 7 subtable" u09a8 u09b0_u09cd.blwf
EndChar

StartChar: u09aa_u09b0_u09cd.blwf.vatu
Encoding: 65604 -1 84
GlifName: u09aa_u09b0_u09cd.blwf.vatu
Width: 647
GlyphClass: 3
Flags: W
HStem: 50 63<188.937 323.721> 101 59<343.74 480.156> 439 21G<40.828 52.5> 606 60<183.194 338.23> 610 63<570 646>
VStem: 508 62<35.6394 66 126 417.506 502 610>
AnchorPoint: "Anchor-1" 537 30 basechar 0
LayerCount: 2
Fore
SplineSet
396 542 m 1x34
 351 585 306 606 261 606 c 0
 216 606 172 585 128 542 c 1
 250 398 l 1
 396 542 l 1x34
508 609 m 2
 508 640.799165327 534.941346501 673 570 673 c 2
 646 673 l 1
 646 610 l 1
 570 610 l 1
 570 55 l 2
 570 42 560 35 540 35 c 0
 519 35 508 41 508 54 c 2
 508 66 l 1
 505 62 502 61 498 62 c 1
 475 88 451 101 429 101 c 0x6c
 415 101 381.103109074 94.20355475 330 74 c 0
 295.103109074 60.20355475 267 50 242 50 c 0
 189 50 142 87 103 162 c 0
 101 167 100 171 100 176 c 0
 100 190 108 197 125 197 c 0
 131 197 139 196 146 193 c 1
 174 140 204 113 238 113 c 0xa4
 251 113 271 117 295 125 c 2
 369 148 l 2
 394 156 415 160 433 160 c 0x64
 461 160 486 149 508 126 c 1
 508 328 l 2
 508 359 500 390 484 422 c 0
 477 437 461 463 436 500 c 1
 207 276 l 1
 184.298401448 270.324600362 164 282.419340747 164 306 c 0
 164 310 165 314 166 317 c 1
 206 358 l 1
 94 493 l 1
 64 443 l 1
 59 440 55 439 50 439 c 0
 31.6560329731 439 16.7690919653 453.154540174 13 472 c 1
 60 575 131 638 225 661 c 0
 240 664 254 666 269 666 c 0
 357 666 437 611 508 502 c 1
 508 609 l 2
EndSplineSet
Validated: 33
Ligature2: "'vatu' Vattu Variants in Bengali lookup 7 subtable" u09aa u09b0_u09cd.blwf
EndChar

StartChar: u09ab_u09b0_u09cd.blwf.vatu
Encoding: 65605 -1 85
GlifName: u09ab_u09b0_u09cd.blwf.vatu
Width: 696
GlyphClass: 3
Flags: W
HStem: 27 58<68.7809 268.934> 51 56<164.765 292> 233 59<502.282 552.944> 515 55<425 518.651> 610 63<-7 18 98 696>
VStem: 363 62<121 515> 577 59<314.599 461.162>
AnchorPoint: "Anchor-1" 400 10 basechar 0
LayerCount: 2
Fore
SplineSet
577 389 m 0x7e
 577 471.784680978 515.246507177 515 425 515 c 1
 425 164 l 1
 426 164 l 1
 426 40 l 2
 426 25 412 18 385 18 c 0
 374 18 367 20 364 23 c 0
 346 42 322 51 293 51 c 0x7e
 278 51 253 47 217 39 c 0
 182 31 156 27 136 27 c 0
 93 28 61 37 40 53 c 0
 19 69 -2 100 -23 147 c 1
 -24.4436460321 168.654690481 -17.19239875 180 3 180 c 0
 12 180 22 177 31 171 c 1
 44 137 57 115 70 103 c 0
 84 91 102 85 124 85 c 0xbe
 138 85 162 88 197 95 c 0
 235 102 267 106 292 107 c 1
 59 297 l 1
 55 305 53 312 53 319 c 0
 53 328 57 338 65 347 c 1
 168 443 l 1
 18 610 l 1
 -7 610 l 1
 -7 673 l 1
 696 673 l 1
 696 610 l 1
 98 610 l 1
 229 463 l 1
 238.140404171 441.672390267 234.158492772 428.508483484 223 418 c 2
 120 321 l 1
 363 121 l 1
 363 514 l 2
 363 551 374 570 395 570 c 0
 507 570 580 538 614 474 c 0
 629 446 636 417 636 387 c 0
 636 315.515768511 591.46091742 239.668370768 527 233 c 1
 510 235 501 246 501 267 c 0
 501 280 506 288 517 292 c 1
 553.799508782 287.911165691 577 346.821839488 577 389 c 0x7e
EndSplineSet
Validated: 33
Ligature2: "'vatu' Vattu Variants in Bengali lookup 7 subtable" u09ab u09b0_u09cd.blwf
EndChar

StartChar: u09ac_u09b0_u09cd.blwf.vatu
Encoding: 65606 -1 86
GlifName: u09ac_u09b0_u09cd.blwf.vatu
Width: 486
GlyphClass: 3
Flags: W
HStem: -19 58<55.9278 258.355> 5 57<154.155 339.366> 610 63<-6 349 411 487>
VStem: 349 62<128 500 564 610>
AnchorPoint: "Anchor-1" 387 -29 basechar 0
LayerCount: 2
Fore
SplineSet
349 128 m 1x30
 349 500 l 1
 104 347 l 1
 349 128 l 1x30
340 57 m 1
 38 332 l 2
 32 337 30 343 30 352 c 0
 30 363 33 371 40 375 c 2
 349 564 l 1
 349 610 l 1
 -6 610 l 1
 -6 673 l 1
 487 673 l 1
 487 610 l 1
 411 610 l 1
 411 118 l 1
 413 118 l 1
 413 -6 l 2
 413 -21 399 -28 372 -28 c 0
 361 -28 354 -26 351 -23 c 0
 333 -4 309 5 280 5 c 0x70
 265 5 239 0 204 -8 c 0
 169 -16 143 -19 123 -19 c 0
 80 -18 47 -10 26 6 c 0
 5 22 -16 54 -37 101 c 1
 -38.4224878981 122.337318471 -29.9292952805 134 -10 134 c 0
 -1 134 9 131 18 125 c 1
 31 91 45 68 58 56 c 0
 72 44 89 39 110 39 c 0xb0
 124 39 149 42 184 49 c 0
 231 57 267 62 294 62 c 0x70
 312 62 328 60 340 57 c 1
EndSplineSet
Validated: 33
Ligature2: "'vatu' Vattu Variants in Bengali lookup 7 subtable" u09ac u09b0_u09cd.blwf
EndChar

StartChar: u09ad_u09b0_u09cd.blwf.vatu
Encoding: 65607 -1 87
GlifName: u09ad_u09b0_u09cd.blwf.vatu
Width: 600
GlyphClass: 3
Flags: W
HStem: 136 57<142.153 407.897> 334 58<264.226 371.713> 610 63<-6 603>
VStem: 30 59<238.054 377.063> 194 59<428 535.703> 494 62<134 439.407>
AnchorPoint: "Anchor-1" 536 28 basechar 0
LayerCount: 2
Fore
SplineSet
-6 673 m 1
 603 673 l 1
 603 610 l 1
 -6 610 l 1
 -6 673 l 1
556 51 m 2
 556 36.6872532169 532.903228715 25 513 25 c 0
 504 25 497 27 494 33 c 0
 450.101296277 110.34533513 398.788088501 130.060595575 280 136 c 0
 219 139 176 143 151 148 c 0
 54.4608545747 170.715093041 27.8210137018 237.797781001 30 362 c 1
 36 373 44 379 55 379 c 0
 66 379 78 374 89 364 c 1
 92 305 94 270 97 262 c 0
 108 224 148 202 216 195 c 0
 233 193 254 193 277 193 c 0
 328 192 363 190 384 187 c 0
 424 179 460 161 494 134 c 1
 494 380 l 1
 493 395 490 415 484 441 c 1
 428 370 368 334 305 334 c 0
 298 334 291 334 284 335 c 0
 219.532577 354.3402269 194 397.830122877 194 479 c 0
 194 490 194 502 195 517 c 1
 201 530 211 537 226 537 c 0
 241 537 249 530 252 517 c 1
 252 485 252 462 253 446 c 1
 256 428 l 1
 264 403 285 391 319 392 c 1
 322 392 l 1
 359 401 389 421 412 451 c 0
 443 490 465 514 478 522 c 1
 495.744058545 523.774405854 510.723359371 514.276640629 521 504 c 1
 544 461 556 425 556 394 c 2
 556 51 l 2
EndSplineSet
Validated: 33
Ligature2: "'vatu' Vattu Variants in Bengali lookup 7 subtable" u09ad u09b0_u09cd.blwf
EndChar

StartChar: u09ae_u09b0_u09cd.blwf.vatu
Encoding: 65608 -1 88
GlifName: u09ae_u09b0_u09cd.blwf.vatu
Width: 481
GlyphClass: 3
Flags: W
HStem: 67 58<78.8356 283.998> 91 57<178.602 368.099> 342 51<102.832 142.54> 356 67<284.475 375> 610 63<-3 109.979 154 347.667 415 482>
VStem: 44 54<396.679 476.321> 118 56<531.282 607.456> 375 62<140 357> 417 59<436.271 562.819>
AnchorPoint: "Anchor-1" 411 51 basechar 0
LayerCount: 2
Fore
SplineSet
375 427 m 1x1f
 375 436 l 1x1f
 395 436 l 1
 410 447 417 466 417 492 c 0x1e80
 417 519 408.241615447 548.038025565 387 574 c 0
 372.241615447 592.038025565 358 601 348 606 c 0
 341 609 327 610 307 610 c 2
 154 610 l 1
 167 591 174 569 174 544 c 0
 174 538 173 533 172 528 c 1
 191 520 217 501 252 470 c 0
 283 443 308 428 326 425 c 0
 333 424 340 423 347 423 c 0
 358 423 367 424 375 427 c 1x1f
139 483 m 0
 118.777654065 483 98 463.076688196 98 438 c 0
 98 421 103 409 115 400 c 0
 120 396 126 393 132 393 c 1
 139 381 144 371 144 363 c 0
 144 349 132 342 111 342 c 1
 66 365 44 399 44 446 c 0
 44 492 67 521 113 534 c 1
 116 541 118 549 118 557 c 0
 118 575 110 593 94 610 c 1
 -3 610 l 1
 -3 673 l 1
 482 673 l 1
 482 610 l 1
 415 610 l 1
 447.305152708 590.910591581 476 535.264917339 476 479 c 0x2e80
 476 437 462 405 437 384 c 1
 437 80 l 2
 437 65 423 58 396 58 c 0
 386 58 379 59 375 63 c 0
 357 82 335 91 306 91 c 0x6f
 291 91 264 86 229 78 c 0
 194 70 167 67 147 67 c 0
 104 68 73 76 52 92 c 0
 31 108 10 140 -11 187 c 1
 -12.4846741406 209.270112108 -4.87199523823 220 16 220 c 0
 25 220 33 217 42 211 c 1
 55 177 69 154 83 143 c 0
 97 131 114 125 136 125 c 0x8f
 150 125 173 128 208 135 c 0
 256 144 293 148 320 148 c 0x4f
 343 148 361 146 375 140 c 1
 375 357 l 1
 368 356 362 356 355 356 c 0
 326 356 297 367 266 389 c 0
 257 395 232 415 194 450 c 0
 170 472 152 483 139 483 c 0
EndSplineSet
Validated: 33
Ligature2: "'vatu' Vattu Variants in Bengali lookup 7 subtable" u09ae u09b0_u09cd.blwf
EndChar

StartChar: u09af_u09b0_u09cd.blwf.vatu
Encoding: 65609 -1 89
GlifName: u09af_u09b0_u09cd.blwf.vatu
Width: 500
GlyphClass: 3
Flags: W
HStem: -12 58<66.7809 267.68> 12 57<162.765 324.44> 610 63<-2 23 101 361 423 500>
VStem: 361 62<115 610>
AnchorPoint: "Anchor-1" 408 -23 basechar 0
LayerCount: 2
Fore
SplineSet
101 610 m 1x30
 230 452 l 1
 236.919630418 435.392886997 238.616110521 420.712082891 227 412 c 2
 95 302 l 1
 361 115 l 1
 361 610 l 1
 101 610 l 1x30
325 68 m 1
 36 278 l 2
 29 284 24 291 24 299 c 0
 24 306 27 314 32 321 c 1
 167 439 l 1
 23 610 l 1
 -2 610 l 1
 -2 673 l 1
 500 673 l 1
 500 610 l 1
 423 610 l 1
 423 125 l 1
 424 125 l 1
 424 1 l 2
 424 -14 410 -21 383 -21 c 0
 372 -21 365 -19 362 -16 c 0
 344 3 321 12 292 12 c 0x70
 277 12 251 8 215 0 c 0
 180 -8 154 -12 134 -12 c 0
 91 -11 59 -2 38 14 c 0
 17 30 -4 61 -25 108 c 1
 -26.4436460321 129.654690481 -19.19239875 141 1 141 c 0
 10 141 20 138 29 132 c 1
 42 98 55 76 68 64 c 0
 82 52 100 46 122 46 c 0xb0
 136 46 160 49 195 56 c 0
 242 64 279 69 306 69 c 0x70
 313 69 319 68 325 68 c 1
EndSplineSet
Validated: 33
Ligature2: "'vatu' Vattu Variants in Bengali lookup 7 subtable" u09af u09b0_u09cd.blwf
EndChar

StartChar: u09b0_u09b0_u09cd.blwf.vatu
Encoding: 65610 -1 90
GlifName: u09b0_u09b0_u09cd.blwf.vatu
Width: 485
GlyphClass: 3
Flags: W
HStem: -62 56<-11.8417 174.232> -30 58<147.112 323.634> 49 73<143 221> 610 63<-9 346 408 483>
VStem: -122 54<52.7302 98.3125> 143 78<49 122> 346 62<9 50 128 500 564 610>
AnchorPoint: "Anchor-1" 387 -76 basechar 0
AnchorPoint: "Anchor-1" 390 -81 basechar 0
LayerCount: 2
Fore
SplineSet
346 128 m 1x3e
 346 500 l 1
 101 347 l 1
 346 128 l 1x3e
143 122 m 1
 221 122 l 1
 221 49 l 1
 143 49 l 1
 143 122 l 1
345 50 m 1
 35 332 l 2
 29 337 26 343 26 352 c 0
 26 363 30 371 37 375 c 2
 346 564 l 1
 346 610 l 1
 -9 610 l 1
 -9 673 l 1
 483 673 l 1
 483 610 l 1
 408 610 l 1
 408 62 l 1
 407 59 l 1
 407 -54 l 2
 407 -69 394 -77 367 -77 c 0
 357 -77 350 -75 345 -70 c 0
 320 -43 289 -30 254 -30 c 0x7e
 232 -30 202 -36 164 -47 c 0
 131 -57 98 -62 66 -62 c 0
 -31 -62 -93 -17 -122 73 c 1
 -121 91 -108 100 -85 100 c 0
 -79 100 -74 99 -68 97 c 1
 -46 29 -2 -6 62 -6 c 0xbe
 82 -6 104 -3 129 4 c 0
 186 20 230 28 260 28 c 0x7e
 288 28 316 22 345 9 c 1
 345 50 l 1
EndSplineSet
Validated: 1
LCarets2: 1 0
Ligature2: "'vatu' Vattu Variants in Bengali lookup 7 subtable" u09b0 u09b0_u09cd.blwf
EndChar

StartChar: u09b2_u09b0_u09cd.blwf.vatu
Encoding: 65611 -1 91
GlifName: u09b2_u09b0_u09cd.blwf.vatu
Width: 552
GlyphClass: 2
Flags: W
HStem: 46 58<125.634 325.661> 70 57<221.082 413.099> 326 55<104.816 204.464> 534 55<101.137 212.857 304.646 382.147> 610 63<-8 420 482 559>
VStem: 420 62<119 494.806 547 610>
AnchorPoint: "Anchor-1" 462 32 basechar 0
LayerCount: 2
Fore
SplineSet
167 326 m 0x7c
 92.5956716818 326 27 379.925291647 27 454 c 0
 27 488 40 519 65 546 c 0
 92 574 123 588 156 589 c 0
 193 589 227 573 259 542 c 1
 283 571 309 585 336 585 c 0
 361 585 389 572 420 547 c 1
 420 610 l 1
 -8 610 l 1
 -8 673 l 1
 559 673 l 1
 559 610 l 1
 482 610 l 1
 482 59 l 2
 482 44 468 37 441 37 c 0
 431 37 424 38 420 42 c 0
 402 61 380 70 351 70 c 0x7c
 336 70 309 66 274 58 c 0
 239 50 212 46 192 46 c 0
 149 47 118 56 97 72 c 0
 76 88 55 119 34 166 c 1
 32.5153258594 188.270112108 40.1280047618 199 61 199 c 0
 70 199 78 196 87 190 c 1
 100 156 113 133 127 122 c 0
 141 110 159 104 181 104 c 0xbc
 195 104 218 107 253 114 c 0
 301 123 338 127 365 127 c 0
 388 127 406 125 420 119 c 1
 420 415 l 2
 420 464 404 499 372 520 c 0
 360 527 348 531 338 531 c 0
 320 531 302 514 281 480 c 0
 275 471 268 467 259 467 c 0
 250 467 241 471 234 480 c 1
 220 516 194 534 155 534 c 0
 111.69382783 534 85.0236302586 506.35445388 82 461 c 0
 77.5152397183 404.193036432 125.31671071 377.919843367 190 381 c 1
 199 376 205 368 205 355 c 0
 205 328.81363177 189.777963536 326 167 326 c 0x7c
EndSplineSet
Validated: 33
LCarets2: 1 0
Ligature2: "'vatu' Vattu Variants in Bengali lookup 7 subtable" u09b2 u09b0_u09cd.blwf
EndChar

StartChar: u09b6_u09b0_u09cd.blwf.vatu
Encoding: 65612 -1 92
GlifName: u09b6_u09b0_u09cd.blwf.vatu
Width: 656
GlyphClass: 3
Flags: W
HStem: 50 55<121.034 319.85> 78 58<266.766 483.418> 339 56<4.60213 97.7632> 610 68<-14.9062 115.762 562 652> 713 20G<499.161 557>
VStem: -9 51<182.015 228.886> 500 62<117 559.954 609 610 678 729>
AnchorPoint: "Anchor-1" 539 32 basechar 0
LayerCount: 2
Fore
SplineSet
500 513 m 2x7e
 500 571.954271053 412.50774398 612 350 612 c 0
 317 612 290 602 269 581 c 1
 258 569 l 1
 246 553 241 534 242 513 c 0
 245.78105455 427.926272617 305.683322618 406.713822184 395 398 c 1
 400 395 401 390 401 381 c 0
 401 363 397 350 388 342 c 1
 336 347 297 355 274 367 c 0
 247 381 224 407 203 445 c 1
 180 401 154 372 123 357 c 0
 102 348 67 342 17 339 c 1
 9 345 4 354 4 366 c 0
 4 377 8 387 15 395 c 1
 63 398 100 412 129 439 c 0
 167.543013823 475.275777715 180.092347673 522.16049166 137 569 c 0
 99.7468321781 608.322788256 79.4740964536 610 -0 610 c 0
 -10 610 -16 621 -16 643 c 0
 -16 663 -10 673 -0 673 c 0
 53 673 88 670 106 664 c 0
 142 653 175 624 202 577 c 1
 223 610 245 633 266 646 c 0
 285 659 312.815338467 670.212117863 350 673 c 0
 401.926186458 676.893112959 484.410293984 646.86071461 500 609 c 1
 499 733 l 1
 557 729 l 1
 556 678 l 1
 652 678 l 1
 652 610 l 1
 562 610 l 1
 562 61 l 2
 562 46.105093769 541.269562085 33 521 33 c 0
 514 33 510 35 506 38 c 0
 481 65 444 78 396 78 c 0x7e
 383 78 348 73 289 61 c 0
 252 54 227 50 214 50 c 0
 101.782181522 50 19.9218214424 110.976022683 -9 203 c 1
 -9 221 2 230 25 230 c 0
 31 230 37 229 42 227 c 1
 64.6783522912 156.13014909 118.99398994 105 208 105 c 0xbe
 226 105 242 107 259 112 c 0
 317 128 365 136 403 136 c 0
 438 136 471 130 500 117 c 1
 500 513 l 2x7e
EndSplineSet
Validated: 33
LCarets2: 1 0
Ligature2: "'vatu' Vattu Variants in Bengali lookup 7 subtable" u09b6 u09b0_u09cd.blwf
EndChar

StartChar: u09b7_u09b0_u09cd.blwf.vatu
Encoding: 65613 -1 93
GlifName: u09b7_u09b0_u09cd.blwf.vatu
Width: 485
GlyphClass: 3
Flags: W
HStem: -52 63<63.538 199.721> -1 59<219.74 346.602> 610 63<-5 21 98 358 420 497>
VStem: 358 62<115 329 392 610>
AnchorPoint: "Anchor-1" 407 -50 basechar 0
LayerCount: 2
Fore
SplineSet
358 392 m 1x30
 358 610 l 1
 98 610 l 1
 227 453 l 1
 358 392 l 1x30
358 115 m 1
 358 329 l 1
 206 397 l 1
 92 302 l 1
 358 115 l 1
420 60 m 2
 420.8 60 414.944825596 -17.8344767866 422 -39 c 0
 422 -45 418 -47 409 -47 c 0
 397 -47 385 -46 374 -40 c 1
 351 -14 327 -1 305 -1 c 0x70
 291 -1 257.103109074 -7.79644524995 206 -28 c 0
 171.103109074 -41.79644525 143 -52 118 -52 c 0
 65 -52 18 -15 -21 60 c 0
 -23 65 -24 69 -24 74 c 0
 -24 88 -16 95 1 95 c 0
 7 95 14 94 21 91 c 1
 49 38 80 11 114 11 c 0xb0
 127 11 147 15 171 23 c 2
 245 47 l 1
 270 54 291 58 309 58 c 0x70
 322 58 335 55 347 50 c 1
 33 278 l 2
 26 284 21 291 21 299 c 0
 21 306 24 314 29 321 c 1
 165 439 l 1
 21 610 l 1
 -5 610 l 1
 -5 673 l 1
 497 673 l 1
 497 610 l 1
 420 610 l 1
 420 60 l 2
EndSplineSet
Validated: 33
Ligature2: "'vatu' Vattu Variants in Bengali lookup 7 subtable" u09b7 u09b0_u09cd.blwf
EndChar

StartChar: u09b8_u09b0_u09cd.blwf.vatu
Encoding: 65614 -1 94
GlifName: u09b8_u09b0_u09cd.blwf.vatu
Width: 578
GlyphClass: 3
Flags: W
HStem: 45 58<132.281 332.007> 69 57<227.753 420.044> 367 58<350.534 426.507> 378 60<75.9347 132.844> 610 63<-6 187 258 388.951 456 578>
VStem: 427 62<118 372> 440 70<434.86 548.363>
AnchorPoint: "Anchor-1" 465 27 basechar 0
LayerCount: 2
Fore
SplineSet
392 425 m 0x2a
 420.206305379 425 440 453.541209645 440 487 c 0
 440 507 435 524 424 540 c 0
 403 572 385 595 370 610 c 1
 258 610 l 1
 258 602 263 589 274 571 c 1
 321 485 l 1
 346 445 370 425 392 425 c 0x2a
427 372 m 1x4c
 415 369 403 367 392 367 c 0x6c
 358 367 329 380 304 407 c 0
 285 427 265 459 243 502 c 1
 188 419 143 378 107 378 c 0
 80 378 55 395 30 429 c 1
 24.7738147714 451.646802657 48.528733504 471.946709044 74 465 c 1
 79 447 86 438 96 438 c 0
 121 438 153.343740479 473.135394452 185 547 c 0
 192.343740479 564.135394452 192 581 190 595 c 0
 189 600 188 605 187 610 c 1
 -6 610 l 1
 -6 673 l 1
 578 673 l 1
 578 610 l 1
 456 610 l 1
 480 571 l 2
 500 538 510 506 510 475 c 0x1a
 510 447 503 424 489 407 c 1
 489 58 l 2
 489 43 475 36 448 36 c 0
 438 36 431 37 427 41 c 0
 409 60 386 69 357 69 c 0x5c
 342 69 316 65 280 57 c 0
 245 49 219 45 199 45 c 0
 156 46 124 54 103 70 c 0
 82 86 61 118 40 165 c 1
 38.5153258594 187.270112108 46.1280047618 198 67 198 c 0
 76 198 85 195 94 189 c 1
 107 155 120 132 134 121 c 0
 148 109 165 103 187 103 c 0x8c
 201 103 225 106 260 113 c 0
 308 122 344 126 371 126 c 0
 394 126 413 124 427 118 c 1
 427 372 l 1x4c
EndSplineSet
Validated: 33
Ligature2: "'vatu' Vattu Variants in Bengali lookup 7 subtable" u09b8 u09b0_u09cd.blwf
EndChar

StartChar: u09b9_u09b0_u09cd.blwf.vatu
Encoding: 65615 -1 95
GlifName: u09b9_u09b0_u09cd.blwf.vatu
Width: 453
GlyphClass: 3
Flags: W
HStem: -103 45<-33.7441 86.3722> -47 51<136.697 252.755> -20 20G<-85.9588 -75.5> 536 58<199.172 307.268> 610 63<-7 106 183 454>
VStem: 57 55<402.438 490.773> 262 52<-14 51> 352 57<354.894 491.687>
AnchorPoint: "Anchor-1" 486 -52 basechar 0
LayerCount: 2
Fore
SplineSet
57 423 m 1xdf
 57 486.776818007 97.8200834527 554.121936553 150 574 c 1
 106 610 l 1
 -7 610 l 1
 -7 673 l 1
 454 673 l 1
 454 610 l 1
 183 610 l 2
 179.296460867 610 209.892293091 598.810275879 215 592 c 1
 222 594 229 594 237 594 c 0
 292 594 335 576 367 539 c 1
 380 521 l 1
 399 491 409 457 409 416 c 0
 409 405 408 393 407 382 c 0
 382 286 295 229 148 211 c 1
 500 -6 l 1
 501 -10 501 -14 501 -18 c 0
 501 -36 492 -45 473 -44 c 1
 470 -44 l 1
 314 51 l 1
 314 -68 l 2
 314 -83 302 -91 278 -91 c 0
 270 -91 264 -88 262 -84 c 0
 250 -59 233 -47 211 -47 c 0xdf
 198 -47 178 -52 151 -63 c 0
 88 -89 44 -103 19 -103 c 0
 -22 -103 -60 -79 -95 -30 c 1
 -95 -13.74974809 -92.9176846526 0 -79 0 c 0xbf
 -72 0 -64 -3 -53 -10 c 1
 -36 -42 -13 -58 14 -58 c 0
 28 -58 47 -52 72 -42 c 2
 140 -15 l 2
 175 -2 198 4 208 4 c 0
 224 4 242 -2 262 -14 c 1
 262 83 l 1
 27 227 l 1
 21 235 19 243 19 252 c 0
 19 271 26 280 43 280 c 0
 46 280 51 279 55 278 c 0
 82 274 108 272 132 272 c 0
 243 272 316 310 349 387 c 1
 351 397 352 407 352 418 c 0
 352 460 337 492 308 514 c 1
 293 523 l 1
 274 531 l 2
 262 535 248 536 234 536 c 0
 157 536 116 496 112 416 c 1
 106 407 97 402 84 402 c 0
 70 402 62 409 57 423 c 1xdf
EndSplineSet
Validated: 33
Ligature2: "'vatu' Vattu Variants in Bengali lookup 7 subtable" u09b9 u09b0_u09cd.blwf
EndChar

StartChar: janya_u09b0_u09cd.blwf.vatu
Encoding: 65616 -1 96
GlifName: janya_u09b0_u09cd.blwf.vatu
Width: 864
GlyphClass: 3
Flags: W
HStem: -115 45<115.959 237.539> -59 51<288.143 401.846> 28 52<302.089 411.181> 227 56<667.625 734.447> 431 20G<691 730.7> 610 63<-6 298 397 865>
VStem: 29 59<412.65 526.456> 208 62<350.441 504.907> 412 51<-26 30> 530 66<209.187 291.967> 755 59<133.791 213.721 303.373 381.23>
LayerCount: 2
Fore
SplineSet
753 173 m 0
 753 206.478277191 727.418988808 227 689 227 c 1
 674 232 667 242 667 255 c 0
 667 269 672.545491738 279.979219905 688 283 c 0
 719.348124015 289.127389332 755 309.45481029 755 346 c 0
 755 373 735 388 696 390 c 1
 662 383 638 371 621 353 c 1
 608 337 l 1
 590 307 l 2
 588 303 586 299 583 293 c 1
 594 271 598 247 596 220 c 0
 596 216 596 213 595 209 c 1
 616 183 633 165 646 155 c 0
 675.182833992 132.302240229 746.588820276 105.299382485 753 163 c 0
 753 166 753 169 753 173 c 0
351 577 m 1
 310.858731814 555.104762808 270 481.986109526 270 419 c 0
 270 381 283 353 309 335 c 1
 435 392 l 1
 398 479 370 540 351 577 c 1
813 170 m 0
 813 121.579568028 781.932302679 69 721 69 c 0
 681 69 640 86 600 120 c 0
 588 130 578 140 569 150 c 1
 545 113 524 86 504 69 c 0
 492 59 478 50 463 43 c 1
 463 -80 l 2
 463 -95 451 -103 427 -103 c 0
 419 -103 414 -101 412 -97 c 0
 400 -72 382 -59 360 -59 c 0
 347 -59 327 -65 300 -76 c 0
 237 -102 193 -115 168 -115 c 0
 127 -115 90 -91 55 -42 c 1
 55 -25.4712439681 55.7625194464 -12 70 -12 c 0
 77 -12 86 -15 97 -22 c 1
 114 -54 137 -70 164 -70 c 0
 178 -70 197 -65 222 -55 c 2
 290 -27 l 1
 325 -14 347 -8 357 -8 c 0
 373 -8 392 -14 412 -26 c 1
 412 30 l 1
 402 29 391 28 381 28 c 0
 286 28 203 85 132 199 c 0
 73 295 39 397 29 506 c 1
 35 521 45 528 57 528 c 0
 66 528 76 523 88 515 c 1
 103 408 137 310 190 223 c 0
 248 128 310 80 376 80 c 0
 415 80 454.949554145 96.2112380621 490 134 c 0
 518.949554145 165.211238062 530 202 530 241 c 0
 530 286 512 322 475 349 c 1
 462 345 435 330 394 306 c 0
 360 286 332 276 311 276 c 0
 300 276 288 278 277 283 c 1
 231 322 208 370 208 427 c 0
 208 495.136385534 247.777165841 571.367050647 298 610 c 1
 -6 610 l 1
 -6 673 l 1
 865 673 l 1
 865 610 l 1
 397 610 l 1
 491 405 l 1
 514 394 535 377 553 355 c 1
 575 390 603 416 636 434 c 0
 658 446 680 451 702 451 c 0
 759.399706891 451 814 403.095543945 814 345 c 0
 814 311 800 283 770 259 c 1
 799 236 813 206 813 170 c 0
EndSplineSet
Validated: 33
EndChar

StartChar: bn_ka_ssa.akhn_bn_raphala.vatu
Encoding: 65617 -1 97
GlifName: bn_ka_ssa.akhn_bn_raphala.vatu
Width: 832
GlyphClass: 3
Flags: W
HStem: 25 56<126.88 315.504> 57 58<288.202 409.469> 610 63<-11 111.066 169 337 392.971 488 545 832>
VStem: 19 53<139.73 185.517> 128 60<512.776 592.257> 288 66<282.331 404.487> 332 60<541.367 609.508> 488 57<135 408 494 610> 688 63<260.143 343.868>
LayerCount: 2
Fore
SplineSet
405 610 m 1x3b80
 396 600 392 590 392 580 c 0
 392 553 424 524 488 494 c 1
 488 610 l 1
 405 610 l 1x3b80
184 514 m 1
 269.435517111 502.608597719 354 434.550636921 354 343 c 0x3d80
 354 319 347 294 335 269 c 1
 485 135 l 1
 485 175 l 1
 488 175 l 1
 488 430 l 1
 384 477 332 526 332 578 c 0
 332 588 333 599 337 610 c 1
 169 610 l 1
 181 591 188 570 188 548 c 0
 188 538 187 527 184 514 c 1
201 155 m 1
 184.47644766 157.542084975 167 170.393441916 167 191 c 0
 167 197 169 202 173 206 c 0
 249 249 288 294 288 342 c 0
 288 400.153067143 235.108692745 456 176 456 c 0
 169 456 162 455 155 453 c 1
 134 420 104 392 63 368 c 1
 39.4392502861 366.614073546 24 375.104020569 24 397 c 0
 24 402 26 406 29 410 c 1
 68.7715009389 429.885750469 128 489.258957342 128 545 c 0
 128 578 108 600 68 610 c 1
 -11 610 l 1
 -11 673 l 1
 832 673 l 1
 832 610 l 1
 545 610 l 1
 545 471 l 1
 603 451 651 427 689 396 c 0
 730 363 751 330 751 297 c 0
 751 254 716 216 644 185 c 0
 629.067036305 180.520110891 613 199.057832403 613 217 c 0
 613 222 614 226 615 230 c 1
 664 251 688 275 688 300 c 0
 688 339 640 375 545 408 c 1
 545 175 l 1
 547 175 l 1
 547 33 l 2
 547 18 534 10 507 10 c 0
 497 10 490 12 485 17 c 0
 460 44 430 57 395 57 c 0x7d80
 373 57 342 51 304 40 c 0
 271 30 239 25 207 25 c 0
 110 25 48 70 19 160 c 1
 20 178 32 187 55 187 c 0
 61 187 66 186 72 184 c 1
 94 115 138 81 202 81 c 0xbd80
 222 81 245 84 270 91 c 0
 327 107 370 115 400 115 c 2
 410 115 l 1x7d80
 294 221 l 1
 269 197 238 175 201 155 c 1
EndSplineSet
Validated: 33
Ligature2: "'vatu' Vattu Variants in Bengali lookup 7 subtable" u0995_u09cd_u09b7.akhn u09b0_u09cd.blwf
EndChar

StartChar: u09a4_u09cd_u09a4_u09b0_u09cd
Encoding: 65618 -1 98
GlifName: u09a4_u09cd.half_u09a4_u09b0_u09cd.blwf.vatu.pres
Width: 704
GlyphClass: 3
Flags: W
HStem: -107 45<157.476 281.22> -52 52<327.666 444.653> 31 60<338.645 452.997> 519 57<358.075 479.875> 610 63<-13 702>
VStem: 18 55<511.333 555.573> 266 59<341.433 485.741> 454 51<-94.8398 -61.7084 -19 33> 523 59<357.802 476.502> 552 59<127.268 255.524>
LayerCount: 2
Fore
SplineSet
-13 673 m 1xff
 702 673 l 1
 702 610 l 1
 -13 610 l 1
 -13 673 l 1xff
266 419 m 0
 266 503 330.621971005 576 414 576 c 0
 459 576 497 561 530 531 c 1
 545 515 l 1
 569 486 582 453 582 417 c 0xff80
 582 382 569 350 546 321 c 1
 589 283 611 239 611 189 c 0
 611 144 593 106 557 76 c 0
 542 63 524 52 505 45 c 1
 505 -73 l 2
 505 -88 493 -96 469 -96 c 0
 461 -96 456 -93 454 -89 c 0
 442 -64 424 -52 402 -52 c 0
 389 -52 369 -57 342 -68 c 0
 279 -94 235 -107 210 -107 c 0
 169 -107 132 -84 97 -35 c 1
 97 -18.7477510203 98.2848426009 -4 112 -4 c 0
 119 -4 128 -8 139 -15 c 1
 156 -47 179 -62 206 -62 c 0
 220 -62 239 -57 264 -47 c 2
 332 -20 l 2
 367 -7 389 0 399 -0 c 0
 415 0 434 -7 454 -19 c 1
 454 33 l 1
 443 32 430 31 417 31 c 0
 365 31 308 55 244 104 c 0
 218 125 194 146 174 168 c 0
 101 251 49 369 18 524 c 0
 16.5778837254 545.331744119 23.0275108753 557 42 557 c 0
 55 557 65 550 73 536 c 1
 115 388 l 1
 132 336 156 290 186 249 c 0
 264 144 345 91 429 91 c 0
 503.610723816 91 552 123.769081819 552 190 c 0xff40
 552 227 537.232356526 258.363427561 505 276 c 0
 484.232356526 287.363427561 473 297 473 310 c 0
 473 321 479.277284969 335.739717764 495 351 c 0
 513.277284969 368.739717764 523 389 523 414 c 0xff80
 523 471.860143182 474.737593278 519 415 519 c 0
 405 519 394.385771106 519.505170131 385 515 c 0
 344.385771106 495.505170131 325 464 325 425 c 0
 325 407 329 386 337 362 c 1
 338.49403033 341.083575382 330.547172926 330 310 330 c 0
 300 330 292 334 286 342 c 0
 273 366 266 392 266 419 c 0
EndSplineSet
Validated: 545
EndChar

StartChar: u0995_u09cd_u0995.cjct
Encoding: 65619 -1 99
GlifName: u0995_u09cd_u0995.cjct
Width: 583
GlyphClass: 3
Flags: W
HStem: -16 21G<310 327.5> 9 50<405.235 442.273> 210 56<353 427.266> 337 50<408.224 445.204> 538 56<355 431.401> 610 63<-5 293 355 586>
VStem: 292 63<56 210 285 293 356 363 364 524 594 610> 457 51<70.5239 181.391 395.803 513.542>
LayerCount: 2
Fore
SplineSet
291 56 m 1
 291 219 l 1
 139 159 l 1
 291 56 l 1
510 460 m 0
 510 402.663155103 484.03937317 337.511024658 431 337 c 0
 415.91135292 336.854623646 408 348 408 363 c 0
 408 372 411 380 418 387 c 1
 441.637995536 391.727599107 459 420.971521284 459 455 c 0
 459 469 458.712673545 483.00250782 451 495 c 0
 431.712673545 525.00250782 403 538 371 538 c 0
 366 538 360 538 355 537 c 1
 355 317 l 2
 355 312 355 308 353 304 c 1
 353 266 l 1
 383.321080383 266 412.042077553 258.203521088 435 248 c 0
 484 224 508 185 508 132 c 0
 508 75.2892160282 481.231078129 9.4200312917 428 9 c 0
 412.909918708 8.88092846209 405 20 405 35 c 0
 405 44 409 52 416 59 c 1
 439.399213269 63.6798426539 457 94.3791166758 457 127 c 0
 457 141 454 154 448 167 c 1
 426 197 395 212 357 210 c 1
 353 210 l 1
 353 3 l 2
 353 -10 340 -16 315 -16 c 0
 305 -16 297 -14 292 -10 c 2
 59 146 l 2
 52 151 48 157 48 166 c 0
 48 175 53 182 64 187 c 2
 292 285 l 1
 292 293 l 1
 42 429 l 2
 28 436 21 449 21 469 c 0
 21 476 22 481 25 486 c 1
 293 585 l 1
 293 610 l 1
 -5 610 l 1
 -5 673 l 1
 586 673 l 1
 586 610 l 1
 355 610 l 1
 355 594 l 1
 415.095222328 598.39721139 470.333886862 566.915697992 496 522 c 0
 506 507 510 486 510 460 c 0
292 356 m 1
 292 363 l 1
 293 364 l 1
 293 524 l 1
 107 452 l 1
 292 356 l 1
EndSplineSet
Validated: 33
LCarets2: 2 0 0
Ligature2: "'cjct' Conjunct Forms in Bengali2 lookup 13" u0995 u09cd u0995
EndChar

StartChar: u0995_u09cd_u099f.cjct
Encoding: 65620 -1 100
GlifName: u0995_u09cd_u099f.cjct
Width: 553
GlyphClass: 3
Flags: W
HStem: 39 59<193.722 324.264> 610 63<-5 263 325 364 423.295 555> 737 61<52.9951 347.657> 887 20G<-9 2.5>
VStem: -30 54<826.735 906.561> 263 62<557.919 610> 379 55<151.839 251.596> 423 56<357.277 471.657>
LayerCount: 2
Fore
SplineSet
263 489 m 1xfc
 118 431 l 1
 233 339 l 1
 245 367 256 417 263 489 c 1xfc
325 562 m 1
 401.825587672 550.796268464 479 504.38796149 479 421 c 0
 479 388 465 352 439 315 c 1
 419.399677072 313.599976934 396 323.607360682 396 343 c 0
 396 347 397 350 399 353 c 0
 415 380 423 403 423 424 c 0xfd
 423 465 391 493 325 506 c 1
 326 498 326 490 326 481 c 0
 326 422 312 360 283 296 c 0
 250 223 210 176 162 154 c 1
 186 117 217 98 256 98 c 0
 318.027165049 98 379 151.463973049 379 213 c 0
 379 222 378 231 375 240 c 1
 383 248 392 253 402 253 c 0
 412 253 422 249 430 242 c 1
 433 229 434 216 434 203 c 0xfe
 434 147 409 103 359 72 c 0
 331.076549667 53.8497572834 293.99616044 39 251 39 c 0
 192 39 144 70 107 132 c 0
 101 142 99 151 99 160 c 0
 99 170 102 181 109 190 c 1
 155 215 188 246 209 283 c 1
 40 416 l 2
 34 421 31 427 31 434 c 0
 31 449 38 460 51 465 c 2
 263 551 l 1
 263 610 l 1
 -5 610 l 1
 -5 673 l 1
 364 673 l 1
 371.032849738 718.713523295 320.358544976 734.810498045 270 737 c 0
 150 744 85 748 75 751 c 0
 4 769 -31 814 -30 887 c 1
 -30 889 l 1
 -24 901 -15 907 -3 907 c 0
 8 907 16 903 24 894 c 1
 24 817.618672316 71.7656057809 791.244021071 151 794 c 2
 266 798 l 1
 370.388688588 798 417.515774178 763.498408769 426 673 c 1
 555 673 l 1
 555 610 l 1
 325 610 l 1
 325 562 l 1
EndSplineSet
Validated: 33
Ligature2: "'cjct' Conjunct Forms in Bengali2 lookup 13" u0995 u09cd u099f
EndChar

StartChar: u0995_u09cd_u09a4.cjct
Encoding: 65621 -1 101
GlifName: u0995_u09cd_u09a4.cjct
Width: 893
GlyphClass: 3
Flags: W
HStem: 31 60<338.645 513.418> 519 57<358.075 479.484> 610 63<-13 894>
VStem: 18 55<511.333 555.573> 266 59<341.433 485.816> 552 59<128.688 255.524> 763 54<333.836 412.228>
LayerCount: 2
Fore
SplineSet
266 419 m 0
 266 503.344762049 330.621971005 576 414 576 c 0
 494.631340761 576 569.203658322 514.415123413 580 441 c 1
 608 470 l 1
 636 495 669 505 708 498 c 0
 764.225726708 488.077812934 817 447.167412608 817 382 c 0
 817 374 816 365 814 357 c 0
 798 297 754 268 681 270 c 1
 677 270 l 1
 667 275 662 283 662 293 c 0
 662 306 668 315 681 320 c 1
 727.08802853 315.679247325 763 336.032103501 763 382 c 0
 763 389 763 395 761 401 c 0
 745 427 724 440 700 440 c 0
 669 440 635 420 598 381 c 0
 583 366 571 351 562 336 c 1
 561 341 l 1
 557 334 552 328 546 321 c 1
 589 283 611 239 611 189 c 0
 611 89.3564436262 521.707639671 31 417 31 c 0
 365 31 308 55 244 104 c 0
 218 125 194 146 174 168 c 0
 101 251 49 369 18 524 c 0
 16.5778837254 545.331744119 23.0275108753 557 42 557 c 0
 55 557 65 550 73 536 c 1
 115 388 l 1
 132 336 156 290 186 249 c 0
 264 144 345 91 429 91 c 0
 503.610723816 91 552 123.769081819 552 190 c 0
 552 227 537.232356526 258.363427561 505 276 c 0
 484.232356526 287.363427561 473 297 473 310 c 0
 473 321 479.277284969 335.739717764 495 351 c 0
 513.277284969 368.739717764 523 389 523 414 c 0
 523 471.860143182 474.737593278 519 415 519 c 0
 405 519 394.385771106 519.505170131 385 515 c 0
 344.385771106 495.505170131 325 464 325 425 c 0
 325 407 329 386 337 362 c 1
 338.49403033 341.083575382 330.547172926 330 310 330 c 0
 300 330 292 334 286 342 c 0
 273 366 266 392 266 419 c 0
894 610 m 1
 -13 610 l 1
 -13 673 l 1
 894 673 l 1
 894 610 l 1
EndSplineSet
Validated: 33
Substitution2: "'salt' Stylistic Alternatives in Bengali2 lookup 17-1" u0995_u09cd_u09a4.salt
Ligature2: "'cjct' Conjunct Forms in Bengali2 lookup 13" u0995 u09cd u09a4
EndChar

StartChar: u0995_u09cd_u09a8.cjct
Encoding: 65622 -1 102
GlifName: u0995_u09cd_u09a8.cjct
Width: 584
GlyphClass: 3
Flags: W
HStem: 17 46<97.7077 145.582> 240 53<100.803 223.969> 337 50<405.235 442.461> 538 56<353 428.874> 610 63<-8 291 353 583>
VStem: 10 56<93.5872 205.969> 291 62<11.8613 179.594 207 292 355 524 594 610> 457 50<398.132 511.258>
LayerCount: 2
Fore
SplineSet
124 17 m 0
 74.9435852551 17 10 106.615745399 10 159 c 0
 10 180 16 202 28 223 c 0
 54 270 94 293 146 293 c 0
 205.590746922 293 263.958121756 254.323286927 291 207 c 1
 291 292 l 1
 39 429 l 2
 25 436 18 449 18 469 c 0
 18 476 19 481 22 486 c 1
 291 585 l 1
 291 610 l 1
 -8 610 l 1
 -8 673 l 1
 583 673 l 1
 583 610 l 1
 353 610 l 1
 353 594 l 1
 412.775063864 598.373785161 467.432519738 566.743090458 493 522 c 0
 503 507 507 486 507 460 c 0
 507 401.467994139 482.151680506 337.556868447 428 337 c 0
 412.910948322 336.844831837 405 348 405 363 c 0
 405 372 409 380 416 387 c 1
 438.638547298 391.52770946 457 422.653766145 457 455 c 0
 457 469 455.712673545 483.00250782 448 495 c 0
 428.712673545 525.00250782 400 538 368 538 c 0
 363 538 358 538 353 537 c 1
 353 29 l 2
 353 17 341 11 318 11 c 0
 299 11 291 17 291 29 c 0
 291 82 291 111 290 118 c 0
 286 151 275 177 258 194 c 0
 227 225 196 240 163 240 c 0
 112.525105758 240 66 201.284736816 66 148 c 0
 66 110 89 82 135 63 c 0
 142 60 146 55 146 46 c 0
 146 27 139 17 124 17 c 0
291 355 m 1
 291 524 l 1
 104 452 l 1
 291 355 l 1
EndSplineSet
Validated: 33
Ligature2: "'cjct' Conjunct Forms in Bengali2 lookup 13" u0995 u09cd u09a8
EndChar

StartChar: u0995_u09cd_u09ae.cjct
Encoding: 65623 -1 103
GlifName: u0995_u09cd_u09ae.cjct
Width: 699
GlyphClass: 3
Flags: W
HStem: 225 57<355.229 448.148> 337 50<407.235 446.659> 538 56<355 431.01> 610 63<-6 293 355 557 619 695>
VStem: 223 62<87.3121 197.503> 293 62<282 292 355 524 594 610> 459 51<397.689 511.258> 557 62<41.6394 139.324 173 610>
LayerCount: 2
Fore
SplineSet
293 355 m 1
 293 524 l 1
 107 452 l 1
 293 355 l 1
373 225 m 0
 324.275480228 225 285 191.538596857 285 140 c 0
 285 97 309 74 357 71 c 1
 365 64 369 55 369 43 c 0
 369 28 363 18 350 13 c 1
 296.06140355 19.7423245563 273.970642741 36.0411001632 249 71 c 0
 231 100 223 128 223 158 c 0
 223 208.269160944 251.646954835 259.094982629 293 275 c 1
 293 292 l 1
 41 429 l 2
 27 436 20 449 20 469 c 0
 20 476 22 481 25 486 c 1
 293 585 l 1
 293 610 l 1
 -6 610 l 1
 -6 673 l 1
 695 673 l 1
 695 610 l 1
 619 610 l 1
 619 60 l 2
 619 47 609 41 589 41 c 0
 568 41 557 47 557 60 c 2
 557 101 l 2
 557 118 537 143 496 174 c 0
 452 208 411 225 373 225 c 0
355 282 m 1
 436.572556469 289.415686952 531.918913959 233.612624598 557 173 c 1
 557 610 l 1
 355 610 l 1
 355 594 l 1
 415.231341169 598.407171305 469.285172697 567.00094778 495 522 c 0
 505 507 510 486 510 460 c 0
 510 401.931274491 483.779476165 337.541492924 430 337 c 0
 414.911082256 336.848073228 407 348 407 363 c 0
 407 372 411 380 418 387 c 1
 441.637995536 391.727599107 459 420.971521284 459 455 c 0
 459 469 457.712673545 483.00250782 450 495 c 0
 430.712673545 525.00250782 402 538 370 538 c 0
 365 538 360 538 355 537 c 1
 355 282 l 1
EndSplineSet
Validated: 33
Ligature2: "'cjct' Conjunct Forms in Bengali2 lookup 13" u0995 u09cd u09ae
EndChar

StartChar: u0995_u09cd_u09b2.cjct
Encoding: 65624 -1 104
GlifName: u0995_u09cd_u09b2.cjct
Width: 582
GlyphClass: 3
Flags: W
HStem: 34 55<-18.8183 77.4403> 224 62<164.063 242.023> 243 55<-21.4688 87.0579> 337 50<405.235 442.461> 538 56<353 428.874> 610 63<-8 291 353 583>
VStem: 288 65<35.5847 161.687 209 293 356 396 398 524 594 610> 457 50<398.132 511.258>
LayerCount: 2
Fore
SplineSet
-100 164 m 0xbf
 -100 233.315148386 -39.893866707 296.060175237 28 298 c 0xbf
 65 298 100 283 133 252 c 1
 152 274 172 286 193 286 c 0
 229 286 261 260 288 209 c 1
 288 293 l 1
 39 429 l 2
 25 436 18 449 18 469 c 0
 18 476 19 481 22 486 c 1
 291 585 l 1
 291 610 l 1
 -8 610 l 1
 -8 673 l 1
 583 673 l 1
 583 610 l 1
 353 610 l 1
 353 594 l 1
 412.775063864 598.373785161 467.432519738 566.743090458 493 522 c 0
 503 507 507 486 507 460 c 0
 507 401.467994139 482.151680506 337.556868447 428 337 c 0
 412.910948322 336.844831837 405 348 405 363 c 0
 405 372 409 380 416 387 c 1
 438.638547298 391.52770946 457 422.653766145 457 455 c 0
 457 469 455.712673545 483.00250782 448 495 c 0
 428.712673545 525.00250782 400 538 368 538 c 0
 363 538 358 538 353 537 c 1
 353 317 l 2
 353 312 352 308 350 304 c 1
 350 48 l 2
 350 39 340 35 319 35 c 0
 298 35 288 39 288 48 c 0
 288 94 280 135 262 170 c 0
 245 206 225 224 203 224 c 0xdf
 185 224 169 212 154 188 c 0
 149 181 143 177 134 177 c 0
 124 177 115 181 107 189 c 1
 94 224 69 243 30 243 c 0
 3 243 -18 231 -33 208 c 0
 -57.2266248146 168.864682992 -45.2655849837 121.132792492 -11 104 c 0
 8 94 31 88 60 89 c 1
 64 89 l 1
 73 85 78 77 78 64 c 0
 78 38.4422799264 66.1150220323 34 41 34 c 0
 -33.8644958696 34 -100 89.9549462167 -100 164 c 0xbf
291 398 m 1
 291 524 l 1
 104 452 l 1
 288 356 l 1
 288 396 l 1
 291 398 l 1
EndSplineSet
Validated: 33
Ligature2: "'cjct' Conjunct Forms in Bengali2 lookup 13" u0995 u09cd u09b2
EndChar

StartChar: u0995_u09cd_u09b8.cjct
Encoding: 65625 -1 105
GlifName: u0995_u09cd_u09b8.cjct
Width: 746
GlyphClass: 3
Flags: W
HStem: 38 57<156.537 262.089> 161 65<429.473 549.855> 283 64<430.85 483.245> 524 66<368 447.259> 610 63<-6 306 368 607 669 745>
VStem: 55 55<150.605 198.503> 306 62<227 502 590 610> 497 61<358.229 477.671> 607 62<24.7397 90.125 175 610>
LayerCount: 2
Fore
SplineSet
306 227 m 1
 306 502 l 1
 114 384 l 1
 306 227 l 1
465 283 m 0
 446.811963876 280.371607442 428 297.68745716 428 318 c 0
 428 333 436 343 453 347 c 0
 482 354 497 377 497 415 c 0
 497 482.93716806 438.336417405 524 368 524 c 1
 368 179 l 1
 421 210 464 226 497 226 c 0
 533 226 570 209 607 175 c 1
 607 610 l 1
 368 610 l 1
 368 590 l 1
 428 589 476 570 511 534 c 1
 525 518 l 1
 547 489 558 454 558 414 c 0
 558 348.677106582 523.211798764 291.412313326 465 283 c 0
669 46 m 2
 669 33.2736270499 649.708828552 22 631 22 c 0
 618 22 610 26 607 35 c 0
 580 119 544 161 501 161 c 0
 482 161 459 154 431 140 c 0
 419 134 391 118 346 91 c 0
 286 56 236 38 197 38 c 0
 136 38 90 79 57 162 c 0
 56 165 55 168 55 171 c 0
 55 186.576470859 70.2810833864 201 90 201 c 0
 99 201 106 197 110 190 c 0
 139 127 168 95 199 95 c 0
 223 95 258 111 306 143 c 1
 41 364 l 2
 34 370 30 378 30 388 c 0
 30 399 35 408 44 414 c 2
 306 577 l 1
 306 610 l 1
 -6 610 l 1
 -6 673 l 1
 745 673 l 1
 745 610 l 1
 669 610 l 1
 669 46 l 2
EndSplineSet
Validated: 33
Ligature2: "'cjct' Conjunct Forms in Bengali2 lookup 13" u0995 u09cd u09b8
EndChar

StartChar: bn_ka_ssa.akhn_u09cd_u09a3.cjct
Encoding: 65626 -1 106
GlifName: bn_ka_ssa.akhn_u09cd_u09a3.cjct
Width: 833
GlyphClass: 3
Flags: W
HStem: 3 46<340.375 442.597> 610 63<-10 112.066 170 338 393.971 489 546 833>
VStem: 129 59<512.776 592.257> 283 50<-85.2395 -5.56421> 289 65<282.331 405.951> 333 60<541.367 609.508> 489 62<-144.268 -41.8242 -6 60.5938 133 408 494 610> 688 64<260.143 343.868>
LayerCount: 2
Fore
SplineSet
406 610 m 1xe7
 397 600 393 590 393 580 c 0
 393 553 425 524 489 494 c 1
 489 610 l 1
 406 610 l 1xe7
489 133 m 1
 489 430 l 1
 385 477 333 526 333 578 c 0xe7
 333 588 334 599 338 610 c 1
 170 610 l 1
 182 591 188 570 188 548 c 0
 188 538 188 527 185 514 c 1
 230 508 268 490 301 460 c 0
 337 427 354 388 354 343 c 0xeb
 354 319 348 294 336 269 c 1
 489 133 l 1
289 342 m 0xeb
 289 400.153067143 236.108692745 456 177 456 c 0
 170 456 163 455 156 453 c 1
 135 420 104 392 63 368 c 1
 39.7419101051 366.631877065 25 375.415890041 25 397 c 0
 25 402 27 406 30 410 c 1
 69.7715009389 429.885750469 129 489.258957342 129 545 c 0
 129 578 109 600 69 610 c 1
 -10 610 l 1
 -10 673 l 1
 833 673 l 1
 833 610 l 1
 546 610 l 1
 546 471 l 1
 604 451 652 427 690 396 c 0
 731 363 752 330 752 297 c 0
 752 254 717 216 645 185 c 0
 630.067036305 180.520110891 614 199.057832403 614 217 c 0
 614 222 615 226 616 230 c 1
 665 251 688 275 688 300 c 0
 688 339 641 375 546 408 c 1
 547 156 l 1
 551 108 l 1
 551 -127 l 2
 551 -139 541 -145 521 -145 c 0
 500 -145 489 -138 489 -125 c 0
 489 -87 484 -61 473 -48 c 0
 444 -14 415 3 385 3 c 0
 358.468683792 3 333 -14.4406871475 333 -43 c 0
 333 -63 346 -81 369 -97 c 0
 373 -100 375 -104 375 -111 c 0
 375 -129 368 -138 356 -138 c 0
 354 -138 353 -137 350 -136 c 0
 305 -112 283 -77 283 -31 c 0xf3
 283 16.6656936147 322.05474325 49 375 49 c 0
 420 49 457 31 489 -6 c 1
 489 44 l 1
 487 45 485 46 484 47 c 2
 295 221 l 1
 270 197 239 175 202 155 c 1
 185.93273064 157.471887594 167 171.293252164 167 191 c 0
 167 197 170 202 174 206 c 0
 250 249 289 294 289 342 c 0xeb
EndSplineSet
Validated: 33
Ligature2: "'cjct' Conjunct Forms in Bengali2 lookup 13" u0995_u09cd_u09b7.akhn u09cd u09a3
EndChar

StartChar: bn_ka_ssa.akhn_u09cd_u09ae.cjct
Encoding: 65627 -1 107
GlifName: bn_ka_ssa.akhn_u09cd_u09ae.cjct
Width: 750
GlyphClass: 3
Flags: W
HStem: 39 55<428.894 488.812> 252 55<458.564 547.23> 440 50<27.8348 70.0146> 485 59<342.249 396> 505 56<166 221.06> 610 63<-10 101.443 156 269 327.001 396 458 615 677 752>
VStem: 106 60<561 602.805> 245 59<395.077 482.408> 269 58<560.998 609.766> 351 55<116.727 222.678> 396 62<314 473 544 610> 517 59<376.267 449.988> 615 62<34.7317 166.385 243 610>
LayerCount: 2
Fore
SplineSet
458 533 m 1xc638
 516.279764967 518.430058758 576 480.201963568 576 412 c 0
 576 383 562 356 534 331 c 1
 505.937845027 328.193784503 477.130091824 338.650459121 483 368 c 1
 505 381 517 396 517 413 c 0
 517 435 497 455 458 473 c 1
 458 303 l 1
 473 306 487 307 498 307 c 0
 539 307 578 286 615 243 c 1
 615 610 l 1
 458 610 l 1
 458 533 l 1xc638
479 39 m 1
 407.638678118 39 351 94.2472046491 351 168 c 0
 351 198 359 226 378 251 c 1
 258 350 l 1
 239 335 213 320 178 305 c 1
 158 312 147 324 147 341 c 0
 147 347 150 352 155 357 c 1
 215 378 245 405 245 440 c 0
 245 475.860424303 205.307231995 505 165 505 c 0
 156 505 147 504 139 501 c 1
 105 472 80 452 62 440 c 1
 39 442 26 453 26 474 c 0
 26 479 28 484 30 490 c 1
 60.1463730581 498.613249445 106 532.969837735 106 571 c 0
 106 591 92 604 63 610 c 1
 -10 610 l 1
 -10 673 l 1
 752 673 l 1
 752 610 l 1
 677 610 l 1
 677 54 l 2
 677 41 667 34 647 34 c 0
 630 34 620 39 615 47 c 1
 615 81 612 106 608 122 c 0
 598 163 581 196 557 221 c 0
 537 242 515 252 492 252 c 0
 448.735000893 252 406 215.498005346 406 171 c 0xef58
 406 132.504876977 435.536176855 94 477 94 c 0
 481 94 485 94 489 95 c 1
 496 92 500 86 500 78 c 0
 500 63 492 50 479 39 c 1
396 610 m 1xd6b8
 329 610 l 1
 328 605 327 601 327 597 c 0
 327 571 349 553 396 544 c 1
 396 610 l 1xd6b8
166 561 m 1xceb8
 231.275641177 561 304 501.438677678 304 434 c 0
 304 421 300 408 294 395 c 1
 396 314 l 1
 396 485 l 1xd738
 339 501 302 521 284 546 c 0
 271 564 266 585 269 610 c 1
 156 610 l 1
 163 599 166 582 166 561 c 1xceb8
EndSplineSet
Validated: 33
Ligature2: "'cjct' Conjunct Forms in Bengali2 lookup 13" u0995_u09cd_u09b7.akhn u09cd u09ae
EndChar

StartChar: u0997_u09cd_u0997.cjct
Encoding: 65628 -1 108
GlifName: u0997_u09cd_u0997.cjct
Width: 509
GlyphClass: 3
Flags: W
HStem: 185 49<106.261 160.879> 282 62<142.594 287.111> 610 63<127.864 298.784 432 508>
VStem: 155 63<432.651 518.667> 169 65<87.4822 179.778> 372 62<22.9944 203.528 243 540.801 601 609.182>
LayerCount: 2
Fore
SplineSet
169 131 m 0xec
 169 155.554610868 156.100837818 185 131 185 c 0
 120 185 103 177 81 160 c 1
 74 157 67 156 62 156 c 0
 47 156 39 166 36 185 c 1
 51.5420388086 278.252232852 98.6964957335 307.3861859 183 339 c 0
 192 342 202 344 214 344 c 0
 245 344 277 335 307 318 c 0
 341 298 363 274 372 243 c 1
 372 289 l 1
 370 289 l 1
 370 439 l 2
 370 512.40288937 355.489495583 548.278119122 318 580 c 0
 290 604 257 616 220 616 c 0
 185 616 145 602 102 573 c 1
 179 567 218 538 218 485 c 0
 218 450 200 415 163 382 c 0
 148 369 133 358 116 349 c 1
 97.4248112997 344.356202825 79 357.078393974 79 377 c 0
 79 382 81 388 84 394 c 1
 132 421 155 451 155 484 c 0xf4
 155 509 143 521 118 521 c 0
 103 521 86 514 68 500 c 0
 64 499 60 498 56 498 c 0
 37 498 27 507 23 526 c 1
 37.4590303942 609.139424766 113.745913672 669.157697529 213 667 c 0
 295.376709311 663.418403943 324.879064433 643.864888788 370 601 c 1
 370 635.804630296 395.355514115 673 432 673 c 2
 508 673 l 1
 508 610 l 1
 432 610 l 1
 432 382 l 1
 434 382 l 1
 434 42 l 2
 434 29 422 22 399 22 c 0
 380 22 372 28 372 39 c 2
 372 143 l 2
 372 211.247669331 292.224923183 272.456091462 229 281 c 0
 223 282 216 282 210 282 c 0
 169 282 135 265 106 230 c 1
 115 233 125 234 135 234 c 0
 198.500660151 234 234 176.278241404 234 124 c 0
 234 84.1555305419 203.384255473 35 163 35 c 0
 149.174851771 35 131 49.4926930682 131 67 c 0
 131 73 133 78 138 81 c 0
 159 94 169 111 169 131 c 0xec
EndSplineSet
Validated: 33
Ligature2: "'cjct' Conjunct Forms in Bengali2 lookup 13" u0997 u09cd u0997
EndChar

StartChar: u0997_u09cd_u09a4.cjct
Encoding: 65629 -1 109
GlifName: u0997_u09cd_u09a4.cjct
Width: 517
GlyphClass: 3
Flags: W
HStem: 20 61<199.373 382.399> 610 63<136.864 307.784 441 517>
VStem: 164 63<432.651 518.667> 246 58<187.495 270.502> 379 62<348 544.38 601 609.182> 434 62<128.954 268.981>
LayerCount: 2
Fore
SplineSet
298 81 m 0xf4
 372.741196976 81 434 118.84289222 434 199 c 0xf4
 434 246 417 275 385 289 c 1
 379 289 l 1
 379 290 l 1
 333 294 308 265 304 202 c 1
 300 191 291 186 279 186 c 0
 266 186 256 191 246 202 c 1
 241.130713295 283.15477841 290.877050854 341.287705085 368 349 c 0
 372 349 375 348 379 348 c 1
 379 439 l 2
 379 510.67429971 363.628614495 549.006556966 327 580 c 0
 299 604 266 616 229 616 c 0
 194 616 154 602 111 573 c 1
 188 567 227 538 227 485 c 0
 227 450 209 415 172 382 c 0
 157 369 142 358 125 349 c 1
 106.4248113 344.356202825 88 357.078393974 88 377 c 0
 88 382 90 388 93 394 c 1
 141 421 164 451 164 484 c 0
 164 509 152 521 127 521 c 0
 112 521 95 514 77 500 c 0
 73 499 69 498 65 498 c 0
 46 498 36 507 32 526 c 1
 46.4590303942 609.139424766 122.745913672 669.157697529 222 667 c 0
 304.376709311 663.418403943 333.879064433 643.864888788 379 601 c 1
 379 635.804630296 404.355514115 673 441 673 c 2
 517 673 l 1
 517 610 l 1
 441 610 l 1
 441 322 l 1xf8
 465 301 481 272 490 235 c 0
 494 221 496 206 496 192 c 0
 496 161 489 135 475 113 c 0
 436 51 378 20 303 20 c 0
 243 20 184 38 125 76 c 0
 66 114 24 161 -4 218 c 1
 -4 238.178933235 4.10990739899 249 24 249 c 0
 31 249 40 247 48 243 c 1
 70 195 105 156 154 126 c 0
 202 96 250 81 298 81 c 0xf4
EndSplineSet
Validated: 33
Ligature2: "'cjct' Conjunct Forms in Bengali2 lookup 13" u0997 u09cd u09a4
EndChar

StartChar: u0997_u09cd_u09a6.cjct
Encoding: 65630 -1 110
GlifName: u0997_u09cd_u09a6.cjct
Width: 648
GlyphClass: 3
Flags: W
HStem: 610 57<117.41 295.067 421 646.654>
VStem: 145 63<432.651 518.529> 359 62<289 340.016 387 544.459 601 610> 544 47<137.273 412.825>
LayerCount: 2
Fore
SplineSet
208 485 m 0
 208 450 189 415 152 382 c 0
 137 369 122 358 105 349 c 1
 87.0885930231 344.522148256 68 357.994392478 68 377 c 0
 68 382 70 388 73 394 c 1
 121 421 145 451 145 484 c 0
 145 509 132 521 107 521 c 0
 92 521 76 514 58 500 c 0
 54 499 49 498 45 498 c 0
 26 498 16 507 12 526 c 1
 26.5362945564 609.583693699 103.210758143 669.169331345 203 667 c 0
 285.630583452 663.407365937 313.88161034 643.862470177 359 601 c 1
 359 611 361 620 365 629 c 1
 365 650.679420606 374.887101605 663.269585944 394 666 c 1
 402 671 411 673 421 673 c 2
 498 673 l 1
 498 667 l 1
 647 667 l 1
 647 609 l 1
 640 609 608 610 553 611 c 1
 504 610 l 1
 421 610 l 1
 421 387 l 1
 438 408 462 431 494 456 c 0
 544 495 579.704692061 510.04921799 604 506 c 0
 621.704692061 503.04921799 631 495 630 474 c 1
 604 390 591 321 591 267 c 0
 591 208 605 148 632 87 c 1
 634 72 627.262676502 60 610 60 c 2
 591 60 l 1
 560 124 544 191 544 260 c 0
 544 313 554 372 572 440 c 1
 516 414 465 372 421 314 c 1
 421 289 l 1
 359 289 l 1
 359 439 l 2
 359 512.40288937 344.489495583 548.278119122 307 580 c 0
 279 604 246 616 209 616 c 0
 174 616 134 602 91 573 c 1
 168 567 208 538 208 485 c 0
EndSplineSet
Validated: 33
Ligature2: "'cjct' Conjunct Forms in Bengali2 lookup 13" u0997 u09cd u09a6
EndChar

StartChar: u0997_u09cd_u09a7.cjct
Encoding: 65631 -1 111
GlifName: u0997_u09cd_u09a7.cjct
Width: 625
GlyphClass: 3
Flags: W
HStem: 59 50<537 578.078> 349 57<419.54 484> 610 63<114.864 285.784 419 624>
VStem: 142 63<432.651 518.667> 356 63<143 299 394 546.202 601 609.182> 469 53<207 348.998> 469 45<188 309>
LayerCount: 2
Fore
SplineSet
356 299 m 1xf8
 241 234 l 1
 356 143 l 1
 356 299 l 1xf8
357 601 m 1
 357 635.804630296 382.355514115 673 419 673 c 2
 624 673 l 1
 624 610 l 1
 419 610 l 1
 419 394 l 1
 439 402 456 406 472 406 c 0
 496 406 512 395 518 373 c 1
 521 352 l 1
 522 326 l 1xfc
 514 190 l 1xfa
 514 141 521.739190464 112.052469623 537 111 c 2
 566 109 l 1
 574 105 579 98 579 88 c 0
 579 78 574 69 565 59 c 1
 536 57 516 58 505 64 c 0
 476 77 458.427022178 119.092570578 462 188 c 2
 469 323 l 2
 469 330 469 336 469 341 c 0xfc
 469 346 462 349 447 349 c 0
 431 349 422 346 419 339 c 1
 419 289 l 1
 418 289 l 1
 418 90 l 2
 418 74 405 66 378 66 c 0
 368 66 361 68 356 71 c 2
 180 214 l 2
 167 224 161 235 161 245 c 0
 161 252 165 258 173 263 c 2
 356 362 l 1
 356 435 l 1
 357 435 l 1
 357 439 l 2
 357 510.67429971 341.628614495 549.006556966 305 580 c 0
 277 604 244 616 207 616 c 0
 172 616 132 602 89 573 c 1
 166 567 205 538 205 485 c 0
 205 450 187 415 150 382 c 0
 135 369 120 358 103 349 c 1
 84.4248112997 344.356202825 66 357.078393974 66 377 c 0
 66 382 68 388 71 394 c 1
 119 421 142 451 142 484 c 0
 142 509 130 521 105 521 c 0
 90 521 73 514 55 500 c 0
 51 499 47 498 43 498 c 0
 24 498 14 507 10 526 c 1
 24.4590303942 609.139424766 100.745913672 669.157697529 200 667 c 0
 282.376709311 663.418403943 311.879064433 643.864888788 357 601 c 1
EndSplineSet
Validated: 33
Ligature2: "'cjct' Conjunct Forms in Bengali2 lookup 13" u0997 u09cd u09a7
EndChar

StartChar: u0997_u09cd_u09a8.cjct
Encoding: 65632 -1 112
GlifName: u0997_u09cd_u09a8.cjct
Width: 500
GlyphClass: 3
Flags: W
HStem: 44 46<165.148 212.582> 267 53<170.362 293.663> 610 63<117.41 288.459 421 498>
VStem: 78 56<120.654 232.181> 145 63<432.651 518.529> 358 63<38.8613 208.573 234 413 414 546.253 601 609.182>
LayerCount: 2
Fore
SplineSet
191 44 m 0
 142.402947004 44 78 133.918745216 78 186 c 0
 78 207 84 229 96 250 c 0
 122 297 161 320 213 320 c 0
 256 320 295 304 328 272 c 1
 344 255 l 2
 350 248 354 241 358 234 c 1
 358 413 l 1
 359 414 l 1
 359 439 l 2
 359 512.40288937 344.489495583 548.278119122 307 580 c 0
 279 604 246 616 209 616 c 0
 174 616 134 602 91 573 c 1
 168 567 208 538 208 485 c 0
 208 450 189 415 152 382 c 0
 137 369 122 358 105 349 c 1
 87.0885930231 344.522148256 68 357.994392478 68 377 c 0
 68 382 70 388 73 394 c 1
 121 421 145 451 145 484 c 0
 145 509 132 521 107 521 c 0
 92 521 76 514 58 500 c 0
 54 499 49 498 45 498 c 0
 26 498 16 507 12 526 c 1
 26.5362945564 609.583693699 103.210758143 669.169331345 203 667 c 0
 285.630583452 663.407365937 313.88161034 643.862470177 359 601 c 1
 359 635.804630296 384.355514115 673 421 673 c 2
 498 673 l 1
 498 610 l 1
 421 610 l 1
 421 289 l 1
 420 289 l 1
 420 56 l 2
 420 44 409 38 386 38 c 0
 367 38 358 44 358 56 c 0
 358 109 358 138 357 145 c 0
 353 178 343 204 326 221 c 0
 295 252 263 267 230 267 c 0
 180.986907093 267 134 226.929551606 134 175 c 0
 134 137 157 109 203 90 c 0
 210 87 213 82 213 73 c 0
 213 54 206 44 191 44 c 0
EndSplineSet
Validated: 33
Ligature2: "'cjct' Conjunct Forms in Bengali2 lookup 13" u0997 u09cd u09a8
EndChar

StartChar: u0997_u09cd_u09ae.cjct
Encoding: 65633 -1 113
GlifName: u0997_u09cd_u09ae.cjct
Width: 714
GlyphClass: 3
Flags: W
HStem: 33 58<365.191 426.268> 242 62<411 481.523> 610 63<104.864 275.784 409 573 635 711>
VStem: 132 63<432.651 518.667> 280 66<109.566 226.163> 347 62<304 544.459 601 609.182> 573 62<42.7511 160.631 192 610>
LayerCount: 2
Fore
SplineSet
409 411 m 1
 410 409 411 407 411 404 c 2
 411 304 l 1
 458 304 500 285 536 246 c 0
 551 230 563 212 573 192 c 1
 573 610 l 1
 409 610 l 1
 409 411 l 1
347 601 m 1
 347 635.804630296 372.355514115 673 409 673 c 2
 711 673 l 1
 711 610 l 1
 635 610 l 1
 635 60 l 2
 635 48 626 42 607 42 c 0
 584 42 573 48 573 61 c 2
 573 121 l 2
 573 137 556 160 521 191 c 0
 482 225 447 242 412 242 c 0
 370.401480012 242 346 212.545480451 346 166 c 0
 346 121.865955939 371.098223369 94.5751480526 414 91 c 0
 423 90 427 82 427 66 c 0
 427 43 420 32 407 33 c 0
 351.277501604 38.0656816723 328.300242347 54.3645312293 306 91 c 0
 286.295250112 123.371520359 280 157 280 186 c 0
 280 235 302 271 347 294 c 1
 347 439 l 2
 347 512.40288937 332.489495583 548.278119122 295 580 c 0
 267 604 234 616 197 616 c 0
 162 616 122 602 79 573 c 1
 156 567 195 538 195 485 c 0
 195 450 177 415 140 382 c 0
 125 369 110 358 93 349 c 1
 74.4248112997 344.356202825 56 357.078393974 56 377 c 0
 56 382 58 388 61 394 c 1
 109 421 132 451 132 484 c 0
 132 509 120 521 95 521 c 0
 80 521 63 514 45 500 c 0
 41 499 37 498 33 498 c 0
 14 498 4 507 0 526 c 1
 14.4590303942 609.139424766 90.7459136719 669.157697529 190 667 c 0
 272.376709311 663.418403943 301.879064433 643.864888788 347 601 c 1
EndSplineSet
Validated: 33
Ligature2: "'cjct' Conjunct Forms in Bengali2 lookup 13" u0997 u09cd u09ae
EndChar

StartChar: u0997_u09cd_u09b2.cjct
Encoding: 65634 -1 114
GlifName: u0997_u09cd_u09b2.cjct
Width: 516
GlyphClass: 3
Flags: W
HStem: 48 56<63.9746 163.249> 238 62<249.124 328.658> 257 56<63.0101 172.575> 610 63<134.864 305.784 439 515>
VStem: 162 63<432.651 518.667> 374 65<49.8111 175.23 224 411 414 549.776 601 609.182>
LayerCount: 2
Fore
SplineSet
-15 178 m 0xbc
 -15 247.809409191 44.5839891795 311.045256834 113 313 c 0xbc
 150 313 185 298 218 267 c 1
 237 289 257 300 278 300 c 0
 314 300 347 275 374 224 c 1
 374 411 l 1
 377 414 l 1
 377 439 l 2
 377 510.67429971 361.628614495 549.006556966 325 580 c 0
 297 604 264 616 227 616 c 0
 192 616 152 602 109 573 c 1
 186 567 225 538 225 485 c 0
 225 450 207 415 170 382 c 0
 155 369 140 358 123 349 c 1
 104.4248113 344.356202825 86 357.078393974 86 377 c 0
 86 382 88 388 91 394 c 1
 139 421 162 451 162 484 c 0
 162 509 150 521 125 521 c 0
 110 521 93 514 75 500 c 0
 71 499 67 498 63 498 c 0
 44 498 34 507 30 526 c 1
 44.4590303942 609.139424766 120.745913672 669.157697529 220 667 c 0
 302.376709311 663.418403943 331.879064433 643.864888788 377 601 c 1
 377 635.804630296 402.355514115 673 439 673 c 2
 515 673 l 1
 515 610 l 1
 439 610 l 1
 439 289 l 1
 436 289 l 1
 436 63 l 2
 436 54 425 49 404 49 c 0
 383 49 374 54 374 63 c 0
 374 128.94646776 345.157459658 238 289 238 c 0xdc
 271 238 254 226 239 202 c 0
 234 195 228 192 219 192 c 0
 209 192 200 196 192 204 c 1
 179 239 154 257 115 257 c 0
 88 257 67 246 52 223 c 0
 28.8967398108 185.679348925 38.4263987624 142.474031626 68 122 c 0
 87.3496873886 109.100208408 113.698725492 102.886162948 146 104 c 1
 149 104 l 1
 158 100 164 92 164 79 c 0
 164 53.2870811049 151.341257299 48 126 48 c 0
 51.1355041304 48 -15 103.954946217 -15 178 c 0xbc
EndSplineSet
Validated: 33
Ligature2: "'cjct' Conjunct Forms in Bengali2 lookup 13" u0997 u09cd u09b2
EndChar

StartChar: u0999_u09cd_u0995.cjct
Encoding: 65635 -1 115
GlifName: u0999_u09cd_u0995.cjct
Width: 579
GlyphClass: 3
Flags: W
HStem: 182 54<388.43 431.648> 387 59<349 413.493> 432 21G<56.5 71> 457 66<361.245 460.066> 524 60<125.508 239.721> 610 63<-12 28 108 240 308 466.5 526 575>
VStem: 29 58<434.02 505.484> 287 62<123 364> 445 59<246.611 358.334> 471 64<539.382 609.39>
LayerCount: 2
Fore
SplineSet
287 123 m 1x9f
 287 364 l 1
 126 270 l 1
 287 123 l 1x9f
411 523 m 0
 433 523 449 530 461 544 c 0
 467 551 471 560 471 568 c 0x9f40
 471 581 465 595 453 610 c 1
 308 610 l 1
 320 582 337 559 360 542 c 0
 377 529 394 523 411 523 c 0
108 610 m 1
 138 581 l 1
 147 583 157 584 167 584 c 0
 198 584 230 575 264 556 c 1
 240 610 l 1
 108 610 l 1
287 432 m 1xbf80
 274.888901548 483.472168421 231.909885372 524 168 524 c 0
 137 524 115 515 100 497 c 1
 93 485 l 2
 89 477 87 468 87 459 c 0
 87 455 87 451 88 446 c 1xdf80
 85 437 77 432 65 432 c 0
 48 432 36 439 29 452 c 1
 30 497 47 533 81 558 c 1
 28 610 l 1
 -12 610 l 1
 -12 673 l 1
 575 673 l 1
 575 610 l 1
 526 610 l 1
 532 599 535 586 535 572 c 0xbf40
 535 513.420118206 484.247625722 457 425 457 c 0
 403 457 371 471 328 498 c 1
 349 446 l 1
 436.243131492 442.644494943 504 393.675146016 504 308 c 0
 504 246.880492286 466.666194666 191.939308121 412 182 c 0
 397.344801692 177.603440508 388 191.896113647 388 210 c 0
 388 221 390 229 397 236 c 1
 425.543741294 236 445 267.65567612 445 302 c 0
 445 353.131175269 405.310810481 387 349 387 c 1xdf80
 349 57 l 2
 349 41.5404258927 328.959607128 29 307 29 c 0
 298 29 292 31 287 35 c 2
 59 252 l 2
 53 257 49 265 49 274 c 0
 49 286 53 294 62 299 c 2
 287 432 l 1xbf80
EndSplineSet
Validated: 33
Ligature2: "'cjct' Conjunct Forms in Bengali2 lookup 13" u0999 u09cd u0995
Substitution2: "'salt' Stylistic Alternatives in Bengali2 lookup 17-1" u0999_u09cd_u0995.salt
EndChar

StartChar: u0999_u09cd_u0996.cjct
Encoding: 65636 -1 116
GlifName: u0999_u09cd_u0996.cjct
Width: 800
GlyphClass: 3
Flags: W
HStem: 511 52<221.214 295.303> 610 63<-8 177 724 799> 619 54<235.028 302.997>
VStem: 18 58<485.719 583.024> 145 63<469.622 515.814> 303 55<572.777 618.626> 526 58<312.566 428.222> 662 62<112 610>
LayerCount: 2
Fore
SplineSet
247 563 m 0xbf
 265 563 280 569 292 581 c 0
 299 588 303 595 303 602 c 0
 303 609 299 614 291 619 c 1
 246.190261866 619 232.988826863 602.568715215 221 569 c 1
 229 565 238 563 247 563 c 0xbf
584 377 m 0
 584 305.75661944 538.902597538 241.278335356 482 218 c 1
 662 112 l 1
 662 610 l 2
 662 652 683 673 725 673 c 2
 799 673 l 1
 799 610 l 1
 724 610 l 1
 724 64 l 2
 724 43 710 33 682 33 c 0
 674 33 667 35 662 38 c 2
 403 197 l 1
 395 204 392 212 392 221 c 0
 392 232 396.967713063 244.075256626 411 250 c 0
 486.967713063 282.075256626 526 319 526 368 c 0
 526 387 522 407 512 429 c 1
 497 399 463 377 411 364 c 1
 393.668631925 296.407664508 332.337853538 232.902914008 248 244 c 0
 182 251 127 293 83 369 c 0
 51 425 29 491 18 567 c 1
 23 578 32 584 45 584 c 0
 56 584 67 580 76 572 c 1
 90 508 103 463 114 438 c 0
 135 389 167.07506848 346.547452064 215 313 c 0
 227.07506848 304.547452064 241 303 255 303 c 0
 305.959939402 303 356 344.123076391 356 397 c 0
 356 411 353 424 345 437 c 1
 341 440 337 441 332 441 c 0
 324 441 283 424 211 390 c 1
 166 421 145 459 145 504 c 0
 145 535 156 570 177 610 c 1
 -8 610 l 1
 -8 673 l 1xdf
 302 673 l 2
 329.390697292 673 358 628.894030036 358 599 c 0
 358 574 345 552 320 534 c 0
 299 519 277 511 255 511 c 0
 245 511 229 513 208 517 c 1
 205.311862461 496.838968459 205.473623118 477.526376882 215 468 c 1
 231 472 257 479 290 492 c 0
 321 505 341 512 351 513 c 1
 384 488 405 459 413 427 c 1
 440 431 459 450 471 484 c 0
 477 501 487 510 503 510 c 0
 510 510 516 508 520 504 c 0
 563 473 584 431 584 377 c 0
EndSplineSet
Validated: 33
Ligature2: "'cjct' Conjunct Forms in Bengali2 lookup 13" u0999 u09cd u0996
EndChar

StartChar: u0999_u09cd_u0997.cjct
Encoding: 65637 -1 117
GlifName: u0999_u09cd_u0997.cjct
Width: 578
GlyphClass: 3
Flags: W
HStem: -5 21G<467.5 480.153> 149 57<102.709 181.056> 610 63<-6 51 123 248.235 304 502 558 577>
VStem: 30 57<377.619 464.838> 266 57<343.023 465.935> 422 58<60.3271 367.939> 505 58<532.846 609.414>
LayerCount: 2
Fore
SplineSet
493 610 m 1
 304 610 l 1
 313 583 333.842413537 564.548372776 362 549 c 0
 398.477620119 528.857377466 489.575934703 504.541083028 503 556 c 0
 504 560 505 564 505 569 c 0
 505 581 501 595 493 610 c 1
177 500 m 0
 151 500 129 489 110 467 c 0
 90 444 83 419 87 390 c 1
 80 381 71 377 59 377 c 0
 46 377 37 382 30 392 c 1
 28.3940163386 462.6632811 56.5106857854 506.65334458 103 534 c 1
 51 610 l 1
 -6 610 l 1
 -6 673 l 1
 577 673 l 1
 577 610 l 1
 558 610 l 1
 561 600 563 588 563 575 c 0
 563 523 539 489 490 472 c 1
 497 465 508 455 523 443 c 1
 494 367 480 292 480 221 c 0
 480 166 490 100 511 22 c 0
 515.842824947 9.08580014204 489.306343955 -5 471 -5 c 0
 464 -5 459 -3 458 2 c 0
 434 92 422 171 422 240 c 0
 422 289 428 332 440 369 c 1
 232 197 l 2
 193 165 159 149 130 149 c 0
 97 149 68 170 43 211 c 0
 41 217 40 223 40 228 c 0
 40 244 48 252 63 252 c 0
 70 252 79 249 89 244 c 1
 107 219 124 206 140 206 c 0
 152 206 167 214 185 231 c 2
 239 281 l 1
 260 356 l 1
 264 375 266 391 266 403 c 0
 266 419 264.538823336 434.807059162 257 448 c 0
 236.538823336 483.807059162 208 500 177 500 c 0
469 470 m 1
 458 468 447 467 436 467 c 0
 378 467 328 491 285 538 c 0
 265 559 250 583 238 610 c 1
 123 610 l 1
 161 556 l 1
 209 561 249 548 280 515 c 0
 309 485 323 447 323 401 c 0
 323 381 320 362 314 342 c 1
 469 470 l 1
EndSplineSet
Validated: 33
Substitution2: "'salt' Stylistic Alternatives in Bengali2 lookup 17-1" u0999_u09cd_u0997.salt
Ligature2: "'cjct' Conjunct Forms in Bengali2 lookup 13" u0999 u09cd u0997
EndChar

StartChar: u099a_u09cd_u099b.cjct
Encoding: 65638 -1 118
GlifName: u099a_u09cd_u099b.cjct
Width: 851
GlyphClass: 3
Flags: W
HStem: 94 56<402.327 535.537> 195 55<103.478 189.778> 250 49<400.217 484.331> 610 63<-6 40 102 338 400 850>
VStem: 40 62<255.374 522 576.353 610> 293 107<389.121 468.625> 338 62<300.324 388 505 522 575.59 610> 721 53<315.213 449.031>
LayerCount: 2
Fore
SplineSet
400 522 m 1xbb
 400 324 l 2
 400 307 408 299 424 299 c 0
 451 299 486 317 529 353 c 0
 587.117970904 401.059091325 607.204085865 437.836731308 572 466 c 1
 558 474 l 1
 546 479 530 483 511 486 c 0
 454 495 417 507 400 522 c 1xbb
293 441 m 1xdd
 290 463 264 478 215 485 c 0
 156 494 119 507 102 522 c 1
 102 274 l 1
 111 258 124 250 139 250 c 0
 169 250 203 276 242 327 c 0
 278 375 295 412 293 439 c 1
 293 441 l 1xdd
620 542 m 1
 711.832376927 535.877841538 774 486.175523828 774 389 c 0
 774 335 754 283 716 232 c 0
 695 204 671 182 646 165 c 0
 627 154 603 143 572 134 c 1
 650 130 730 107 813 66 c 0
 843 51 870 36 894 19 c 1
 898 10 900 3 900 -4 c 0
 900 -21 889 -29 866 -28 c 1
 862 -28 l 1
 741.625227414 55.738972234 611.605663321 84.2197168339 416 94 c 1
 406 102 401 114 401 127 c 0
 401 138 405 145 414 150 c 1
 466 156 502 161 520 166 c 0
 555 175 585.885151675 193.497500661 614 214 c 0
 658.484412128 246.439855969 721 321.490370506 721 391 c 0
 721 436 695 466 643 480 c 1
 644 472 645 464 645 456 c 0
 645 401 618 352 564 309 c 0
 515 270 464 250 414 250 c 0xbb
 363 250 338 273 338 318 c 2
 338 388 l 1
 327 351 306 314 275 279 c 0
 226 223 179 195 131 195 c 0
 80 195 40 231.344928413 40 308 c 2
 40 610 l 1
 -6 610 l 1
 -6 673 l 1
 388 673 l 1
 388 672 l 1
 392 673 396 673 400 673 c 2
 850 673 l 1
 850 610 l 1
 400 610 l 1xdb
 400 585 426 565 479 552 c 0
 513 544 547 539 582 539 c 0
 598 539 611 540 620 542 c 1
338 610 m 1
 102 610 l 1
 102 554.122628763 237.226305811 533.201835289 306 538 c 0
 311 540 319 534 330 519 c 1
 338 505 l 1
 338 610 l 1
EndSplineSet
Validated: 33
Ligature2: "'cjct' Conjunct Forms in Bengali2 lookup 13" u099a u09cd u099b
EndChar

StartChar: u099a_u09cd_u099e.cjct
Encoding: 65639 -1 119
GlifName: u099a_u09cd_u099e.cjct
Width: 633
GlyphClass: 3
Flags: W
HStem: -30 54<537.046 626.594> -15 21G<400 477> 3 59<130.834 279.744> 26 58<201.851 387.702> 127 55<527.532 597.127> 215 53<104.732 197.375> 284 64<313.395 414.909> 294 60<520.171 612.062> 610 63<-6 40 102 633>
VStem: 40 62<91.176 201.461 272.8 522 577.521 610> 212 61<139.925 245.096> 295 55<376.194 467.779> 415 62<106.172 241.712> 618 59<202.513 286.547> 631 56<27.9986 105.17>
LayerCount: 2
Fore
SplineSet
631 62 m 0x2cfa
 631 98.3529660095 591.13725948 127 551 127 c 1
 535 131 527 140 527 154 c 0
 527 167 533 176 545 182 c 1
 581.416032882 184.801233299 618 208.541448558 618 248 c 0
 618 279 598 294 557 294 c 1
 531 288 510 268 495 234 c 0
 482 206 476 179 477 153 c 1
 477 150 l 1
 502 97 521 64 532 51 c 0
 544 35 561.953722792 24.4159674945 584 24 c 0x8dfc
 614.953722792 23.4159674945 631 38 631 62 c 0x2cfa
295 441 m 0
 292 462 266 477 217 485 c 0
 157 494 119 506 102 522 c 1
 102 294 l 1
 112 277 125 268 142 268 c 0
 173 268 207 290 244 335 c 0
 280 378 297 412 295 438 c 0
 295 439 295 440 295 441 c 0
102 610 m 1
 102 556.438534858 237.832952761 534.896807274 303 538 c 1
 307 538 l 1
 310 539 314 537 319 532 c 2
 327 523 l 2
 342 505 350 481 350 452 c 0
 350 415 331 370 292 318 c 1
 335 336 367 345 390 348 c 0x1efa
 422 352 445 347 461 332 c 1
 469 323 l 2
 475 315 477 304 477 292 c 1
 510 333 543 354 577 354 c 0
 628.216137162 354 677 293.897401316 677 243 c 0x0dfc
 677 212 662 184 632 159 c 1
 669 132 687 100 687 63 c 0
 687 20 663 -11 616 -30 c 1x8dfa
 595 -32 577 -30 561 -26 c 1
 542 -19 l 1
 520.679176831 -8.33958841532 501.931407677 7.73269533588 477 37 c 1
 477 -15 l 1
 415 -15 l 1
 385 12 348 26 303 26 c 0x5cfa
 286 26 269.608215979 24.9931142477 255 19 c 0
 230.608215979 8.99311424769 208 3 185 3 c 0
 101.362730293 3 46 81.0296957723 46 168 c 0
 46 180 47 192 49 204 c 1
 60 214 71 219 80 219 c 0
 89 219 98 213 106 200 c 1
 104 189 103 179 103 168 c 0
 103 109.152130348 127.464728644 62 184 62 c 0x2cfa
 202 62 222 67 245 78 c 1
 261 82 277 84 294 84 c 0
 336 84 376 73 415 51 c 1
 415 270 l 2
 415 279 405 284 384 284 c 0x1efa
 338.170702353 284 273 251.69104614 273 207 c 0
 273 193 278 178 288 161 c 1
 290.961400103 143.231599379 276.865841357 127 257 127 c 0
 249 127 242 130 236 136 c 1
 220 165 212 191 212 214 c 0
 212 225 214 236 217 246 c 1
 187 225 159 215 132 215 c 0
 81 215 40 251.344928413 40 328 c 2
 40 610 l 1
 -6 610 l 1
 -6 673 l 1
 633 673 l 1
 633 610 l 1
 102 610 l 1
EndSplineSet
Validated: 33
Ligature2: "'cjct' Conjunct Forms in Bengali2 lookup 13" u099a u09cd u099e
EndChar

StartChar: u099c_u09cd_u099c.cjct
Encoding: 65640 -1 120
GlifName: u099c_u09cd_u099c.cjct
Width: 1117
GlyphClass: 3
Flags: W
HStem: 34 60<636.196 795.8> 75 59<264.593 415.661> 394 45<946.068 1021> 610 63<-11 236 454 1116>
VStem: 167 60<386.892 536.315> 476 61<201.258 319.924> 521 68<338.561 449.121> 856 55<150.5 276.443> 952 57<69.6848 289.317> 984 59<7.51651 90.4978>
LayerCount: 2
Fore
SplineSet
742 94 m 1xbd
 798.457536145 105.291507229 856 149.263036914 856 216 c 0
 856 252 838 282 803 306 c 1
 791 302 763 292 719 274 c 0
 685 259 657 252 635 252 c 1
 559 295 521 341 521 390 c 0xbb
 521 417 532 448 554 482 c 1
 359 611 l 1
 290.622241923 595.098195796 227 541.860180877 227 461 c 0
 227 422 243 386 275 353 c 1
 411 407 l 1
 450.523020611 410.593001874 479.886637399 382.817816801 500 356 c 0
 525 322 537 286 537 249 c 0
 537 234 534 222 529 211 c 1
 585 131 654 92 738 94 c 1
 742 94 l 1xbd
809 366 m 1
 866.872535331 350.680799471 911 291.19531679 911 216 c 0
 911 166 892 122 855 87 c 0
 820 55 779 38 730 35 c 0
 726 35 721 34 717 34 c 0xbb80
 635 34 563 74 501 152 c 1
 454 101 403 75 348 75 c 0
 336 75 324 76 312 78 c 0
 167 103 68 251 15 522 c 1
 20 537 30 545 47 545 c 0
 58 545 67 540 74 529 c 1
 83 446 109 364 152 284 c 0
 206 184 268 134 340 134 c 0
 408.492666084 134 476 184.068851293 476 257 c 0
 476 296 458 326 422 347 c 1
 409 345 385 336 350 319 c 0
 315 302 289 294 272 294 c 0
 260 294 249 297 240 304 c 0
 191 348 167 399 167 457 c 0
 167 514 190 565 236 610 c 1
 -11 610 l 1
 -11 673 l 1
 1116 673 l 1
 1116 610 l 1
 454 610 l 1
 588 522 l 1
 637 555 660 572 658 572 c 0
 656 572 666 567 689 557 c 0
 701 552 716 545 734 538 c 0
 890 472 1003 439 1072 439 c 1
 1085 432 1092 422 1092 406 c 0
 1092 401 1091 397 1090 392 c 0
 1036 320 1009 251 1009 185 c 0x7d80
 1009 146 1020 97 1041 39 c 0
 1042 36 1043 33 1043 29 c 0
 1043 14 1033 7 1013 7 c 0
 998 7 988 12 984 22 c 0x7940
 963 75 952 126 952 176 c 0x7980
 952 250 975 322 1021 394 c 1
 995 395 910 424 768 480 c 1
 683 515 l 2
 669.94456323 519.351812257 642.112020347 488.640025434 632 476 c 0
 603 445 589 415 589 388 c 0
 589 355 610 330 653 313 c 1
 661 316 686 326 729 343 c 0
 760 356 787 363 809 366 c 1
EndSplineSet
Validated: 37
LCarets2: 2 0 0
Ligature2: "'cjct' Conjunct Forms in Bengali2 lookup 13" u099c u09cd u099c
EndChar

StartChar: u099c_u09cd_u099d.cjct
Encoding: 65641 -1 121
GlifName: u099c_u09cd_u099d.cjct
Width: 751
GlyphClass: 3
Flags: W
HStem: 191 52<222.436 339.375> 610 63<-11 216 434 608 670 751>
VStem: 30 55<436.884 557.257> 162 61<435.377 542.149> 412 49<297.657 402.41> 488 62<179 233 308 495> 608 62<137 610>
LayerCount: 2
Fore
SplineSet
488 233 m 1
 408 190 l 1
 488 121 l 1
 488 233 l 1
608 137 m 1
 608 610 l 1
 434 610 l 1
 526 542 l 2
 542 530 550 518 550 506 c 2
 550 179 l 1
 608 137 l 1
245 435 m 1
 296 452 335 467 362 478 c 1
 378.259776414 479.625977641 390.176508335 474.823491665 399 466 c 0
 423 443 441 423 449 405 c 0
 457 388 461 369 461 349 c 0
 461 327 456 307 446 289 c 1
 488 308 l 1
 488 495 l 1
 330 612 l 1
 306 608 283 593 261 566 c 0
 237 535 224 506 223 477 c 0
 223 457 230 443 245 435 c 1
550 55 m 2
 550 41.8012691913 527.292075405 31 508 31 c 0
 500 31 493 33 488 37 c 2
 337 173 l 1
 339 195 l 1
 324 192 310 191 297 191 c 0
 216 191 151 233 101 318 c 0
 66 378 42 452 30 540 c 1
 34 552 42 558 55 558 c 0
 65 558 75 555 85 549 c 1
 89 473 111 404 152 341 c 0
 194 276 240 243 291 243 c 0
 318 243 344 253 369 274 c 0
 396 299 411 325 412 352 c 0
 412 377 399 399 372 418 c 1
 372 418 271.247671467 378.388371437 247 373 c 0
 232 373 212 384 188 405 c 1
 171 432 162 459 162 486 c 0
 162 525 180 567 216 610 c 1
 -11 610 l 1
 -11 673 l 1
 751 673 l 1
 751 610 l 1
 670 610 l 1
 670 78 l 2
 670 65.7489225079 648.452194255 56 628 56 c 0
 620 56 613 58 608 62 c 2
 550 110 l 1
 550 55 l 2
EndSplineSet
Validated: 33
Ligature2: "'cjct' Conjunct Forms in Bengali2 lookup 13" u099c u09cd u099d
EndChar

StartChar: u099e_u09cd_u099a.cjct
Encoding: 65642 -1 122
GlifName: u099e_u09cd_u099a.cjct
Width: 761
GlyphClass: 3
Flags: W
HStem: 143 60<583.107 670.138> 320 59<580.639 649.392> 410 21G<74.5 84.5> 503 62<565.849 668.856> 604 50<124.306 284.592>
VStem: 30 61<444.148 570.346> 370 62<119 463 590 676.561> 677 68<405.815 493.712> 689 67<210.632 292.194>
LayerCount: 2
Fore
SplineSet
370 463 m 1xfe
 138 321 l 1
 370 119 l 1
 370 463 l 1xfe
30 512 m 0
 30 587.6389112 88.224051081 654 179 654 c 0
 236 654 300 633 370 590 c 1
 370 659 l 2
 370 671 380 677 401 677 c 0
 422 677 432 671 432 659 c 2
 432 53 l 2
 432 37 418 30 389 30 c 0
 380 30 373 31 370 35 c 2
 67 304 l 2
 61 309 58 317 58 327 c 0
 58 338 62 346 70 351 c 2
 370 530 l 1
 313 579 256 604 199 604 c 0
 138.719384546 604 91 573.062274642 91 512 c 0
 91 487 99 464 115 441 c 1
 105 420 92 410 77 410 c 0
 72 410 67 411 62 414 c 1
 41 446 30 478 30 512 c 0
621 565 m 0
 682.096984424 563.83021554 745 512.820703364 745 447 c 0xff
 745 412 727 380 693 352 c 1
 735 325 756 288 756 243 c 0xfe80
 756 193 728 160 673 145 c 0
 665 144 656 143 647 143 c 0
 563 143 492 205 433 330 c 1
 433 385 l 1
 457 436 478 473 496 495 c 0
 532 539 573.040599243 565.918247639 621 565 c 0
689 251 m 0xfe80
 689 286.356420884 642.701505905 320 603 320 c 1
 587 329 579 339 579 350 c 0
 579 361 586 371 599 379 c 1
 636.655949627 383.518713955 677 410.841705362 677 454 c 0xff
 677 487 655 503 612 503 c 0
 587 503 562 485 538 448 c 0
 532 439 514 409 487 358 c 1
 504 315 527 278 556 248 c 0
 585 218 615 203 644 203 c 0
 649 203 654 204 660 205 c 0
 680 218 689 233 689 251 c 0xfe80
EndSplineSet
Validated: 33
Substitution2: "'salt' Stylistic Alternatives in Bengali2 lookup 17-1" u099e_u09cd_u099a.salt
Ligature2: "'cjct' Conjunct Forms in Bengali2 lookup 13" u099e u09cd u099a
EndChar

StartChar: u099e_u09cd_u099b.cjct
Encoding: 65643 -1 123
GlifName: u099e_u09cd_u099b.cjct
Width: 590
GlyphClass: 3
Flags: W
HStem: 91 58<190.381 239.577> 229 61<109.272 244.814> 447 21G<91.5 102.34> 457 67<431.672 493.58> 607 59<404.503 501>
VStem: 30 251<304.278 436.5> 42 60<493.772 590.41> 369 61<186.277 269.59> 504 65<380.807 445.515> 504 55<534.635 601.245>
LayerCount: 2
Fore
SplineSet
227 414 m 1xc9
 225 414 l 1
 187 389 142 365 90 340 c 1
 104 307 132 290 175 290 c 0
 221 290 249 305 260 335 c 1
 241 358 230 384 227 414 c 1xc9
504 410 m 0xd980
 504 431.666863821 479.870923138 454.016134608 456 457 c 0
 439 461 430 472 430 492 c 0
 430 505 436 516 449 524 c 1
 475.480323946 526.648032395 504 541.046733229 504 571 c 0xd940
 504 594 486 606 451 607 c 0
 437 606 416 595 388 574 c 0
 360 553 342 535 334 519 c 1
 353 466 376 427 404 401 c 0
 426 380 449 372 472 375 c 1
 493 383 504 395 504 410 c 0xd980
569 415 m 0xe980
 569 362.16755177 520.497178107 316 465 316 c 0
 393 316 335 366 292 465 c 1
 285 454 281 442 281 431 c 0
 281 411 291 391 312 369 c 0
 323 357 344 340 373 318 c 0
 397 300 410 288 413 281 c 0
 424 263 430 244 430 224 c 0
 430 189 414 158 382 131 c 0
 370 121 356 113 342 107 c 1
 448.921962811 55.9690632037 470.700004705 38.0689622722 581 -38 c 0
 590 -46 595 -56 595 -67 c 0
 595 -85 586 -94 568 -94 c 0
 562 -94 556 -93 549 -89 c 0
 461 -30 406 6 383 19 c 0
 324 52 263 76 201 91 c 1
 192 97 188 104 188 114 c 0
 188 129 196 141 211 149 c 1
 221 148 231 147 240 147 c 0
 293.957477699 147 369 178.660794379 369 230 c 0
 369 253 349 274 309 295 c 1
 272 251 229 229 180 229 c 0
 112.655665288 229 30 272.555826021 30 336 c 0xed80
 30 347 33 359 39 371 c 1
 47 381 75 399 122 424 c 0
 177 455 214 478 235 493 c 0
 275 523 292 550 284 573 c 0
 273.215053162 602.658603806 233.445599826 612.394933353 192 617 c 0
 144.420915482 622.286564946 102 583.153974712 102 535 c 0
 102 513 111 498 129 491 c 1
 130 488 131 486 131 483 c 0
 131 468.385560359 111.679769003 447 93 447 c 0
 90 447 86 448 83 450 c 0
 56 471 42 498 42 532 c 0
 42 565 54 597 77 626 c 0
 101 656 129 672 160 675 c 0
 163 675 165 676 168 676 c 0
 216 676 256 666 288 647 c 0
 295 643 310 630 334 607 c 1
 379 646 421 666 458 666 c 0
 511.864653315 666 559 622.341339205 559 566 c 0xeb40
 559 536 547 512 524 493 c 1
 554 472 569 446 569 415 c 0xe980
EndSplineSet
Validated: 33
Ligature2: "'cjct' Conjunct Forms in Bengali2 lookup 13" u099e u09cd u099b
EndChar

StartChar: u099e_u09cd_u099c.cjct
Encoding: 65644 -1 124
GlifName: u099e_u09cd_u099c.cjct
Width: 677
GlyphClass: 3
Flags: W
HStem: 38 57<244.285 375.43> 424 21G<127.5 138.318> 616 59<188.365 344.98>
VStem: 20 57<369.662 485.859> 92 57<441.468 577.971> 172 58<294.982 369.314> 411 58<131.656 280.891> 498 59<34.3796 270.332> 604 59<367.405 434.415 537.633 608.167>
LayerCount: 2
Fore
SplineSet
547 357 m 0
 582.144319133 357 604 382.605582387 604 400 c 0
 604 425 581 443 534 452 c 0
 521 453 515 462 515 477 c 0
 515 492 521 503 532 508 c 1
 562 515 584 527 598 545 c 0
 605 554 608 565 608 575 c 0
 608 625.589760441 513.03273168 620.364903485 474 600 c 0
 462 594 451 586 441 577 c 0
 413.294768983 551.4259406 404.347902615 533.762556254 408 513 c 0
 420.045811846 444.518297648 473.591702071 357 547 357 c 0
167 450 m 1
 165.589478156 438.715825249 146.63640654 424 130 424 c 0
 125 424 120 425 115 429 c 1
 100 460 92 490 92 520 c 0
 92 617.592291326 169.722786874 675 273 675 c 0
 327 675 369 655 398 617 c 1
 445 659 497 678 554 673 c 0
 589 670 617 656 638 632 c 1
 648 618 l 1
 657 602 662 585 662 567 c 0
 662 533 647 505 616 482 c 1
 647 461 663 433 663 398 c 0
 663 361 646 333 612 313 c 0
 569.444049631 283.210834742 557 212.61851141 557 139 c 0
 557 89 575 30 612 -37 c 1
 606 -51 591 -58 567 -58 c 0
 564 -58 562 -58 559 -57 c 1
 518 16 498 80 498 137 c 0
 498 185 507 239 528 299 c 1
 431.702641198 327.322752589 393.742283561 371.801505653 359 463 c 1
 352 452 327 430 284 398 c 0
 249 371 230 348 230 329 c 0
 230 318 237 306 248 294 c 1
 257 297 279 309 316 330 c 0
 343 345 368 353 388 353 c 0
 393 353 398 352 404 351 c 1
 447 315 469 267 469 207 c 0
 469 112.716164419 405.204876236 34.0747968235 311 38 c 0
 309 38 308 38 306 38 c 0
 205.068653911 54.5160384509 165.55158652 89.1174615681 120 162 c 0
 58.6212471453 259.35940108 44.4649820739 318.248856063 20 463 c 1
 25 480 33 488 45 488 c 0
 54 488 66 482 77 472 c 1
 97 371 113 305 126 274 c 0
 153 208 188 159 228 128 c 0
 255 106 283 95 312 95 c 0
 374.639699454 95 411 138.063540511 411 206 c 0
 411 243 399 273 378 295 c 1
 365 290 342 278 309 258 c 0
 283 242 263 234 249 234 c 0
 220 234 197 262 178 317 c 0
 174 326 172 335 172 344 c 0
 172 370 194 399 238 433 c 0
 316 493 355 538 355 568 c 0
 355 586 343.616610689 601.985289543 319 610 c 0
 300.616610689 615.985289543 284 616 267 616 c 0
 221 616 188 602 167 574 c 1
 158 560 l 1
 152 543 l 2
 150 535 149 526 149 517 c 0
 149 495 156 472 167 450 c 1
EndSplineSet
Validated: 33
Ligature2: "'cjct' Conjunct Forms in Bengali2 lookup 13" u099e u09cd u099c
EndChar

StartChar: u099e_u09cd_u099d.pres
Encoding: 65645 -1 125
GlifName: u099e_u09cd_u099d.pres
Width: 687
GlyphClass: 3
Flags: W
HStem: 305 59<115.509 270.374> 328 58<185.074 371.702> 429 55<534.532 604.67> 596 60<523.259 619.03> 616 55<297.144 395.601>
VStem: 31 57<391.112 518.629> 197 61<482.994 581.881> 399 62<119 169 411.596 523.1 594 613.175> 563 62<162 280.36> 625 59<504.798 588.628> 637 58<330.158 407.485>
LayerCount: 2
Fore
SplineSet
399 119 m 1x27
 399 225 l 1
 310 184 l 1
 399 119 l 1x27
637 364 m 0xb720
 637 400.620679331 598.384783767 429 557 429 c 1
 542 433 534 442 534 456 c 0
 534 469 540 478 552 484 c 1
 588.416032882 486.801233299 625 510.541448558 625 550 c 0xb740
 625 581 605 596 564 596 c 1
 537 590 512 570 490 536 c 0
 470 505 461 477 461 452 c 1
 484 404 506 372 527 353 c 0
 545 337 565.95923007 326.429299463 590 326 c 0
 621.95923007 325.429299463 637 340 637 364 c 0xb720
170 305 m 0
 84.7864899466 305 31 378.919059601 31 469 c 0
 31 481 32 494 34 506 c 1
 45 516 55 521 64 521 c 0
 74 521 83 515 91 502 c 1
 89 491 88 480 88 470 c 0
 88 410.430941546 112.464728644 364 169 364 c 0xa780
 187 364 207 369 230 380 c 1
 246 384 262 386 278 386 c 0
 320 386 360 375 399 353 c 1
 399 572 l 2
 399 602 386 616 361 616 c 0
 347 616 331 612 313 603 c 0
 276 586 258 564 258 539 c 0
 258 526 263 510 273 493 c 1
 275 481 270 471 260 464 c 1
 250 460 l 2
 247 459 245 459 242 459 c 0
 234 459 227 462 221 468 c 1
 205 498 197 524 197 548 c 0
 197 564 200 579 207 592 c 0
 240 645 293 671 364 671 c 0x6f80
 403 671 430 659 447 637 c 1
 455 625 l 1
 459 616 461 605 461 594 c 1
 493 635 530 656 574 656 c 0
 611 656 642 638 665 603 c 0
 678 584 684 565 684 546 c 0x3740
 684 515 669 486 638 461 c 1
 676 434 695 401 695 364 c 0
 695 321 672 290 625 272 c 1xb7a0
 625 111 l 2xb740
 625 96 615 89 594 89 c 0
 581 89 571 91 563 97 c 2
 461 169 l 1
 461 60 l 2
 461 43 448 35 422 35 c 0
 412 35 405 37 399 41 c 2
 234 168 l 2
 226 174 222 181 222 190 c 0
 222 201 228 210 241 216 c 2
 399 287 l 1
 369 314 332 328 287 328 c 0x6780
 245.074602451 328 206.301094062 305 170 305 c 0
563 272 m 1
 520 287 486 309 461 339 c 1
 461 233 l 1
 563 162 l 1
 563 272 l 1
EndSplineSet
Validated: 33
Ligature2: "'cjct' Conjunct Forms in Bengali2 lookup 13" u099e u09cd u099d
EndChar

StartChar: u099f_u09cd_u099f.cjct
Encoding: 65646 -1 126
GlifName: u099f_u09cd_u099f.cjct
Width: 525
GlyphClass: 3
Flags: W
HStem: 40 55<213.473 376.527> 173 58<230.656 306.671> 610 63<-6 142 204 405 464 526> 737 60<88.5531 282> 888 20G<9.5 21.5>
VStem: -7 52<840.369 907.562> 29 55<237.851 310.543> 142 62<244.795 610> 392 59<332.521 451.935> 400 57<117.89 213.24> 405 59<673 718.163>
LayerCount: 2
Fore
SplineSet
457 160 m 0xf940
 457 78.4887462414 384.329391794 40 294 40 c 0
 203 42 131 85 79 172 c 0
 58 206 42 245 29 289 c 0
 24.2786688283 303.163993515 48.593680585 313 68 313 c 0
 77 313 83 311 84 306 c 0
 98 257 110 223 121 204 c 0
 153.9623945 147.493038 216.387625892 95 302 95 c 0
 339 95 367 104 385 123 c 0
 395 133 400 146 400 161 c 0xfb40
 400 182 388 205 365 229 c 1
 323 188 285 169 250 172 c 0
 248 172 247 173 245 173 c 0
 176 193 142 235 142 297 c 2
 142 610 l 1
 -6 610 l 1
 -6 673 l 1
 405 673 l 1
 409 702 393 721 359 729 c 1
 332 733 l 1
 282 736 l 1
 263 737 l 1
 203 738 161 741 137 745 c 0
 38.1418999815 760.507152944 3.34101224328 792.658080016 -7 894 c 1
 -5 903 3 908 16 908 c 0
 27 908 37 905 45 899 c 1
 56.8132042742 812.369835323 106.864124266 797 212 797 c 2
 253 797 l 1
 324 794 374 786 403 773 c 0
 442.694996458 756.205963037 464 726.048839824 464 673 c 1xfd20
 526 673 l 1
 526 610 l 1
 204 610 l 1
 204 294 l 2
 204 271 213 253 230 241 c 0
 244 232 257.438140443 226.743728238 268 231 c 0
 324.438140443 253.743728238 364 302 387 373 c 0
 390 386 392 398 392 406 c 0
 392 421 387 434 378 444 c 0
 372 451 358 463 336 480 c 0
 333 483 332 487 332 491 c 0
 332 506.996229969 352.87566438 524 373 524 c 1
 425 487 451 447 451 407 c 0xf980
 451 376 435 331 403 272 c 1
 439 240 457 203 457 160 c 0xf940
EndSplineSet
Validated: 33
LCarets2: 2 0 0
Ligature2: "'cjct' Conjunct Forms in Bengali2 lookup 13" u099f u09cd u099f
EndChar

StartChar: u09a1_u09cd_u09a1.cjct
Encoding: 65647 -1 127
GlifName: u09a1_u09cd_u09a1.cjct
Width: 1159
GlyphClass: 3
Flags: W
HStem: 35 59<760.008 928.489> 153 56<277.849 421.479> 610 63<-12 229 292 712 774 1156>
VStem: 16 49<483.58 558.945> 229 63<402.08 610> 712 62<335.076 610> 1023 59<191.974 379.04>
LayerCount: 2
Fore
SplineSet
488 391 m 1
 481 408 476 426 470 444 c 0
 466 451 461 458 455 465 c 1
 420 426 397 401 385 391 c 0
 355 366 324.777338415 350.183224745 295 353 c 0
 250.777338415 357.183224745 229 389 229 441 c 2
 229 610 l 1
 -12 610 l 1
 -12 673 l 1
 1156 673 l 1
 1156 610 l 1
 774 610 l 1
 774 353 l 1
 779 340 787 333 798 333 c 0
 816 333 840 347 869 376 c 0
 895 402 920 433 945 470 c 0
 949 477 956 480 965 480 c 0
 979 480 992 474 1003 463 c 0
 1055 414 1082 358 1082 296 c 0
 1082 264 1078.74088732 227.467700189 1062 190 c 0
 1015.74088732 86.4677001895 943 36 857 35 c 0
 790 34 726 59 664 109 c 0
 600.446314944 158.65131645 565.085712033 218.768258599 528 295 c 1
 522 274 513 255 502 237 c 0
 469 181 425 153 366 153 c 0
 188.506878662 153 66.6647704376 361.270383439 16 522 c 0
 9.57388543621 538.065286409 9.18739456184 549.161414401 28 557 c 0
 33 559 37 559 42 559 c 0
 51 559 59 556 65 550 c 1
 85 467 122 390 177 320 c 0
 236 246 295 209 352 209 c 0
 387 209 418 223 445 251 c 0
 475 282 490 320 490 366 c 0
 490 374 489 383 488 391 c 1
458 521 m 0
 459 521 460 521 460 521 c 1
 466 527 473 530 482 530 c 0
 492 530 500 526 507 519 c 1
 515 496 l 2
 516 493 518 491 520 489 c 0
 533 476 540 452 542 418 c 1
 564 358 586.049453291 314.07423748 603 281 c 0
 627.049453291 234.07423748 656 191 697 156 c 0
 746 115 797 94 849 94 c 0
 904 94 949 119 986 168 c 0
 1011 201 1023 240 1023 285 c 0
 1023 335 1009 377 979 412 c 1
 934 361 905 330 892 319 c 0
 855 288 816.75740554 268.862172698 780 272 c 0
 734.75740554 275.862172698 712 316 712 382 c 2
 712 610 l 1
 292 610 l 1
 292 417 l 1
 296 406 302 401 311 401 c 0
 325 401 344 413 367 436 c 0
 388 457 408 481 428 511 c 1
 438 518 447 521 458 521 c 0
EndSplineSet
Validated: 33
Ligature2: "'cjct' Conjunct Forms in Bengali2 lookup 13" u09a1 u09cd u09a1
EndChar

StartChar: u09a3_u09cd_u099f.cjct
Encoding: 65648 -1 128
GlifName: u09a3_u09cd_u099f.cjct
Width: 759
GlyphClass: 3
Flags: W
HStem: 28 59<431.81 516.264> 342 52<138.047 185.675> 432 20G<585.5 627> 610 63<413 658 718 760> 619 57<132.704 282.775> 774 57<274.446 619.994>
VStem: 30 62<443.303 578.047> 159 59<879.127 985.094> 351 62<103.042 547.555> 625 60<237.312 373.998> 658 60<673 739.484>
LayerCount: 2
Fore
SplineSet
351 461 m 2xf7c0
 351 551.413011784 295.641880368 619 205 619 c 0
 189 619 172.144642358 619.067499767 157 612 c 0
 112.144642358 591.067499767 92 555 92 510 c 0
 92 455.042318753 131.373674213 406.796401523 180 394 c 1
 185 386 187 379 187 372 c 0
 187 359 178 349 160 342 c 1
 92.2735914438 358.47399127 30 423.423903146 30 506 c 0
 30 535 38 562 54 588 c 0
 90 647 140 676 203 676 c 0xefc0
 258 676 307 654 351 610 c 1
 351 642.096328742 378.207509255 673 413 673 c 2
 658 673 l 1
 664.585778745 753.675789624 597.162524721 774 508 774 c 0
 488 774 444.769689154 764.997431629 380 768 c 0
 293.769689154 771.997431629 234 802 200 837 c 0
 169 869 155 914 159 973 c 1
 166 981 176 986 188 986 c 0
 199 986 210 981 218 973 c 1
 208 905 236 861 303 841 c 0
 333 832 373 828 423 828 c 1
 558 831 l 1
 655.283351657 829.430913683 715.233409439 772.597260197 718 673 c 1xf7a0
 760 673 l 1
 760 610 l 1
 413 610 l 1
 413 165 l 1
 420 113 439 87 468 87 c 0
 492 87 516 103 540 135 c 0
 597 212 625 271 625 313 c 0
 625 351 604 384 563 412 c 1
 561 417 560 421 560 426 c 0
 560 444 573 452 598 452 c 1
 656 423 685 376 685 311 c 0
 685 255 665 199 625 143 c 0
 585 87 539 50 488 32 c 0
 480 29 472 28 464 28 c 0
 406.527605436 28 351 94.5306608376 351 152 c 2
 351 461 l 2xf7c0
EndSplineSet
Validated: 33
Ligature2: "'cjct' Conjunct Forms in Bengali2 lookup 13" u09a3 u09cd u099f
EndChar

StartChar: u09a3_u09cd_u09a0.cjct
Encoding: 65649 -1 129
GlifName: u09a3_u09cd_u09a0.cjct
Width: 621
GlyphClass: 3
Flags: W
HStem: 36 60<246.483 386.632> 353 56<119.434 173.323> 610 63<417 620> 998 56<242.474 306.281>
VStem: 34 55<439.452 577.743> 133 61<156.432 252.713> 173 60<865.761 986.899> 485 60<201.846 420.351>
LayerCount: 2
Fore
SplineSet
194 244 m 1xfd
 195.557871625 164.548547126 234.976684425 96 314 96 c 0
 350 96 385 111 419 142 c 0
 463 181 485 234 485 299 c 0
 485 387 453 471 387 551 c 1
 393 453 367 375 308 317 c 0
 278 288 240 263 194 244 c 1xfd
149 353 m 1
 83.0136357885 369.094235174 34 426.050424159 34 509 c 0
 34 606.895058589 107.144889662 683 205 683 c 0
 246 683 281 672 308 650 c 1
 226 791 l 1
 191 857 173 910 173 951 c 0
 173 1010 210 1044 282 1054 c 1
 299 1051 307 1041 307 1024 c 0
 307 1015 303 1006 297 998 c 1
 254 997 233 979 233 944 c 0xfb
 233 908 258 848 307 765 c 2
 362 673 l 1
 620 673 l 1
 620 610 l 1
 417 610 l 1
 503 502 545 397 545 294 c 0
 545 194 500 116 408 59 c 0
 383 44 356 36 327 36 c 0
 274 36 228 55 190 93 c 0
 152 130 133 176 133 229 c 0
 133 258 140 279 155 292 c 1
 220 321 266 354 292 391 c 0
 317 426 330 470 329 522 c 1
 315 569 290 600 255 616 c 0
 198.214985758 642.898164641 137.513341306 618.545976662 110 578 c 1
 101 561 l 1
 94 544 89 527 89 507 c 0
 89 456.319818337 117.580246374 414.927469203 165 409 c 1
 172 403 175 395 175 386 c 0
 175 371.600518016 166.241482951 353 149 353 c 1
EndSplineSet
Validated: 33
Ligature2: "'cjct' Conjunct Forms in Bengali2 lookup 13" u09a3 u09cd u09a0
EndChar

StartChar: u09a3_u09cd_u09a1.cjct
Encoding: 65650 -1 130
GlifName: u09a3_u09cd_u09a1.cjct
Width: 694
GlyphClass: 3
Flags: W
HStem: 42 55<378.706 574.366> 344 59<278.921 372.88> 603 57<258.91 401.565>
VStem: 16 53<474.806 563.67> 625 56<143.412 266.81 379.968 519.075>
LayerCount: 2
Fore
SplineSet
490 97 m 0
 562.660739541 97 625 136.074539074 625 208 c 0
 625 237 615 259 595 275 c 1
 582 283 l 1
 566 288 l 2
 549.870880162 292.03227996 542 305.011414467 542 316 c 0
 542 325 546 334 555 342 c 1
 601 365 625 398 625 442 c 0
 625 495 597 542 544 583 c 1
 536 500 l 1
 529 487 519 480 506 480 c 0
 497 480 490 484 483 491 c 1
 459 538 427 571 388 589 c 0
 368 598 347 603 325 603 c 0
 264.362975751 603 224.447589997 564.779534862 229 502 c 0
 233.447589997 440.665974484 282 408 362 403 c 1
 369 398 374 390 374 377 c 0
 374 359 367 348 356 344 c 1
 256.020265209 351.934899587 203.523930572 387.042295921 176 461 c 0
 170.677567244 475.301551361 171 491 171 506 c 0
 171 568 195.726543895 615.487205761 248 644 c 0
 272.726543895 657.487205761 299 660 325 660 c 0
 379 660 433 637 486 590 c 1
 488 641 l 2
 489 656 500 664 520 664 c 0
 525 664 529 663 534 662 c 0
 583 634 620 599 647 555 c 0
 670 519 682 481 682 442 c 0
 682 395 663 355 627 321 c 1
 663 291 681 253 681 208 c 0
 681 164 665 127 634 94 c 1
 618 79 l 1
 593 59 565.179949 43.1992288077 534 42 c 0
 461.179949 39.1992288077 405 48 365 60 c 0
 315 75 265 105 216 150 c 0
 117 241 51 371 16 542 c 1
 18 557 27 564 43 564 c 0
 52 564 61 561 69 556 c 1
 93 448 126 363 165 301 c 0
 196 252 236 208 286 168 c 0
 328.449604402 134.040316479 413.038036483 97 490 97 c 0
EndSplineSet
Validated: 33
Ligature2: "'cjct' Conjunct Forms in Bengali2 lookup 13" u09a3 u09cd u09a1
EndChar

StartChar: u09a4_u09cd_u09a5.cjct
Encoding: 65651 -1 131
GlifName: u09a4_u09cd_u09a5.cjct
Width: 664
GlyphClass: 3
Flags: W
HStem: 414 51<92.8496 135.607> 610 58<101.064 194.568 586 663>
VStem: 13 59<485.875 586.37> 212 64<499.893 563.655> 353 59<399.796 564.184> 524 62<107 610>
LayerCount: 2
Fore
SplineSet
412 488 m 0
 412 425 391 367 349 315 c 0
 332 294 313 276 292 261 c 1
 524 107 l 1
 524 610 l 2
 524 652 545 673 586 673 c 2
 663 673 l 1
 663 610 l 1
 586 610 l 1
 586 65 l 2
 586 40 577 27 556 27 c 0
 547 27 535 31 524 38 c 2
 208 244 l 2
 201 249 197 256 197 265 c 0
 197 284 207 295 225 299 c 0
 292.234466325 307.96459551 346.8601263 401.328476973 352 475 c 0
 352 479 353 484 353 488 c 0
 353 529 339 563 313 588 c 1
 297 566 285 542 276 519 c 0
 269 505 259 498 246 498 c 0
 225 498 210.176532301 511.148194184 212 538 c 0
 214.577438159 575.954535186 184.944657536 610 146 610 c 0
 133 610 120 606 106 599 c 1
 83 579 72 559 72 537 c 0
 72 505 90 481 125 465 c 1
 132 458 136 450 136 441 c 0
 136 423 125 414 104 414 c 0
 100 414 96 415 91 416 c 0
 39 441 13 481 13 535 c 0
 13 591 43.4610193213 634.410705758 107 662 c 0
 119.461019321 667.410705758 133 668 146 668 c 0
 186 668 222 648 255 607 c 1
 263 628 274 641 284 648 c 0
 292 653 306 657 327 661 c 1
 384 619 412 562 412 488 c 0
EndSplineSet
Validated: 33
Ligature2: "'cjct' Conjunct Forms in Bengali2 lookup 13" u09a4 u09cd u09a5
EndChar

StartChar: u09a4_u09cd_u09a8.cjct
Encoding: 65652 -1 132
GlifName: u09a4_u09cd_u09a8.cjct
Width: 455
GlyphClass: 3
Flags: W
HStem: 12 46<75.7077 123.582> 235 53<78.8032 201.969> 331 54<189.312 268.79> 551 54<232.93 317.371> 610 63<-5 453>
VStem: -12 56<88.5872 200.969> 14 53<506.951 583.942> 159 58<466.153 535.132> 269 62<6.86133 174.594 202 331> 347 58<419.562 525.767>
LayerCount: 2
Fore
SplineSet
453 610 m 1xf9c0
 -5 610 l 1
 -5 673 l 1
 453 673 l 1
 453 610 l 1xf9c0
102 12 m 0
 52.9435852551 12 -12 101.615745399 -12 154 c 0xfdc0
 -12 175 -6 197 6 218 c 0
 32 265 72 288 124 288 c 0
 183.590746922 288 241.958121756 249.323286927 269 202 c 1
 269 331 l 1
 211 331 156 356 103 407 c 0
 52 455 22 507 14 564 c 0
 9.719754242 575.413988688 32.3622361954 586 50 586 c 0
 61 586 66 583 67 576 c 0xfbc0
 70 530 93 487 136 446 c 0
 180 405 221 385 259 385 c 0
 265 385 270 385 276 386 c 1
 331 421 l 1
 342 435 347 451 347 470 c 0
 347 496 335 520 312 540 c 0
 303 547 293 551 281 551 c 0
 260 551 243 543 230 527 c 1
 223 516 l 1
 218 506 216 495 217 484 c 0
 219 475 215 469 208 466 c 1
 197 464 l 1
 194 464 l 2
 171 464 159 479 159 509 c 0
 159 561.596102763 211.601902859 605 267 605 c 0
 341.754918111 605 405 544.675323678 405 469 c 0
 405 413.392670727 374.49080348 365.74540174 331 344 c 1
 331 24 l 2
 331 12 319 6 296 6 c 0
 277 6 269 12 269 24 c 0
 269 77 269 106 268 113 c 0
 264 146 253 172 236 189 c 0
 205 220 174 235 141 235 c 0
 90.5251057579 235 44 196.284736816 44 143 c 0xfdc0
 44 105 67 77 113 58 c 0
 120 55 124 50 124 41 c 0
 124 22 117 12 102 12 c 0
EndSplineSet
Validated: 33
Ligature2: "'cjct' Conjunct Forms in Bengali2 lookup 13" u09a4 u09cd u09a8
EndChar

